<?xml version="1.0" standalone="no"?><!DOCTYPE svg PUBLIC "-//W3C//DTD SVG 1.1//EN" "http://www.w3.org/Graphics/SVG/1.1/DTD/svg11.dtd" ><svg xmlns="http://www.w3.org/2000/svg"><metadata></metadata><defs><font id="fonteditor" horiz-adv-x="988"><font-face font-family="?Ì]ô]ôfn`àOS B" font-weight="700" font-stretch="normal" units-per-em="1000" panose-1="0 2 6 0 4 1 1 1 1 1" ascent="1050" descent="-322" x-height="1" bbox="-88 -209 984 835" underline-thickness="50" underline-position="-75" unicode-range="U+0021-ffe5" /><missing-glyph horiz-adv-x="575" d="M80 742 L495 742 L495 0 L80 0 L80 742 ZM426 66 L426 677 L150 677 L150 66 L426 66 Z" /><glyph glyph-name="exclam" unicode="!" d="M106 694 L266 694 L247 252 L125 252 L106 694 ZM186 -6 Q159 -6 142.5 -3 Q126 0 116.5 9 Q107 18 104 34.5 Q101 51 101 78 Q101 104 104 120.5 Q107 137 116.5 146 Q126 155 142.5 158 Q159 161 186 161 Q212 161 228.5 158 Q245 155 254 146 Q263 137 266.5 120.5 Q270 104 270 78 Q270 51 266.5 34.5 Q263 18 254 9 Q245 0 228.5 -3 Q212 -6 186 -6 Z" /><glyph glyph-name="quotedbl" unicode="&quot;" d="M44 760 L185 760 L159 464 L71 464 L44 760 ZM230 760 L372 760 L346 464 L257 464 L230 760 Z" /><glyph glyph-name="numbersign" unicode="#" d="M501 423 L478 281 L585 281 L585 178 L460 178 L431 0 L313 0 L342 178 L202 178 L173 0 L55 0 L84 178 L14 178 L14 281 L101 281 L124 423 L14 423 L14 526 L141 526 L168 694 L288 694 L260 526 L399 526 L426 694 L546 694 L518 526 L585 526 L585 423 L501 423 ZM382 423 L243 423 L220 281 L359 281 L382 423 Z" /><glyph glyph-name="dollar" unicode="$" d="M534 204 Q534 109 487 61 Q440 13 329 6 L329 -138 L255 -138 L255 4 Q225 5 195.5 7 Q166 9 139.5 12 Q113 15 90.5 19 Q68 23 53 28 L53 154 Q68 149 91 144.5 Q114 140 140.5 136.5 Q167 133 196.5 130.5 Q226 128 255 127 L255 302 Q195 314 156.5 329.5 Q118 345 95.5 368 Q73 391 64 423.5 Q55 456 55 503 Q55 553 68.5 588 Q82 623 107.5 645.5 Q133 668 170 679.5 Q207 691 255 694 L255 787 L329 787 L329 694 Q377 692 421.5 685.5 Q466 679 490 671 L490 552 Q467 560 422 567.5 Q377 575 329 577 L329 411 Q389 398 429 381 Q469 364 492 340 Q515 316 524.5 282.5 Q534 249 534 204 ZM185 503 Q185 487 187.5 475.5 Q190 464 197.5 455 Q205 446 219 439.5 Q233 433 255 427 L255 576 Q215 572 200 556.5 Q185 541 185 503 ZM329 129 Q371 134 387 151 Q403 168 403 203 Q403 219 400 231.5 Q397 244 389 253.5 Q381 263 366.5 270.5 Q352 278 329 285 L329 129 Z" /><glyph glyph-name="percent" unicode="%" d="M209 323 Q175 323 148 331.5 Q121 340 102 362 Q83 384 72.5 421 Q62 458 62 514 Q62 569 72.5 606 Q83 643 102 664.5 Q121 686 148 695 Q175 704 209 704 Q243 704 270.5 695 Q298 686 317 664.5 Q336 643 346.5 606 Q357 569 357 514 Q357 458 346.5 421 Q336 384 317 362 Q298 340 270.5 331.5 Q243 323 209 323 ZM563 694 L658 694 L269 0 L174 0 L563 694 ZM209 397 Q225 397 235.5 402 Q246 407 252.5 420 Q259 433 261.5 456 Q264 479 264 514 Q264 548 261.5 570.5 Q259 593 252.5 606.5 Q246 620 235.5 625 Q225 630 209 630 Q179 630 166.5 606.5 Q154 583 154 514 Q154 479 157 456 Q160 433 166.5 420 Q173 407 183.5 402 Q194 397 209 397 ZM622 -10 Q588 -10 561 -1.5 Q534 7 515 29 Q496 51 485.5 88 Q475 125 475 181 Q475 236 485.5 273 Q496 310 515 331.5 Q534 353 561 362 Q588 371 622 371 Q656 371 683.5 362 Q711 353 730.5 331.5 Q750 310 760.5 273 Q771 236 771 181 Q771 125 760.5 88 Q750 51 730.5 29 Q711 7 683.5 -1.5 Q656 -10 622 -10 ZM622 64 Q638 64 648.5 69 Q659 74 665.5 87 Q672 100 675 123 Q678 146 678 181 Q678 215 675 237.5 Q672 260 665.5 273.5 Q659 287 648.5 292 Q638 297 622 297 Q607 297 596.5 292 Q586 287 580 273.5 Q574 260 571 237.5 Q568 215 568 181 Q568 146 571 123 Q574 100 580 87 Q586 74 596.5 69 Q607 64 622 64 Z" /><glyph glyph-name="ampersand" unicode="&amp;" d="M629 0 Q592 0 564.5 2 Q537 4 514.5 10 Q492 16 473 27.5 Q454 39 435 58 Q387 23 340.5 6.5 Q294 -10 242 -10 Q189 -10 148.5 5 Q108 20 80 46 Q52 72 37.5 107.5 Q23 143 23 184 Q23 212 30 238 Q37 264 53.5 289 Q70 314 97.5 338.5 Q125 363 166 387 Q137 427 125 462 Q113 497 113 540 Q113 575 126.5 605 Q140 635 165 657 Q190 679 226 691.5 Q262 704 307 704 Q398 704 441.5 661 Q485 618 485 548 Q485 488 453.5 446.5 Q422 405 352 363 L450 240 Q468 272 475.5 306.5 Q483 341 485 381 L613 381 Q609 308 591.5 252 Q574 196 530 144 Q549 127 570.5 120.5 Q592 114 629 114 L629 0 ZM306 598 Q281 598 266.5 581 Q252 564 252 534 Q252 496 285 449 Q326 472 341.5 492 Q357 512 357 539 Q357 598 306 598 ZM167 197 Q167 157 193 131.5 Q219 106 261 106 Q290 106 314 116 Q338 126 363 144 L236 299 Q196 273 181.5 249 Q167 225 167 197 Z" /><glyph glyph-name="quotesingle" unicode="&#39;" d="M44 760 L185 760 L159 464 L71 464 L44 760 Z" /><glyph glyph-name="parenleft" unicode="(" d="M217 -200 Q139 -86 98 30 Q57 146 57 275 Q57 408 99 525.5 Q141 643 221 760 L368 760 Q286 629 248.5 513 Q211 397 211 280 Q211 162 248 43.5 Q285 -75 363 -200 L217 -200 Z" /><glyph glyph-name="parenright" unicode=")" d="M28 -200 Q110 -69 147.5 47 Q185 163 185 280 Q185 398 148 516.5 Q111 635 33 760 L179 760 Q257 646 297.5 530 Q338 414 338 285 Q338 151 296 34 Q254 -83 174 -200 L28 -200 Z" /><glyph glyph-name="asterisk" unicode="*" d="M69 449 L163 547 L30 569 L68 686 L189 627 L170 760 L292 760 L273 627 L394 686 L432 569 L299 547 L393 449 L294 377 L231 497 L168 377 L69 449 Z" /><glyph glyph-name="plus" unicode="+" d="M550 241 L349 241 L349 40 L230 40 L230 241 L29 241 L29 360 L230 360 L230 560 L349 560 L349 360 L550 360 L550 241 Z" /><glyph glyph-name="comma" unicode="," d="M29 -136 Q46 -106 62 -68 Q78 -30 90.5 10.5 Q103 51 110.5 89.5 Q118 128 118 160 L258 160 Q258 128 247.5 88 Q237 48 221 6.5 Q205 -35 185 -72.5 Q165 -110 146 -136 L29 -136 Z" /><glyph glyph-name="period" unicode="." d="M165 -6 Q136 -6 118.5 -3 Q101 0 92 10 Q83 20 80 37 Q77 54 77 83 Q77 112 80 129.5 Q83 147 92 156.5 Q101 166 118.5 169 Q136 172 165 172 Q193 172 210.5 169 Q228 166 237.5 156.5 Q247 147 250 129.5 Q253 112 253 83 Q253 54 250 37 Q247 20 237.5 10 Q228 0 210.5 -3 Q193 -6 165 -6 Z" /><glyph glyph-name="slash" unicode="/" d="M332 724 L438 724 L168 -30 L62 -30 L332 724 Z" /><glyph glyph-name="zero" unicode="0" d="M295 -10 Q238 -10 191 5.5 Q144 21 111 61.5 Q78 102 60 171.5 Q42 241 42 348 Q42 455 60 524 Q78 593 111 633 Q144 673 191 688.5 Q238 704 295 704 Q352 704 398.5 688.5 Q445 673 478 633 Q511 593 528.5 524 Q546 455 546 348 Q546 241 528.5 171.5 Q511 102 478 61.5 Q445 21 398.5 5.5 Q352 -10 295 -10 ZM295 115 Q324 115 344.5 125 Q365 135 378 160.5 Q391 186 397 231 Q403 276 403 347 Q403 417 397 462 Q391 507 378 533.5 Q365 560 344.5 570 Q324 580 295 580 Q266 580 245.5 570 Q225 560 212 533.5 Q199 507 193 462 Q187 417 187 347 Q187 276 193 231 Q199 186 212 160.5 Q225 135 245.5 125 Q266 115 295 115 Z" /><glyph glyph-name="one" unicode="1" d="M266 563 L96 530 L96 652 L304 694 L413 694 L413 0 L266 0 L266 563 Z" /><glyph glyph-name="two" unicode="2" d="M51 130 Q142 203 203.5 257 Q265 311 302 351.5 Q339 392 354.5 423.5 Q370 455 370 485 Q370 542 338 563 Q306 584 249 584 Q215 584 176.5 578 Q138 572 93 558 L93 679 Q133 692 180 698 Q227 704 277 704 Q392 704 456 655.5 Q520 607 520 507 Q520 465 510.5 428.5 Q501 392 474.5 353 Q448 314 400.5 268.5 Q353 223 277 163 L233 128 L233 120 L536 120 L536 0 L51 0 L51 130 Z" /><glyph glyph-name="three" unicode="3" d="M225 -10 Q133 -10 68 3 L68 127 Q107 119 142 114.5 Q177 110 217 110 Q248 110 275.5 114 Q303 118 323 129 Q343 140 355 158.5 Q367 177 367 207 Q367 263 322 282.5 Q277 302 197 302 L144 302 L144 413 L196 413 Q269 413 312 432.5 Q355 452 355 505 Q355 552 321 569 Q287 586 229 586 Q197 586 160 580.5 Q123 575 94 566 L94 683 Q118 691 161 697.5 Q204 704 247 704 Q305 704 352 694.5 Q399 685 432 662.5 Q465 640 482.5 603.5 Q500 567 500 514 Q500 459 473.5 421.5 Q447 384 389 365 L389 359 Q453 346 485.5 302.5 Q518 259 518 195 Q518 89 444.5 39.5 Q371 -10 225 -10 Z" /><glyph glyph-name="four" unicode="4" d="M550 148 L474 148 L474 0 L335 0 L335 148 L26 148 L26 290 L305 694 L474 694 L474 271 L550 271 L550 148 ZM335 271 L335 544 L329 544 L149 277 L149 271 L335 271 Z" /><glyph glyph-name="five" unicode="5" d="M233 -10 Q188 -10 153 -7 Q118 -4 82 3 L82 127 Q101 123 117 120 Q133 117 149 114.5 Q165 112 182.5 111 Q200 110 221 110 Q255 110 284 115 Q313 120 334 132.5 Q355 145 367 166 Q379 187 379 219 Q379 279 342 302.5 Q305 326 224 326 Q192 326 152.5 321.5 Q113 317 79 311 L128 694 L486 694 L486 571 L244 571 L222 428 Q240 432 257 433.5 Q274 435 296 435 Q413 435 471.5 382.5 Q530 330 530 221 Q530 161 509.5 117.5 Q489 74 451 45.5 Q413 17 358 3.5 Q303 -10 233 -10 Z" /><glyph glyph-name="six" unicode="6" d="M297 -10 Q244 -10 198.5 3 Q153 16 119 48 Q85 80 65.5 133 Q46 186 46 266 Q46 368 69.5 449 Q93 530 142.5 586.5 Q192 643 268 673.5 Q344 704 450 704 L449 580 Q331 578 268.5 533 Q206 488 195 407 L198 407 Q223 427 258.5 437.5 Q294 448 332 448 Q435 448 489.5 392 Q544 336 544 227 Q544 173 529.5 129.5 Q515 86 484.5 55 Q454 24 407.5 7 Q361 -10 297 -10 ZM292 104 Q348 104 378.5 134.5 Q409 165 409 225 Q409 283 380.5 312 Q352 341 301 341 Q268 341 246 333 Q224 325 210 310.5 Q196 296 190 276 Q184 256 184 232 Q184 171 210.5 137.5 Q237 104 292 104 Z" /><glyph glyph-name="seven" unicode="7" d="M384 571 L55 571 L55 694 L522 694 L522 552 L272 0 L120 0 L384 571 Z" /><glyph glyph-name="eight" unicode="8" d="M295 -11 Q174 -11 107.5 36.5 Q41 84 41 183 Q41 223 51 252.5 Q61 282 77.5 302.5 Q94 323 114 336 Q134 349 155 357 L155 361 Q135 371 118 384.5 Q101 398 88.5 416.5 Q76 435 69 460 Q62 485 62 518 Q62 608 121 656.5 Q180 705 295 705 Q410 705 468.5 656.5 Q527 608 527 518 Q527 453 501 417.5 Q475 382 427 361 L427 357 Q451 349 473 335.5 Q495 322 511.5 301.5 Q528 281 538 251.5 Q548 222 548 182 Q548 84 482 36.5 Q416 -11 295 -11 ZM295 411 Q351 411 375 437 Q399 463 399 505 Q399 549 372.5 571.5 Q346 594 295 594 Q244 594 217 572.5 Q190 551 190 505 Q190 463 214 437 Q238 411 295 411 ZM295 104 Q414 104 414 196 Q414 250 383 276 Q352 302 295 302 Q238 302 206.5 276 Q175 250 175 196 Q175 151 204 127.5 Q233 104 295 104 Z" /><glyph glyph-name="nine" unicode="9" d="M140 114 Q250 114 319 155 Q388 196 396 279 L392 279 Q372 262 339.5 251 Q307 240 265 240 Q158 240 101.5 295.5 Q45 351 45 460 Q45 514 59.5 558.5 Q74 603 104.5 635.5 Q135 668 181.5 686 Q228 704 292 704 Q345 704 391 689.5 Q437 675 470.5 641.5 Q504 608 523 553 Q542 498 542 416 Q542 313 521.5 233.5 Q501 154 454 99.5 Q407 45 330 17 Q253 -11 140 -11 L140 114 ZM290 345 Q354 345 379.5 376.5 Q405 408 405 456 Q405 516 378 552.5 Q351 589 295 589 Q238 589 208 555 Q178 521 178 462 Q178 404 207.5 374.5 Q237 345 290 345 Z" /><glyph glyph-name="colon" unicode=":" d="M202 369 Q173 369 156 372 Q139 375 129.5 384.5 Q120 394 117 411.5 Q114 429 114 458 Q114 487 117 504.5 Q120 522 129.5 531.5 Q139 541 156 544 Q173 547 202 547 Q230 547 247.5 544 Q265 541 274.5 531.5 Q284 522 287 504.5 Q290 487 290 458 Q290 429 287 411.5 Q284 394 274.5 384.5 Q265 375 247.5 372 Q230 369 202 369 ZM202 -6 Q173 -6 156 -3 Q139 0 129.5 10 Q120 20 117 37 Q114 54 114 83 Q114 112 117 129.5 Q120 147 129.5 156.5 Q139 166 156 169 Q173 172 202 172 Q230 172 247.5 169 Q265 166 274.5 156.5 Q284 147 287 129.5 Q290 112 290 83 Q290 54 287 37 Q284 20 274.5 10 Q265 0 247.5 -3 Q230 -6 202 -6 Z" /><glyph glyph-name="semicolon" unicode=";" d="M202 369 Q173 369 156 372 Q139 375 129.5 384.5 Q120 394 117 411.5 Q114 429 114 458 Q114 487 117 504.5 Q120 522 129.5 531.5 Q139 541 156 544 Q173 547 202 547 Q230 547 247.5 544 Q265 541 274.5 531.5 Q284 522 287 504.5 Q290 487 290 458 Q290 429 287 411.5 Q284 394 274.5 384.5 Q265 375 247.5 372 Q230 369 202 369 ZM50 -136 Q67 -106 83.5 -68 Q100 -30 112.5 10.5 Q125 51 132.5 89.5 Q140 128 140 160 L279 160 Q279 128 268.5 88 Q258 48 242 6.5 Q226 -35 206 -72.5 Q186 -110 167 -136 L50 -136 Z" /><glyph glyph-name="less" unicode="&lt;" d="M550 470 L114 300 L550 130 L550 11 L29 223 L29 377 L550 589 L550 470 Z" /><glyph glyph-name="equal" unicode="=" d="M29 489 L550 489 L550 370 L29 370 L29 489 ZM29 231 L550 231 L550 112 L29 112 L29 231 Z" /><glyph glyph-name="greater" unicode="&gt;" d="M550 377 L550 223 L29 11 L29 130 L465 300 L29 470 L29 589 L550 377 Z" /><glyph glyph-name="question" unicode="?" d="M136 273 Q136 294 139.5 311.5 Q143 329 152 345 Q161 361 176 377 Q191 393 213 412 Q229 425 239.5 436 Q250 447 256 457.5 Q262 468 264 480 Q266 492 266 508 Q266 531 261 545 Q256 559 243.5 567 Q231 575 210.5 578 Q190 581 160 581 Q129 581 96.5 576.5 Q64 572 38 564 L38 688 Q66 696 105 701 Q144 706 189 706 Q250 706 294 698 Q338 690 366.5 670 Q395 650 408 615.5 Q421 581 421 529 Q421 494 416.5 469 Q412 444 401.5 423.5 Q391 403 373.5 385.5 Q356 368 331 349 Q308 332 294 319 Q280 306 272 295.5 Q264 285 261 274.5 Q258 264 258 251 L258 228 L136 228 L136 273 ZM198 -6 Q171 -6 154.5 -3 Q138 0 128.5 9 Q119 18 116 34.5 Q113 51 113 78 Q113 104 116 120.5 Q119 137 128.5 146 Q138 155 154.5 158 Q171 161 198 161 Q225 161 241.5 158 Q258 155 267 146 Q276 137 279.5 120.5 Q283 104 283 78 Q283 51 279.5 34.5 Q276 18 267 9 Q258 0 241.5 -3 Q225 -6 198 -6 Z" /><glyph glyph-name="at" unicode="@" d="M448 -110 Q249 -110 142 -15 Q35 80 35 260 Q35 363 70 445.5 Q105 528 163.5 585 Q222 642 299.5 672.5 Q377 703 462 703 Q555 703 623 678 Q691 653 735.5 609.5 Q780 566 801.5 507.5 Q823 449 823 381 Q823 317 809 263.5 Q795 210 770 171.5 Q745 133 709.5 111.5 Q674 90 631 90 Q553 90 517 154 Q488 124 458 106.5 Q428 89 381 89 Q311 89 274 132.5 Q237 176 237 247 Q237 310 255 358 Q273 406 302 439 Q331 472 366.5 488.5 Q402 505 437 505 Q476 505 497.5 490.5 Q519 476 530 450 L539 496 L641 495 L605 304 Q601 282 598.5 265.5 Q596 249 596 239 Q596 212 608.5 198.5 Q621 185 639 185 Q673 185 693 232 Q713 279 713 368 Q713 488 649 544 Q585 600 461 600 Q398 600 341 577.5 Q284 555 241.5 511.5 Q199 468 173.5 405 Q148 342 148 261 Q148 121 226 56.5 Q304 -8 453 -8 Q510 -8 557 -1.5 Q604 5 650 18 L650 -80 Q549 -110 448 -110 ZM403 186 Q442 186 465 216.5 Q488 247 498 299 Q500 311 501.5 322.5 Q503 334 503 342 Q503 372 492 390.5 Q481 409 445 409 Q423 409 405.5 395.5 Q388 382 375.5 359.5 Q363 337 356 309 Q349 281 349 253 Q349 228 359.5 207 Q370 186 403 186 Z" /><glyph glyph-name="A" unicode="a" d="M503 172 L221 172 L161 0 L3 0 L262 694 L466 694 L723 0 L562 0 L503 172 ZM459 298 L369 561 L357 561 L265 298 L459 298 Z" /><glyph glyph-name="B" unicode="b" d="M77 694 L311 694 Q387 694 437 682.5 Q487 671 516.5 647.5 Q546 624 558 589 Q570 554 570 507 Q570 453 548 417 Q526 381 469 365 L469 361 Q591 330 591 200 Q591 153 579 115.5 Q567 78 537.5 52.5 Q508 27 458 13.5 Q408 0 332 0 L77 0 L77 694 ZM280 408 Q317 408 343.5 411.5 Q370 415 387 424 Q404 433 412 449 Q420 465 420 491 Q420 518 412 534 Q404 550 387.5 559 Q371 568 344 570.5 Q317 573 280 573 L229 573 L229 408 L280 408 ZM299 122 Q339 122 365.5 126 Q392 130 408 139.5 Q424 149 430.5 166 Q437 183 437 210 Q437 234 430.5 251 Q424 268 408.5 278.5 Q393 289 366 293.5 Q339 298 299 298 L229 298 L229 122 L299 122 Z" /><glyph glyph-name="C" unicode="c" d="M394 -10 Q318 -10 256 5 Q194 20 150 59.5 Q106 99 82 168.5 Q58 238 58 347 Q58 447 81.5 515.5 Q105 584 149 626 Q193 668 254.5 686 Q316 704 393 704 Q491 704 555 681 L555 550 Q523 561 485 567.5 Q447 574 403 574 Q356 574 322 562.5 Q288 551 266 524.5 Q244 498 233.5 455 Q223 412 223 348 Q223 280 233.5 236.5 Q244 193 266 167.5 Q288 142 321.5 132 Q355 122 401 122 Q444 122 483.5 128.5 Q523 135 563 149 L563 19 Q532 6 488 -2 Q444 -10 394 -10 Z" /><glyph glyph-name="D" unicode="d" d="M315 694 Q391 694 453.5 680.5 Q516 667 560.5 629 Q605 591 629 523 Q653 455 653 347 Q653 246 629 179.5 Q605 113 560.5 73 Q516 33 453.5 16.5 Q391 0 315 0 L77 0 L77 694 L315 694 ZM307 130 Q355 130 390.5 140 Q426 150 449.5 175 Q473 200 484.5 242 Q496 284 496 347 Q496 414 484 456.5 Q472 499 448.5 523.5 Q425 548 389.5 557 Q354 566 307 566 L229 566 L229 130 L307 130 Z" /><glyph glyph-name="E" unicode="e" d="M515 132 L515 0 L77 0 L77 694 L501 694 L501 562 L229 562 L229 419 L481 419 L481 292 L229 292 L229 132 L515 132 Z" /><glyph glyph-name="F" unicode="f" d="M229 562 L229 401 L481 401 L481 270 L229 270 L229 0 L77 0 L77 694 L501 694 L501 562 L229 562 Z" /><glyph glyph-name="G" unicode="g" d="M400 -10 Q320 -10 256.5 5 Q193 20 149 59.5 Q105 99 81.5 168.5 Q58 238 58 347 Q58 447 82 515.5 Q106 584 151 626 Q196 668 260 686 Q324 704 405 704 Q430 704 456.5 702 Q483 700 507.5 697 Q532 694 554 689.5 Q576 685 592 679 L592 546 Q553 560 507.5 567 Q462 574 417 574 Q367 574 330.5 563.5 Q294 553 270.5 526.5 Q247 500 235.5 456.5 Q224 413 224 347 Q224 278 234 233.5 Q244 189 266 163.5 Q288 138 323.5 128 Q359 118 410 118 Q431 118 449 119 Q467 120 484 124 L484 274 L366 274 L366 401 L625 401 L625 21 Q586 8 525.5 -1 Q465 -10 400 -10 Z" /><glyph glyph-name="H" unicode="h" d="M654 694 L654 0 L503 0 L503 307 L229 307 L229 0 L77 0 L77 694 L229 694 L229 434 L503 434 L503 694 L654 694 Z" /><glyph glyph-name="I" unicode="i" d="M77 694 L229 694 L229 0 L77 0 L77 694 Z" /><glyph glyph-name="J" unicode="j" d="M-9 -188 Q-27 -188 -49 -186.5 Q-71 -185 -88 -183 L-88 -63 Q-73 -65 -56.5 -66.5 Q-40 -68 -23 -68 Q35 -68 56.5 -35 Q78 -2 78 57 L78 694 L229 694 L229 50 Q229 -71 166 -129.5 Q103 -188 -9 -188 Z" /><glyph glyph-name="K" unicode="k" d="M654 0 L470 0 L266 304 L229 304 L229 0 L77 0 L77 694 L229 694 L229 427 L266 427 L466 694 L644 694 L391 372 L654 0 Z" /><glyph glyph-name="L" unicode="l" d="M505 132 L505 0 L77 0 L77 694 L229 694 L229 132 L505 132 Z" /><glyph glyph-name="M" unicode="m" d="M77 694 L324 694 L439 303 L445 303 L565 694 L805 694 L805 0 L655 0 L655 546 L649 546 L515 131 L363 131 L231 546 L225 546 L225 0 L77 0 L77 694 Z" /><glyph glyph-name="N" unicode="n" d="M77 694 L309 694 L527 198 L533 198 L533 694 L682 694 L682 0 L473 0 L233 528 L227 528 L227 0 L77 0 L77 694 Z" /><glyph glyph-name="O" unicode="o" d="M373 -10 Q298 -10 239 6 Q180 22 140 62.5 Q100 103 79 172 Q58 241 58 347 Q58 453 79 522 Q100 591 140 631.5 Q180 672 239 688 Q298 704 373 704 Q449 704 508 688 Q567 672 607 631.5 Q647 591 667.5 522 Q688 453 688 347 Q688 241 667.5 172 Q647 103 607 62.5 Q567 22 508 6 Q449 -10 373 -10 ZM373 117 Q421 117 451.5 129 Q482 141 499 168 Q516 195 522.5 239 Q529 283 529 347 Q529 410 522.5 454.5 Q516 499 499 527 Q482 555 451.5 567.5 Q421 580 373 580 Q325 580 295 567.5 Q265 555 248 527 Q231 499 224.5 454.5 Q218 410 218 347 Q218 283 224.5 239 Q231 195 248 168 Q265 141 295 129 Q325 117 373 117 Z" /><glyph glyph-name="P" unicode="p" d="M77 694 L314 694 Q392 694 444.5 680.5 Q497 667 528.5 638.5 Q560 610 573.5 565.5 Q587 521 587 458 Q587 390 572 343.5 Q557 297 524 268 Q491 239 439 226.5 Q387 214 314 214 L229 214 L229 0 L77 0 L77 694 ZM294 336 Q333 336 359 341.5 Q385 347 401.5 361 Q418 375 425 397.5 Q432 420 432 455 Q432 488 425 511 Q418 534 401.5 548 Q385 562 358.5 568 Q332 574 294 574 L229 574 L229 336 L294 336 Z" /><glyph glyph-name="Q" unicode="q" d="M688 347 Q688 269 676.5 211 Q665 153 643 112.5 Q621 72 588.5 46.5 Q556 21 513 8 L634 -145 L455 -145 L368 -10 Q294 -10 236 6.5 Q178 23 138.5 63.5 Q99 104 78.5 173 Q58 242 58 347 Q58 453 79 522 Q100 591 140 631.5 Q180 672 239 688 Q298 704 373 704 Q449 704 508 688 Q567 672 607 631.5 Q647 591 667.5 522 Q688 453 688 347 ZM218 347 Q218 283 224.5 239 Q231 195 248 168 Q265 141 295 129 Q325 117 373 117 Q421 117 451.5 129 Q482 141 499 168 Q516 195 522.5 239 Q529 283 529 347 Q529 410 522.5 454.5 Q516 499 499 527 Q482 555 451.5 567.5 Q421 580 373 580 Q325 580 295 567.5 Q265 555 248 527 Q231 499 224.5 454.5 Q218 410 218 347 Z" /><glyph glyph-name="R" unicode="r" d="M467 0 L304 253 L229 253 L229 0 L77 0 L77 694 L313 694 Q383 694 433.5 682 Q484 670 517 644 Q550 618 565.5 576 Q581 534 581 474 Q581 387 549.5 338 Q518 289 451 269 L646 0 L467 0 ZM290 366 Q328 366 355 370.5 Q382 375 398.5 387 Q415 399 422.5 420 Q430 441 430 474 Q430 505 422.5 524.5 Q415 544 398.5 555 Q382 566 355 570 Q328 574 290 574 L229 574 L229 366 L290 366 Z" /><glyph glyph-name="S" unicode="s" d="M257 -10 Q196 -10 141.5 -2 Q87 6 55 15 L55 148 Q71 142 94 137 Q117 132 143 128.5 Q169 125 196.5 122.5 Q224 120 251 120 Q285 120 308.5 124 Q332 128 346.5 138 Q361 148 367 164 Q373 180 373 203 Q373 223 368 237 Q363 251 349.5 262 Q336 273 311.5 282 Q287 291 247 301 Q191 314 154.5 329.5 Q118 345 96 367.5 Q74 390 65 422 Q56 454 56 501 Q56 611 122.5 657.5 Q189 704 310 704 Q369 704 414.5 696.5 Q460 689 488 679 L488 554 Q475 558 455 562.5 Q435 567 411 571 Q387 575 362.5 577 Q338 579 316 579 Q257 579 230.5 564 Q204 549 204 505 Q204 488 208 476 Q212 464 224.5 454.5 Q237 445 260.5 437 Q284 429 322 420 Q384 405 423.5 386.5 Q463 368 485.5 342.5 Q508 317 516 282.5 Q524 248 524 199 Q524 97 462 43.5 Q400 -10 257 -10 Z" /><glyph glyph-name="T" unicode="t" d="M533 561 L351 561 L351 0 L200 0 L200 561 L18 561 L18 694 L533 694 L533 561 Z" /><glyph glyph-name="U" unicode="u" d="M364 -10 Q294 -10 240 2 Q186 14 149 41.5 Q112 69 93 115 Q74 161 74 230 L74 694 L226 694 L226 247 Q226 216 232 192 Q238 168 254 152 Q270 136 297 128 Q324 120 365 120 Q408 120 435 129 Q462 138 477.5 154.5 Q493 171 499 194.5 Q505 218 505 247 L505 694 L656 694 L656 230 Q656 166 636.5 120.5 Q617 75 579.5 46 Q542 17 488 3.5 Q434 -10 364 -10 Z" /><glyph glyph-name="V" unicode="v" d="M13 694 L181 694 L348 162 L354 162 L527 694 L685 694 L441 0 L252 0 L13 694 Z" /><glyph glyph-name="W" unicode="w" d="M18 694 L177 694 L277 181 L283 181 L389 627 L565 627 L665 181 L671 181 L773 694 L930 694 L771 0 L581 0 L474 440 L468 440 L359 0 L169 0 L18 694 Z" /><glyph glyph-name="X" unicode="x" d="M233 353 L30 694 L207 694 L343 446 L349 446 L488 694 L663 694 L456 359 L670 0 L489 0 L347 260 L341 260 L191 0 L15 0 L233 353 Z" /><glyph glyph-name="Y" unicode="y" d="M255 275 L3 694 L181 694 L330 417 L336 417 L490 694 L661 694 L408 278 L408 0 L255 0 L255 275 Z" /><glyph glyph-name="Z" unicode="z" d="M53 136 L395 557 L394 563 L72 563 L72 694 L582 694 L582 563 L236 138 L236 132 L608 132 L608 0 L53 0 L53 136 Z" /><glyph glyph-name="backslash" unicode="\" d="M14 760 L123 760 L492 -99 L383 -99 L14 760 Z" /><glyph glyph-name="asciicircum" unicode="^" d="M402 314 L290 607 L178 314 L59 314 L212 694 L367 694 L521 314 L402 314 Z" /><glyph glyph-name="underscore" unicode="_" d="M0 -113 L500 -113 L500 -209 L0 -209 L0 -113 Z" /><glyph glyph-name="grave" unicode="`" d="M62 751 L218 751 L310 610 L210 610 L62 751 Z" /><glyph glyph-name="a" unicode="a" d="M299 549 Q367 549 413.5 537.5 Q460 526 488.5 504 Q517 482 529.5 449.5 Q542 417 542 374 L542 0 L412 0 L398 63 Q381 33 337 11.5 Q293 -10 226 -10 Q135 -10 88 30.5 Q41 71 41 155 Q41 249 97.5 287 Q154 325 263 325 L397 325 L397 339 Q397 363 392.5 380 Q388 397 375 407.5 Q362 418 340 423 Q318 428 282 428 Q253 428 224 425.5 Q195 423 167 418 L167 541 Q198 545 234 547 Q270 549 299 549 ZM263 101 Q313 101 348 118.5 Q383 136 397 164 L397 227 L285 227 Q231 227 207.5 214 Q184 201 184 160 Q184 128 202.5 114.5 Q221 101 263 101 Z" /><glyph glyph-name="b" unicode="b" d="M381 550 Q447 550 488.5 530.5 Q530 511 554 474.5 Q578 438 587 386 Q596 334 596 270 Q596 212 587 161 Q578 110 554 72 Q530 34 488.5 12 Q447 -10 381 -10 Q342 -10 314.5 -4 Q287 2 267.5 13.5 Q248 25 235.5 40.5 Q223 56 215 76 L205 0 L73 0 L73 760 L218 760 L218 475 Q234 505 272 527.5 Q310 550 381 550 ZM335 100 Q372 100 394.5 113.5 Q417 127 429 150 Q441 173 444.5 204 Q448 235 448 270 Q448 307 444 338.5 Q440 370 428 393 Q416 416 394 429 Q372 442 335 442 Q298 442 274 430.5 Q250 419 235.5 397 Q221 375 215.5 343 Q210 311 210 270 Q210 231 215.5 199.5 Q221 168 235.5 146 Q250 124 274 112 Q298 100 335 100 Z" /><glyph glyph-name="c" unicode="c" d="M312 -10 Q249 -10 199.5 3 Q150 16 115.5 48 Q81 80 63 134 Q45 188 45 270 Q45 352 63 406 Q81 460 115.5 492 Q150 524 199.5 537 Q249 550 312 550 Q352 550 389 545.5 Q426 541 451 533 L451 411 Q398 431 331 431 Q295 431 269 423.5 Q243 416 226.5 397.5 Q210 379 202 348 Q194 317 194 270 Q194 223 202 192 Q210 161 227 143 Q244 125 270.5 117.5 Q297 110 334 110 Q366 110 396.5 114.5 Q427 119 456 130 L456 11 Q444 6 427.5 2.5 Q411 -1 391.5 -4 Q372 -7 351.5 -8.5 Q331 -10 312 -10 Z" /><glyph glyph-name="d" unicode="d" d="M568 760 L568 0 L437 0 L426 75 Q410 38 372.5 14 Q335 -10 261 -10 Q195 -10 153 9.5 Q111 29 87 65.5 Q63 102 54 154 Q45 206 45 270 Q45 328 54 379 Q63 430 87 468 Q111 506 153 528 Q195 550 261 550 Q335 550 371.5 528.5 Q408 507 424 471 L424 760 L568 760 ZM307 100 Q344 100 368 111 Q392 122 406 144 Q420 166 425.5 197.5 Q431 229 431 270 Q431 309 425.5 340.5 Q420 372 406 394.5 Q392 417 368 429.5 Q344 442 307 442 Q269 442 246.5 428 Q224 414 212.5 390.5 Q201 367 197.5 336 Q194 305 194 270 Q194 233 197.5 201.5 Q201 170 213 147.5 Q225 125 247.5 112.5 Q270 100 307 100 Z" /><glyph glyph-name="e" unicode="e" d="M543 313 Q543 290 541.5 269.5 Q540 249 538 238 L190 216 Q194 158 229 131 Q264 104 336 104 Q361 104 387 107.5 Q413 111 437 116 Q461 121 481.5 128 Q502 135 515 142 L515 28 Q503 21 482.5 14 Q462 7 435 2 Q408 -3 375.5 -6.5 Q343 -10 308 -10 Q246 -10 197 3 Q148 16 114.5 48 Q81 80 63 134 Q45 188 45 270 Q45 352 63 406 Q81 460 115 492 Q149 524 199 537 Q249 550 312 550 Q382 550 427 532.5 Q472 515 498 483.5 Q524 452 533.5 408.5 Q543 365 543 313 ZM411 334 Q411 356 407.5 375.5 Q404 395 393.5 409.5 Q383 424 363.5 432.5 Q344 441 312 441 Q278 441 255.5 433.5 Q233 426 219 411 Q205 396 198 372.5 Q191 349 190 317 L411 334 Z" /><glyph glyph-name="f" unicode="f" d="M329 659 Q302 659 285 654 Q268 649 258.5 635.5 Q249 622 245.5 599 Q242 576 242 540 L348 540 L348 427 L242 427 L242 0 L97 0 L97 427 L14 427 L14 540 L97 540 L97 545 Q97 615 112 658 Q127 701 154.5 724.5 Q182 748 221.5 756 Q261 764 310 764 Q326 764 341.5 762.5 Q357 761 372 759 L372 655 Q362 657 351 658 Q340 659 329 659 Z" /><glyph glyph-name="g" unicode="g" d="M571 540 L571 42 Q571 -14 556 -58.5 Q541 -103 505.5 -134.5 Q470 -166 413 -183 Q356 -200 272 -200 Q235 -200 193 -196.5 Q151 -193 118 -187 L118 -72 Q150 -80 188 -84 Q226 -88 261 -88 Q305 -88 336.5 -81 Q368 -74 388 -58.5 Q408 -43 417.5 -17 Q427 9 427 48 L427 77 Q410 41 373.5 20.5 Q337 0 264 0 Q198 0 156 20 Q114 40 89 76 Q64 112 54.5 162.5 Q45 213 45 275 Q45 330 54.5 380 Q64 430 89 468 Q114 506 156 528 Q198 550 264 550 Q338 550 374.5 529.5 Q411 509 427 471 L427 540 L571 540 ZM307 106 Q347 106 372 117.5 Q397 129 411 150.5 Q425 172 429.5 203.5 Q434 235 434 275 Q434 314 429.5 344.5 Q425 375 411 397 Q397 419 372 430.5 Q347 442 307 442 Q269 442 246.5 428 Q224 414 212.5 391 Q201 368 197.5 338 Q194 308 194 275 Q194 240 197.5 209.5 Q201 179 213 156 Q225 133 247.5 119.5 Q270 106 307 106 Z" /><glyph glyph-name="h" unicode="h" d="M387 550 Q437 550 471.5 538.5 Q506 527 527 504 Q548 481 557 447.5 Q566 414 566 369 L566 0 L421 0 L421 331 Q421 386 403 409 Q385 432 333 432 Q288 432 259 415 Q230 398 218 354 L218 0 L73 0 L73 760 L218 760 L218 474 Q240 512 283.5 531 Q327 550 387 550 Z" /><glyph glyph-name="i" unicode="i" d="M143 615 Q119 615 103 617.5 Q87 620 78 628 Q69 636 65.5 651 Q62 666 62 692 Q62 717 65.5 732 Q69 747 78 755 Q87 763 103 765 Q119 767 143 767 Q168 767 183.5 765 Q199 763 208 755 Q217 747 220.5 732 Q224 717 224 692 Q224 666 220.5 651 Q217 636 208 628 Q199 620 183.5 617.5 Q168 615 143 615 ZM70 540 L215 540 L215 0 L70 0 L70 540 Z" /><glyph glyph-name="j" unicode="j" d="M143 615 Q119 615 103 617.5 Q87 620 78 628 Q69 636 65.5 651 Q62 666 62 692 Q62 717 65.5 732 Q69 747 78 755 Q87 763 103 765 Q119 767 143 767 Q168 767 183.5 765 Q199 763 208 755 Q217 747 220.5 732 Q224 717 224 692 Q224 666 220.5 651 Q217 636 208 628 Q199 620 183.5 617.5 Q168 615 143 615 ZM11 -200 Q-7 -200 -23 -198.5 Q-39 -197 -53 -195 L-53 -87 Q-43 -89 -30 -90 Q-17 -91 -5 -91 Q19 -91 34 -86 Q49 -81 57 -69.5 Q65 -58 67.5 -39 Q70 -20 70 8 L70 540 L215 540 L215 2 Q215 -61 201.5 -100.5 Q188 -140 161.5 -162 Q135 -184 97 -192 Q59 -200 11 -200 Z" /><glyph glyph-name="k" unicode="k" d="M566 0 L389 0 L243 230 L218 230 L218 0 L73 0 L73 760 L218 760 L218 341 L249 341 L390 540 L558 540 L366 288 L566 0 Z" /><glyph glyph-name="l" unicode="l" d="M229 -6 Q184 -6 154 2.5 Q124 11 105.5 28 Q87 45 79.5 71.5 Q72 98 72 134 L72 760 L217 760 L217 169 Q217 133 227 121 Q237 109 262 109 Q268 109 275 109.5 Q282 110 291 112 L291 0 Q262 -6 229 -6 Z" /><glyph glyph-name="m" unicode="m" d="M693 550 Q784 550 828.5 504.5 Q873 459 873 358 L873 0 L728 0 L728 331 Q728 386 710 409 Q692 432 646 432 Q602 432 577.5 414 Q553 396 543 353 L543 0 L398 0 L398 331 Q398 386 380 409 Q362 432 318 432 Q273 432 251 415.5 Q229 399 218 359 L218 0 L73 0 L73 540 L218 540 L218 479 Q240 515 276.5 532.5 Q313 550 370 550 Q431 550 468.5 531 Q506 512 524 474 Q546 515 589.5 532.5 Q633 550 693 550 Z" /><glyph glyph-name="n" unicode="n" d="M387 550 Q437 550 471.5 538.5 Q506 527 527 504 Q548 481 557 447.5 Q566 414 566 369 L566 0 L421 0 L421 331 Q421 358 417 377.5 Q413 397 403.5 409 Q394 421 377 426.5 Q360 432 333 432 Q288 432 259 416 Q230 400 218 358 L218 0 L73 0 L73 540 L218 540 L218 475 Q240 513 284 531.5 Q328 550 387 550 Z" /><glyph glyph-name="o" unicode="o" d="M310 -10 Q247 -10 197.5 3 Q148 16 114.5 48 Q81 80 63 134 Q45 188 45 270 Q45 352 63 406 Q81 460 114.5 492 Q148 524 197.5 537 Q247 550 310 550 Q373 550 422 537 Q471 524 504.5 492 Q538 460 556 406 Q574 352 574 270 Q574 188 556 134 Q538 80 504.5 48 Q471 16 422 3 Q373 -10 310 -10 ZM310 100 Q343 100 365.5 108 Q388 116 401.5 135.5 Q415 155 420.5 188 Q426 221 426 270 Q426 319 420 352 Q414 385 400.5 405 Q387 425 365 433.5 Q343 442 310 442 Q277 442 254.5 433.5 Q232 425 218.5 405 Q205 385 199.5 352 Q194 319 194 270 Q194 221 200 188 Q206 155 219.5 135.5 Q233 116 255 108 Q277 100 310 100 Z" /><glyph glyph-name="p" unicode="p" d="M381 550 Q447 550 488.5 530.5 Q530 511 554 474.5 Q578 438 587 386 Q596 334 596 270 Q596 212 587 161 Q578 110 554 72 Q530 34 488.5 12 Q447 -10 381 -10 Q307 -10 270.5 11.5 Q234 33 218 69 L218 -200 L73 -200 L73 540 L218 540 L218 475 Q234 505 272 527.5 Q310 550 381 550 ZM335 100 Q372 100 394.5 113.5 Q417 127 429 150 Q441 173 444.5 204 Q448 235 448 270 Q448 307 444 338.5 Q440 370 428 393 Q416 416 394 429 Q372 442 335 442 Q298 442 274 430.5 Q250 419 235.5 397 Q221 375 215.5 343 Q210 311 210 270 Q210 231 215.5 199.5 Q221 168 235.5 146 Q250 124 274 112 Q298 100 335 100 Z" /><glyph glyph-name="q" unicode="q" d="M569 540 L569 -200 L424 -200 L424 75 Q408 37 371.5 13.5 Q335 -10 261 -10 Q195 -10 153 9.5 Q111 29 87 65.5 Q63 102 54 154 Q45 206 45 270 Q45 328 54 379 Q63 430 87 468 Q111 506 153 528 Q195 550 261 550 Q335 550 371.5 528.5 Q408 507 424 471 L424 540 L569 540 ZM307 100 Q344 100 368 111 Q392 122 406 144 Q420 166 425.5 197.5 Q431 229 431 270 Q431 309 425.5 340.5 Q420 372 406 394.5 Q392 417 368 429.5 Q344 442 307 442 Q269 442 246.5 428 Q224 414 212.5 390.5 Q201 367 197.5 336 Q194 305 194 270 Q194 233 197.5 201.5 Q201 170 213 147.5 Q225 125 247.5 112.5 Q270 100 307 100 Z" /><glyph glyph-name="r" unicode="r" d="M386 550 L382 421 L368 421 Q343 421 318.5 415.5 Q294 410 274 397 Q254 384 239 362 Q224 340 218 307 L218 0 L73 0 L73 540 L218 540 L218 443 Q230 476 247.5 497 Q265 518 285 530 Q305 542 328 546 Q351 550 375 550 L386 550 Z" /><glyph glyph-name="s" unicode="s" d="M221 -6 Q174 -6 130 -1.5 Q86 3 50 11 L50 132 Q89 120 132.5 113.5 Q176 107 213 107 Q260 107 281.5 118 Q303 129 303 161 Q303 177 299 188 Q295 199 283.5 207 Q272 215 252 221.5 Q232 228 199 236 Q156 246 128 258.5 Q100 271 84 288.5 Q68 306 62 330.5 Q56 355 56 389 Q56 427 67.5 457 Q79 487 105 507.5 Q131 528 172 539 Q213 550 272 550 Q317 550 357.5 545 Q398 540 420 532 L414 421 Q403 424 387 427.5 Q371 431 352.5 434 Q334 437 314.5 439 Q295 441 277 441 Q227 441 209.5 430 Q192 419 192 391 Q192 378 195.5 370 Q199 362 210 356 Q221 350 240.5 344 Q260 338 292 330 Q336 319 365 305.5 Q394 292 411 273.5 Q428 255 434.5 228.5 Q441 202 441 165 Q441 117 426 84.5 Q411 52 383 32 Q355 12 314 3 Q273 -6 221 -6 Z" /><glyph glyph-name="t" unicode="t" d="M229 426 L229 185 Q229 161 231.5 146 Q234 131 241 122.5 Q248 114 260 110.5 Q272 107 291 107 Q317 107 334 111 L334 -1 Q318 -3 300 -4.5 Q282 -6 264 -6 Q214 -6 179.5 2 Q145 10 124 30 Q103 50 93.5 85 Q84 120 84 173 L84 426 L13 426 L13 540 L84 540 L84 668 L229 668 L229 540 L341 540 L341 426 L229 426 Z" /><glyph glyph-name="u" unicode="u" d="M558 540 L558 0 L427 0 L416 65 Q393 26 351.5 8 Q310 -10 250 -10 Q200 -10 165.5 1.5 Q131 13 109.5 36 Q88 59 78.5 92.5 Q69 126 69 170 L69 540 L214 540 L214 209 Q214 156 231.5 132 Q249 108 302 108 Q344 108 372.5 124.5 Q401 141 414 183 L414 540 L558 540 Z" /><glyph glyph-name="v" unicode="v" d="M5 540 L166 540 L287 151 L293 151 L419 540 L574 540 L377 0 L200 0 L5 540 Z" /><glyph glyph-name="w" unicode="w" d="M17 540 L171 540 L256 150 L262 150 L357 540 L521 540 L616 150 L622 150 L707 540 L859 540 L711 0 L529 0 L440 369 L434 369 L345 0 L163 0 L17 540 Z" /><glyph glyph-name="x" unicode="x" d="M196 276 L20 540 L190 540 L295 364 L301 364 L406 540 L574 540 L399 277 L584 0 L412 0 L300 186 L294 186 L180 0 L9 0 L196 276 Z" /><glyph glyph-name="y" unicode="y" d="M75 -75 Q143 -75 173 -55.5 Q203 -36 215 5 L5 540 L166 540 L293 155 L299 155 L419 540 L575 540 L394 50 Q367 -22 340.5 -70.5 Q314 -119 278.5 -147.5 Q243 -176 194 -188 Q145 -200 75 -200 L75 -75 Z" /><glyph glyph-name="z" unicode="z" d="M50 123 L306 418 L306 424 L69 424 L69 540 L486 540 L486 424 L224 125 L224 119 L507 119 L507 0 L50 0 L50 123 Z" /><glyph glyph-name="braceleft" unicode="{" d="M328 -200 Q213 -200 158.5 -154.5 Q104 -109 104 -9 L104 156 Q104 179 99.5 193.5 Q95 208 86.5 215.5 Q78 223 64.5 225.5 Q51 228 33 228 L33 333 Q51 333 64.5 335.5 Q78 338 86.5 345.5 Q95 353 99.5 367 Q104 381 104 404 L104 569 Q104 670 159 715 Q214 760 328 760 L328 655 Q302 655 286.5 651.5 Q271 648 263 638 Q255 628 252 611.5 Q249 595 249 569 L249 404 Q249 344 223 317 Q197 290 148 280 Q197 270 223 243 Q249 216 249 156 L249 -9 Q249 -36 252 -53 Q255 -70 264 -79.5 Q273 -89 288.5 -92 Q304 -95 328 -95 L328 -200 Z" /><glyph glyph-name="bar" unicode="|" d="M50 760 L174 760 L174 -200 L50 -200 L50 760 Z" /><glyph glyph-name="braceright" unicode="}" d="M22 -95 Q47 -95 62.5 -91.5 Q78 -88 86 -78 Q94 -68 97 -51.5 Q100 -35 100 -9 L100 156 Q100 216 126.5 243 Q153 270 201 280 Q153 290 126.5 317 Q100 344 100 404 L100 569 Q100 596 97 613 Q94 630 85 639.5 Q76 649 61 652 Q46 655 22 655 L22 760 Q137 760 191.5 714.5 Q246 669 246 569 L246 404 Q246 381 250 366.5 Q254 352 263 344.5 Q272 337 285.5 334.5 Q299 332 317 332 L317 227 Q299 227 285.5 224.5 Q272 222 263 214.5 Q254 207 250 193 Q246 179 246 156 L246 -9 Q246 -110 190.5 -155 Q135 -200 22 -200 L22 -95 Z" /><glyph glyph-name="asciitilde" unicode="~" d="M399 202 Q355 202 323 217 Q291 232 258 255 Q232 273 217 280.5 Q202 288 181 288 Q164 288 152 270 Q140 252 137 209 L27 218 Q34 300 73.5 349 Q113 398 181 398 Q224 398 256 383 Q288 368 322 345 Q347 327 362 319.5 Q377 312 399 312 Q416 312 427.5 330 Q439 348 443 391 L552 383 Q545 300 506 251 Q467 202 399 202 Z" /><glyph glyph-name="periodcentered" unicode="·" d="M165 245 Q136 245 118.5 248 Q101 251 92 260.5 Q83 270 80 287.5 Q77 305 77 334 Q77 362 80 379.5 Q83 397 92 407 Q101 417 118.5 420 Q136 423 165 423 Q193 423 210.5 420 Q228 417 237.5 407 Q247 397 250 379.5 Q253 362 253 334 Q253 305 250 287.5 Q247 270 237.5 260.5 Q228 251 210.5 248 Q193 245 165 245 Z" /><glyph glyph-name="ellipsis" unicode="&#x2026;" d="M165 -6 Q136 -6 118.5 -3 Q101 0 92 10 Q83 20 80 37 Q77 54 77 83 Q77 112 80 129.5 Q83 147 92 156.5 Q101 166 118.5 169 Q136 172 165 172 Q193 172 210.5 169 Q228 166 237.5 156.5 Q247 147 250 129.5 Q253 112 253 83 Q253 54 250 37 Q247 20 237.5 10 Q228 0 210.5 -3 Q193 -6 165 -6 ZM494 -6 Q465 -6 447.5 -3 Q430 0 421 10 Q412 20 409 37 Q406 54 406 83 Q406 112 409 129.5 Q412 147 421 156.5 Q430 166 447.5 169 Q465 172 494 172 Q522 172 539.5 169 Q557 166 566.5 156.5 Q576 147 579 129.5 Q582 112 582 83 Q582 54 579 37 Q576 20 566.5 10 Q557 0 539.5 -3 Q522 -6 494 -6 ZM823 -6 Q794 -6 776.5 -3 Q759 0 750 10 Q741 20 738 37 Q735 54 735 83 Q735 112 738 129.5 Q741 147 750 156.5 Q759 166 776.5 169 Q794 172 823 172 Q851 172 868.5 169 Q886 166 895.5 156.5 Q905 147 908 129.5 Q911 112 911 83 Q911 54 908 37 Q905 20 895.5 10 Q886 0 868.5 -3 Q851 -6 823 -6 Z" /><glyph glyph-name="uniFF1A" unicode="&#xff1a;" d="M265 369 Q236 369 219 372 Q202 375 192.5 384.5 Q183 394 180 411.5 Q177 429 177 458 Q177 487 180 504.5 Q183 522 192.5 531.5 Q202 541 219 544 Q236 547 265 547 Q293 547 310.5 544 Q328 541 337.5 531.5 Q347 522 350 504.5 Q353 487 353 458 Q353 429 350 411.5 Q347 394 337.5 384.5 Q328 375 310.5 372 Q293 369 265 369 ZM265 -6 Q236 -6 219 -3 Q202 0 192.5 10 Q183 20 180 37 Q177 54 177 83 Q177 112 180 129.5 Q183 147 192.5 156.5 Q202 166 219 169 Q236 172 265 172 Q293 172 310.5 169 Q328 166 337.5 156.5 Q347 147 350 129.5 Q353 112 353 83 Q353 54 350 37 Q347 20 337.5 10 Q328 0 310.5 -3 Q293 -6 265 -6 Z" /><glyph glyph-name="uniFF0C" unicode="&#xff0c;" d="M113 -136 Q130 -106 146 -68 Q162 -30 174.5 10.5 Q187 51 194.5 89.5 Q202 128 202 160 L342 160 Q342 128 331.5 88 Q321 48 305 6.5 Q289 -35 269 -72.5 Q249 -110 230 -136 L113 -136 Z" /><glyph glyph-name="uniFF01" unicode="&#xff01;" d="M347 694 L328 252 L206 252 L187 694 L347 694 ZM267 -6 Q240 -6 223.5 -3 Q207 0 197.5 9 Q188 18 185 34.5 Q182 51 182 78 Q182 104 185 120.5 Q188 137 197.5 146 Q207 155 223.5 158 Q240 161 267 161 Q293 161 309.5 158 Q326 155 335 146 Q344 137 347.5 120.5 Q351 104 351 78 Q351 51 347.5 34.5 Q344 18 335 9 Q326 0 309.5 -3 Q293 -6 267 -6 Z" /><glyph glyph-name="uniFF1F" unicode="&#xff1f;" d="M233 273 Q233 294 236.5 311.5 Q240 329 249 345 Q258 361 273 377 Q288 393 310 412 Q326 425 336.5 436 Q347 447 353 457.5 Q359 468 361 480 Q363 492 363 508 Q363 531 358 545 Q353 559 340.5 567 Q328 575 307.5 578 Q287 581 257 581 Q226 581 193.5 576.5 Q161 572 135 564 L135 688 Q163 696 202 701 Q241 706 286 706 Q347 706 391 698 Q435 690 463.5 670 Q492 650 505 615.5 Q518 581 518 529 Q518 494 513.5 469 Q509 444 498.5 423.5 Q488 403 470.5 385.5 Q453 368 428 349 Q405 332 391 319 Q377 306 369 295.5 Q361 285 358 274.5 Q355 264 355 251 L355 228 L233 228 L233 273 ZM295 -6 Q268 -6 251.5 -3 Q235 0 225.5 9 Q216 18 213 34.5 Q210 51 210 78 Q210 104 213 120.5 Q216 137 225.5 146 Q235 155 251.5 158 Q268 161 295 161 Q322 161 338.5 158 Q355 155 364 146 Q373 137 376.5 120.5 Q380 104 380 78 Q380 51 376.5 34.5 Q373 18 364 9 Q355 0 338.5 -3 Q322 -6 295 -6 Z" /><glyph glyph-name="uniFF1B" unicode="&#xff1b;" d="M265 369 Q236 369 219 372 Q202 375 192.5 384.5 Q183 394 180 411.5 Q177 429 177 458 Q177 487 180 504.5 Q183 522 192.5 531.5 Q202 541 219 544 Q236 547 265 547 Q293 547 310.5 544 Q328 541 337.5 531.5 Q347 522 350 504.5 Q353 487 353 458 Q353 429 350 411.5 Q347 394 337.5 384.5 Q328 375 310.5 372 Q293 369 265 369 ZM113 -136 Q130 -106 146.5 -68 Q163 -30 175.5 10.5 Q188 51 195.5 89.5 Q203 128 203 160 L342 160 Q342 128 331.5 88 Q321 48 305 6.5 Q289 -35 269 -72.5 Q249 -110 230 -136 L113 -136 Z" /><glyph glyph-name="uni3010" unicode="&#x3010;" d="M567 780 L809 780 Q785 743 764.5 693 Q744 643 729 584.5 Q714 526 706 462 Q698 398 698 332 Q698 259 706 190.5 Q714 122 729 63 Q744 4 764.5 -43 Q785 -90 809 -120 L567 -120 L567 780 Z" /><glyph glyph-name="uni3011" unicode="&#x3011;" d="M175 -120 Q199 -90 219.5 -43 Q240 4 255 63 Q270 122 278 190.5 Q286 259 286 332 Q286 398 278 462 Q270 526 255 584.5 Q240 643 219.5 693 Q199 743 175 780 L417 780 L417 -120 L175 -120 Z" /><glyph glyph-name="uni300A" unicode="&#x300a;" d="M301 331 L476 780 L621 780 L446 331 L621 -120 L476 -120 L301 331 ZM551 331 L726 780 L871 780 L696 331 L871 -120 L726 -120 L551 331 Z" /><glyph glyph-name="uni300B" unicode="&#x300b;" d="M113 -120 L288 331 L113 780 L258 780 L433 331 L258 -120 L113 -120 ZM363 -120 L538 331 L363 780 L508 780 L683 331 L508 -120 L363 -120 Z" /><glyph glyph-name="uniFF08" unicode="&#xff08;" d="M683 -120 Q613 -13 573 95.5 Q533 204 533 325 Q533 450 573.5 560 Q614 670 687 780 L834 780 Q759 657 723 548 Q687 439 687 330 Q687 219 723 108 Q759 -3 829 -120 L683 -120 Z" /><glyph glyph-name="uniFF09" unicode="&#xff09;" d="M155 -120 Q225 -3 261 108 Q297 219 297 330 Q297 439 261 548 Q225 657 150 780 L297 780 Q370 670 410.5 560 Q451 450 451 325 Q451 204 411 95.5 Q371 -13 301 -120 L155 -120 Z" /><glyph glyph-name="emdash" unicode="&#x2014;" d="M984 360 L984 254 L0 254 L0 360 L984 360 Z" /><glyph glyph-name="quoteleft" unicode="&#x2018;" d="M56 482 Q56 510 64 547 Q72 584 84.5 622.5 Q97 661 112 697 Q127 733 142 760 L243 760 Q233 731 223 695.5 Q213 660 205 622.5 Q197 585 192 548.5 Q187 512 187 482 L56 482 Z" /><glyph glyph-name="quoteright" unicode="&#x2019;" d="M57 482 Q67 510 77 545.5 Q87 581 95 618.5 Q103 656 108 692.5 Q113 729 113 760 L244 760 Q244 732 236 695 Q228 658 216 619.5 Q204 581 188.5 545 Q173 509 158 482 L57 482 Z" /><glyph glyph-name="uni3001" unicode="&#x3001;" d="M323 -128 Q306 -98 282 -66 Q258 -34 231 -3 Q204 28 177 54 Q150 80 127 98 L221 160 Q249 142 278 117.5 Q307 93 335 63.5 Q363 34 388.5 2.5 Q414 -29 435 -60 L323 -128 Z" /><glyph glyph-name="uni3002" unicode="&#x3002;" d="M255 -118 Q226 -118 200 -109.5 Q174 -101 154.5 -84 Q135 -67 123.5 -42 Q112 -17 112 17 Q112 51 123.5 76 Q135 101 154.5 118 Q174 135 200 143.5 Q226 152 255 152 Q284 152 310 143.5 Q336 135 355.5 118 Q375 101 386.5 76 Q398 51 398 17 Q398 -17 386.5 -42 Q375 -67 355 -84 Q335 -101 309 -109.5 Q283 -118 255 -118 ZM255 -41 Q281 -41 298 -26.5 Q315 -12 315 17 Q315 46 298 60.5 Q281 75 255 75 Q229 75 212 60.5 Q195 46 195 17 Q195 -12 212 -26.5 Q229 -41 255 -41 Z" /><glyph glyph-name="uniFFE5" unicode="&#xffe5;" d="M710 390 L710 314 L558 314 L558 246 L710 246 L710 170 L558 170 L558 0 L421 0 L421 170 L269 170 L269 246 L421 246 L421 314 L269 314 L269 390 L385 390 L210 694 L366 694 L489 446 L496 446 L623 694 L775 694 L595 390 L710 390 Z" /><glyph glyph-name="uni4E00" unicode="&#x4e00;" d="M926 317 L56 317 L56 457 L926 457 L926 317 Z" /><glyph glyph-name="uni4E01" unicode="&#x4e01;" d="M915 626 L578 626 L578 80 Q578 29 573 -2.5 Q568 -34 551.5 -52.5 Q535 -71 503.5 -79.5 Q472 -88 420 -94 L331 -101 L284 35 L368 39 Q393 41 407 44 Q421 47 428 56 Q435 65 436 81.5 Q437 98 437 128 L437 626 L68 626 L68 755 L915 755 L915 626 Z" /><glyph glyph-name="uni4E03" unicode="&#x4e03;" d="M771 121 Q772 130 773.5 142 Q775 154 776 167 Q777 180 777.5 192.5 Q778 205 778 214 L904 181 Q904 170 902.5 151 Q901 132 898.5 110 Q896 88 893 66.5 Q890 45 887 30 Q879 -6 866 -26.5 Q853 -47 832.5 -57.5 Q812 -68 782 -72 Q752 -76 711 -78 Q657 -81 608 -81 Q559 -81 505 -78 Q458 -75 425.5 -67.5 Q393 -60 372.5 -42 Q352 -24 343 6.5 Q334 37 334 84 L334 358 L67 315 L48 445 L334 491 L334 788 L466 783 L466 513 L919 586 L935 456 L466 380 L466 112 Q466 93 467.5 81 Q469 69 475 62 Q481 55 492.5 52 Q504 49 525 48 Q564 46 600.5 46 Q637 46 676 48 Q704 49 721.5 51.5 Q739 54 749 61.5 Q759 69 763.5 83 Q768 97 771 121 Z" /><glyph glyph-name="uni4E07" unicode="&#x4e07;" d="M434 628 L428 510 L822 510 Q822 498 820 465.5 Q818 433 815.5 391 Q813 349 810 302 Q807 255 804.5 213 Q802 171 800 139 Q798 107 797 95 Q793 47 786.5 16 Q780 -15 764 -34 Q748 -53 719 -61.5 Q690 -70 641 -73 L547 -79 L505 46 L595 53 Q615 54 627.5 57 Q640 60 647.5 68 Q655 76 659 92 Q663 108 665 135 Q666 150 668.5 185 Q671 220 674 259.5 Q677 299 679.5 334 Q682 369 682 384 L417 384 Q407 307 389 241.5 Q371 176 339.5 117.5 Q308 59 259.5 4 Q211 -51 141 -108 L36 -11 Q111 49 158 101 Q205 153 232.5 211 Q260 269 273.5 338.5 Q287 408 295 501 Q297 522 299 557.5 Q301 593 303 628 L78 628 L78 755 L910 755 L910 628 L434 628 Z" /><glyph glyph-name="uni4E08" unicode="&#x4e08;" d="M879 -104 Q743 -62 644.5 -18.5 Q546 25 472 80 Q410 29 322 -17.5 Q234 -64 113 -113 L42 11 Q158 50 238 88.5 Q318 127 372 170 Q319 230 276.5 305 Q234 380 193 478 L292 519 L84 519 L84 642 L518 642 L518 795 L649 790 Q649 767 649 726 Q649 685 650 642 L896 642 L896 519 L650 519 Q650 409 630.5 325.5 Q611 242 562 174 Q630 128 722.5 93 Q815 58 942 24 L879 -104 ZM314 519 Q346 438 380 376 Q414 314 457 265 Q487 316 500.5 377.5 Q514 439 517 519 L314 519 Z" /><glyph glyph-name="uni4E09" unicode="&#x4e09;" d="M854 609 L129 609 L129 739 L854 739 L854 609 ZM811 301 L172 301 L172 427 L811 427 L811 301 ZM921 -45 L62 -45 L62 83 L921 83 L921 -45 Z" /><glyph glyph-name="uni4E0A" unicode="&#x4e0a;" d="M930 58 L930 -66 L56 -66 L56 58 L403 58 L403 796 L535 791 L535 540 L865 540 L865 417 L535 417 L535 58 L930 58 Z" /><glyph glyph-name="uni4E0B" unicode="&#x4e0b;" d="M535 627 L535 477 L565 524 Q598 506 637 481 Q676 456 717 428.5 Q758 401 800 372 Q842 343 881 316 L813 196 Q785 219 750.5 246.5 Q716 274 678.5 302 Q641 330 604 356.5 Q567 383 535 403 L535 -86 L403 -86 L403 627 L71 627 L71 751 L913 751 L913 627 L535 627 Z" /><glyph glyph-name="uni4E0D" unicode="&#x4e0d;" d="M618 486 Q654 459 697 423.5 Q740 388 783.5 350.5 Q827 313 866.5 277 Q906 241 934 213 L845 101 Q820 131 785 167.5 Q750 204 711 242 Q672 280 631.5 315.5 Q591 351 555 379 L555 -84 L430 -84 L430 367 Q368 296 297 230 Q226 164 141 98 L48 202 Q189 296 292 405.5 Q395 515 462 629 L102 629 L102 758 L885 758 L885 629 L611 629 Q589 589 565.5 551 Q542 513 516 476 L555 475 L555 407 L618 486 Z" /><glyph glyph-name="uni4E0E" unicode="&#x4e0e;" d="M332 559 L324 456 L860 456 L835 78 Q831 28 820 -4 Q809 -36 788 -55.5 Q767 -75 734 -84 Q701 -93 652 -97 L543 -106 L506 17 L615 25 Q642 27 659 30 Q676 33 686.5 42 Q697 51 702 68 Q707 85 709 114 Q710 122 712 152.5 Q714 183 716.5 218.5 Q719 254 721 286 Q723 318 724 328 L183 328 L216 782 L348 777 L341 682 L892 682 L892 559 L332 559 ZM682 120 L52 120 L52 243 L682 243 L682 120 Z" /><glyph glyph-name="uni4E10" unicode="&#x4e10;" d="M545 642 L545 555 L860 555 L860 440 L545 440 L545 356 L863 356 Q862 348 860.5 327 Q859 306 857 278 Q855 250 852.5 218 Q850 186 847.5 156 Q845 126 843 101.5 Q841 77 840 65 Q836 23 823.5 -4 Q811 -31 788 -48.5 Q765 -66 731 -74.5 Q697 -83 650 -87 L540 -97 L505 20 L632 29 Q654 30 668.5 35 Q683 40 692 50 Q701 60 705.5 75 Q710 90 713 112 Q714 118 716 135 Q718 152 720 172.5 Q722 193 724 212 Q726 231 726 241 L121 241 L149 600 L279 596 L259 356 L422 356 L422 642 L67 642 L67 759 L916 759 L916 642 L545 642 Z" /><glyph glyph-name="uni4E11" unicode="&#x4e11;" d="M921 61 L921 -61 L62 -61 L62 61 L262 61 L290 305 L130 305 L130 426 L304 426 L328 633 L139 633 L139 757 L826 757 L791 61 L921 61 ZM430 426 L675 426 L686 633 L453 633 L430 426 ZM389 61 L657 61 L669 305 L416 305 L389 61 Z" /><glyph glyph-name="uni4E13" unicode="&#x4e13;" d="M397 394 Q389 376 381.5 359 Q374 342 366 327 L831 327 L831 202 Q788 170 741.5 131.5 Q695 93 651 55 Q690 42 725.5 30.5 Q761 19 791 8 L756 -119 Q693 -94 617.5 -67.5 Q542 -41 465.5 -16 Q389 9 317.5 30.5 Q246 52 192 66 L229 181 Q289 164 364.5 142 Q440 120 518 97 Q555 126 590.5 155 Q626 184 658 207 L214 207 L214 314 Q224 331 234 351 Q244 371 255 394 L69 394 L69 513 L303 513 Q310 530 316 548 Q322 566 328 584 L127 584 L127 704 L366 704 Q374 730 381 755.5 Q388 781 394 805 L523 782 Q518 762 513 743 Q508 724 503 704 L856 704 L856 584 L467 584 L443 513 L915 513 L915 394 L397 394 Z" /><glyph glyph-name="uni4E14" unicode="&#x4e14;" d="M932 34 L932 -83 L51 -83 L51 34 L180 34 L180 774 L804 774 L804 34 L932 34 ZM308 651 L308 530 L674 530 L674 651 L308 651 ZM674 411 L308 411 L308 276 L674 276 L674 411 ZM308 34 L674 34 L674 155 L308 155 L308 34 Z" /><glyph glyph-name="uni4E16" unicode="&#x4e16;" d="M398 150 L398 465 L290 465 L290 47 L898 47 L898 -73 L160 -73 L160 465 L48 465 L48 589 L160 589 L160 768 L290 763 L290 589 L398 589 L398 792 L525 787 L525 589 L671 589 L671 793 L798 788 L798 589 L934 589 L934 465 L798 465 L798 150 L398 150 ZM525 465 L525 271 L671 271 L671 465 L525 465 Z" /><glyph glyph-name="uni4E18" unicode="&#x4e18;" d="M929 62 L929 -54 L55 -54 L55 62 L191 62 L191 724 Q322 731 476 748 Q630 765 796 803 L830 680 Q765 665 695.5 653 Q626 641 558.5 632 Q491 623 430 616.5 Q369 610 323 606 L323 464 L878 464 L878 346 L714 346 L714 62 L929 62 ZM323 62 L583 62 L583 346 L323 346 L323 62 Z" /><glyph glyph-name="uni4E19" unicode="&#x4e19;" d="M551 635 Q550 615 550 593.5 Q550 572 549 552 L860 552 L860 42 Q860 1 854 -25 Q848 -51 833 -66.5 Q818 -82 791.5 -89 Q765 -96 725 -100 L637 -108 L600 21 L679 27 Q700 28 712 30.5 Q724 33 730 38.5 Q736 44 737.5 55 Q739 66 739 86 L739 187 L677 98 Q637 140 588 187 Q539 234 496 272 Q465 218 415.5 168.5 Q366 119 292 66 L244 125 L244 -101 L125 -101 L125 552 L431 552 L431 635 L68 635 L68 756 L911 756 L911 635 L551 635 ZM244 194 Q286 224 317 251 Q348 278 369.5 306.5 Q391 335 404 365.5 Q417 396 423 432 L244 432 L244 194 ZM739 432 L545 432 Q543 420 541.5 409 Q540 398 538 387 Q563 367 591 344.5 Q619 322 646 299.5 Q673 277 697 255 Q721 233 739 215 L739 432 Z" /><glyph glyph-name="uni4E1A" unicode="&#x4e1a;" d="M918 55 L918 -67 L69 -67 L69 55 L323 55 L323 225 L215 181 Q200 239 184 295.5 Q168 352 151 404.5 Q134 457 117 504.5 Q100 552 83 591 L208 632 Q236 560 266 473 Q296 386 323 291 L323 786 L452 780 L452 55 L534 55 L534 786 L663 780 L663 256 Q681 299 700 352.5 Q719 406 735 459.5 Q751 513 764 561.5 Q777 610 783 643 L907 613 Q899 577 884.5 522 Q870 467 851.5 406.5 Q833 346 812 286 Q791 226 771 181 L663 222 L663 55 L918 55 Z" /><glyph glyph-name="uni4E1B" unicode="&#x4e1b;" d="M337 425 Q325 373 307 327 Q289 281 265 237 Q241 193 211 149 Q181 105 144 58 L45 144 Q102 208 139 263.5 Q176 319 198.5 379.5 Q221 440 232 513 Q243 586 246 685 Q246 692 247 704.5 Q248 717 248.5 732 Q249 747 250 761.5 Q251 776 251 786 L371 781 Q371 774 370.5 761.5 Q370 749 369.5 735.5 Q369 722 368.5 708.5 Q368 695 367 685 Q366 654 364 625.5 Q362 597 360 571 Q378 551 399.5 527 Q421 503 441.5 478.5 Q462 454 479.5 431 Q497 408 509 391 L428 303 Q410 329 386.5 361 Q363 393 337 425 ZM333 138 Q380 183 416 224 Q452 265 478 305.5 Q504 346 522 389 Q540 432 550.5 481 Q561 530 566 587.5 Q571 645 573 716 Q574 727 574 749.5 Q574 772 574 786 L696 781 Q695 767 694.5 747.5 Q694 728 694 717 Q693 687 692 658.5 Q691 630 689 604 Q698 532 718 471 Q738 410 769 355.5 Q800 301 843 252 Q886 203 942 156 L844 60 Q775 126 724 199 Q673 272 640 360 Q609 274 558 202 Q507 130 429 57 L333 138 ZM103 46 L875 46 L875 -77 L103 -77 L103 46 Z" /><glyph glyph-name="uni4E1C" unicode="&#x4e1c;" d="M578 270 L578 62 Q578 15 573.5 -13.5 Q569 -42 554 -59 Q539 -76 510.5 -84 Q482 -92 435 -96 L371 -102 L330 20 L390 26 Q411 28 423 31.5 Q435 35 440.5 43 Q446 51 447.5 66.5 Q449 82 449 109 L449 270 L142 270 L142 389 Q177 435 208.5 481 Q240 527 268 578 L96 578 L99 698 L328 698 Q339 724 350 751.5 Q361 779 372 808 L511 778 Q503 758 494.5 738 Q486 718 476 698 L886 698 L886 578 L416 578 Q355 466 298 388 L449 388 L449 530 L578 525 L578 388 L845 388 L845 270 L578 270 ZM357 178 Q312 116 250.5 50 Q189 -16 106 -76 L24 25 Q92 71 155 131.5 Q218 192 263 254 L357 178 ZM697 254 Q772 197 832 142.5 Q892 88 946 32 L867 -70 Q819 -14 754 48.5 Q689 111 620 165 L697 254 Z" /><glyph glyph-name="uni4E1D" unicode="&#x4e1d;" d="M167 400 Q151 399 138 398 Q125 397 112 395 L83 511 Q103 517 111 525 Q119 533 125 538 Q132 546 151.5 575.5 Q171 605 194.5 644 Q218 683 241.5 726 Q265 769 280 804 L387 751 Q373 723 354 689.5 Q335 656 314 623.5 Q293 591 273.5 563 Q254 535 241 518 Q258 519 284 519 Q310 519 336 520 Q358 553 378.5 587 Q399 621 416 653 L513 598 Q492 559 464 511.5 Q436 464 406.5 418 Q377 372 348.5 332.5 Q320 293 298 269 Q314 270 335 271.5 Q356 273 377.5 274 Q399 275 419.5 276.5 Q440 278 455 279 L453 156 Q444 156 419.5 154.5 Q395 153 363.5 151 Q332 149 299 147 Q266 145 240 142 Q211 140 186.5 137 Q162 134 143 132 L118 253 Q138 260 147 268.5 Q156 277 170 291 Q178 300 201.5 330 Q225 360 257 403 L167 400 ZM464 507 Q484 515 492.5 521 Q501 527 506 536 Q514 546 533.5 575.5 Q553 605 576 644 Q599 683 622.5 725.5 Q646 768 663 803 L766 748 Q751 720 732 687 Q713 654 693 622 Q673 590 654 562 Q635 534 621 516 L720 519 Q743 553 763 585.5 Q783 618 798 647 L895 588 Q874 549 842 499 Q810 449 776.5 402 Q743 355 713.5 317 Q684 279 667 265 Q689 267 716.5 269 Q744 271 772.5 273.5 Q801 276 827.5 277.5 Q854 279 873 281 L871 160 Q863 160 829.5 158 Q796 156 752 153 Q708 150 661.5 146.5 Q615 143 581 140 L508 133 L487 250 Q512 255 523 263.5 Q534 272 541 278 Q551 288 578 322 Q605 356 640 404 Q617 403 594 402.5 Q571 402 553 400 Q536 399 521.5 397.5 Q507 396 496 394 L464 507 ZM929 42 L929 -77 L53 -77 L53 42 L929 42 Z" /><glyph glyph-name="uni4E22" unicode="&#x4e22;" d="M915 204 L674 204 Q699 179 727 148 Q755 117 783 84.5 Q811 52 836 20.5 Q861 -11 879 -36 L790 -124 Q769 -91 736 -47 Q698 -49 636.5 -51.5 Q575 -54 503 -58 Q431 -62 354.5 -66.5 Q278 -71 208 -76 Q195 -78 183 -79 Q171 -80 156 -82 L123 48 Q149 53 161 58 Q173 63 187 72 Q197 78 212.5 91.5 Q228 105 247 123 Q266 141 286 162 Q306 183 325 204 L72 204 L72 324 L439 324 L439 421 L153 421 L153 535 L439 535 L439 619 Q359 613 283.5 609 Q208 605 144 604 L127 724 Q208 725 303.5 730 Q399 735 493.5 743.5 Q588 752 675 762.5 Q762 773 826 784 L849 663 Q789 654 714.5 645.5 Q640 637 558 629 L558 535 L836 535 L836 421 L558 421 L558 324 L915 324 L915 204 ZM643 67 Q603 115 572 141 L644 204 L478 204 Q435 154 393.5 112.5 Q352 71 327 55 L643 67 Z" /><glyph glyph-name="uni4E24" unicode="&#x4e24;" d="M654 657 Q653 637 653 614.5 Q653 592 653 570 L864 570 L864 34 Q864 2 856.5 -19 Q849 -40 833 -53 Q817 -66 791.5 -72 Q766 -78 730 -81 L673 -86 L637 30 L701 36 Q731 39 738.5 49 Q746 59 746 82 L746 151 L700 109 Q682 133 655 167 Q628 201 602 234 Q559 121 470 16 L373 76 Q411 121 438.5 162.5 Q466 204 486 249 L428 190 Q417 204 405 219 Q393 234 380 250 Q340 152 260 52 L213 86 L213 -83 L98 -83 L98 570 L309 570 Q310 590 310 613 Q310 636 310 657 L54 657 L54 771 L906 771 L906 657 L654 657 ZM535 570 Q535 590 535.5 613 Q536 636 536 657 L428 657 Q427 636 427 613.5 Q427 591 426 570 L535 570 ZM213 189 Q234 219 249 248 Q264 277 274.5 308.5 Q285 340 291.5 375.5 Q298 411 302 454 L213 454 L213 189 ZM416 384 Q437 360 460 333 Q483 306 501 286 Q514 324 522 365 Q530 406 533 454 L423 454 Q422 436 420 418.5 Q418 401 416 384 ZM746 454 L649 454 Q647 431 644.5 408.5 Q642 386 638 364 Q658 339 688 304.5 Q718 270 746 237 L746 454 Z" /><glyph glyph-name="uni4E25" unicode="&#x4e25;" d="M916 650 L809 650 L891 592 Q881 575 868 554.5 Q855 534 840 513.5 Q825 493 809.5 473.5 Q794 454 780 439 L911 439 L911 330 L253 330 L253 249 Q253 192 247.5 146.5 Q242 101 228 60 Q214 19 191 -21 Q168 -61 134 -108 L20 -54 Q53 -14 75 21 Q97 56 110.5 93.5 Q124 131 129.5 175 Q135 219 135 279 L135 439 L234 439 Q222 457 206.5 478 Q191 499 174.5 519.5 Q158 540 143.5 557.5 Q129 575 119 585 L197 650 L88 650 L88 761 L916 761 L916 650 ZM224 650 Q236 637 251.5 618.5 Q267 600 283 579.5 Q299 559 314 539 Q329 519 340 503 L269 439 L346 439 L346 650 L224 650 ZM469 650 L469 439 L542 439 L542 650 L469 650 ZM672 497 Q686 512 702 531 Q718 550 733.5 570.5 Q749 591 763.5 611.5 Q778 632 789 650 L668 650 L668 439 L742 439 L672 497 Z" /><glyph glyph-name="uni4E27" unicode="&#x4e27;" d="M896 -91 Q771 -60 677 -13.5 Q583 33 511 104 L518 -13 Q507 -15 480.5 -22.5 Q454 -30 420.5 -40.5 Q387 -51 351.5 -62.5 Q316 -74 289 -83 Q268 -90 249 -97 Q230 -104 213 -112 L163 2 Q181 15 184.5 26 Q188 37 188 56 L188 302 L54 302 L54 419 L273 419 Q259 435 244 453 Q229 471 214 488 Q199 505 185 519.5 Q171 534 160 545 L219 597 L101 597 L101 709 L430 709 L430 796 L555 791 L555 709 L882 709 L882 597 L760 597 L821 543 Q800 516 770 482 Q740 448 711 419 L931 419 L931 302 L785 302 L839 220 Q776 172 684 123 Q735 93 799 70 Q863 47 943 29 L896 -91 ZM278 597 Q307 568 336.5 535 Q366 502 389 473 L336 419 L430 419 L430 597 L278 597 ZM555 597 L555 419 L635 419 L586 467 Q615 493 648.5 529 Q682 565 708 597 L555 597 ZM309 50 L502 113 Q426 192 373 302 L309 302 L309 50 ZM582 201 Q633 229 672 252.5 Q711 276 748 302 L506 302 Q540 243 582 201 Z" /><glyph glyph-name="uni4E2A" unicode="&#x4e2a;" d="M26 429 Q165 510 272 613.5 Q379 717 445 823 L539 823 Q617 707 719 608 Q821 509 958 425 L882 301 Q816 344 757 391.5 Q698 439 648.5 486.5 Q599 534 559.5 580 Q520 626 492 667 Q460 625 418 577.5 Q376 530 326 482 Q276 434 219.5 388 Q163 342 102 303 L26 429 ZM557 -87 L426 -87 L426 485 L557 480 L557 -87 Z" /><glyph glyph-name="uni4E2D" unicode="&#x4e2d;" d="M881 175 L561 175 L561 -104 L430 -104 L430 175 L103 175 L103 633 L430 633 L430 796 L561 791 L561 633 L881 633 L881 175 ZM430 301 L430 506 L236 506 L236 301 L430 301 ZM749 506 L561 506 L561 301 L749 301 L749 506 Z" /><glyph glyph-name="uni4E30" unicode="&#x4e30;" d="M916 102 L554 102 L554 -90 L427 -90 L427 102 L64 102 L64 224 L427 224 L427 333 L150 333 L150 454 L427 454 L427 557 L107 557 L107 680 L427 680 L427 795 L554 790 L554 680 L874 680 L874 557 L554 557 L554 454 L830 454 L830 333 L554 333 L554 224 L916 224 L916 102 Z" /><glyph glyph-name="uni4E32" unicode="&#x4e32;" d="M885 36 L552 36 L552 -94 L431 -94 L431 36 L101 36 L101 348 L431 348 L431 410 L144 410 L144 709 L431 709 L431 797 L552 792 L552 709 L841 709 L841 410 L552 410 L552 348 L885 348 L885 36 ZM431 514 L431 604 L264 604 L264 514 L431 514 ZM552 604 L552 514 L722 514 L722 604 L552 604 ZM431 142 L431 244 L223 244 L223 142 L431 142 ZM763 244 L552 244 L552 142 L763 142 L763 244 Z" /><glyph glyph-name="uni4E34" unicode="&#x4e34;" d="M932 575 L700 575 Q726 549 752 519 Q778 489 793 465 L734 412 L890 412 L890 -68 L413 -68 L413 412 L426 412 L367 457 L367 -86 L248 -86 L248 788 L367 783 L367 508 Q417 579 456 660.5 Q495 742 517 814 L641 779 Q634 759 627.5 740 Q621 721 613 701 L932 701 L932 575 ZM90 704 L209 699 L209 8 L90 8 L90 704 ZM686 412 Q674 428 659.5 445.5 Q645 463 630 479.5 Q615 496 601 511 Q587 526 575 537 L617 575 L556 575 Q534 531 510.5 490.5 Q487 450 462 412 L686 412 ZM597 44 L597 301 L527 301 L527 44 L597 44 ZM777 301 L705 301 L705 44 L777 44 L777 301 Z" /><glyph glyph-name="uni4E38" unicode="&#x4e38;" d="M936 137 Q936 120 934 90.5 Q932 61 927 23 Q922 -9 912 -29 Q902 -49 885 -61.5 Q868 -74 844 -79.5 Q820 -85 787 -88 Q746 -91 705 -88 Q676 -86 653.5 -79 Q631 -72 616 -57 Q601 -42 593.5 -17.5 Q586 7 586 44 L586 516 L417 516 Q415 462 413 416.5 Q411 371 406 331 Q454 305 497.5 280 Q541 255 573 235 L512 114 Q485 133 450.5 154 Q416 175 378 198 Q364 156 343.5 119.5 Q323 83 293.5 46.5 Q264 10 224.5 -28 Q185 -66 133 -109 L32 -12 Q80 25 117 57 Q154 89 181.5 121 Q209 153 228 188 Q247 223 260 265 Q209 294 164.5 316.5 Q120 339 90 353 L147 461 Q171 451 206.5 434 Q242 417 284 396 Q290 448 293 516 L78 516 L78 637 L297 637 Q297 663 297.5 689 Q298 715 298 736.5 Q298 758 298 773 Q298 788 298 792 L423 787 Q423 767 422.5 726 Q422 685 420 637 L707 637 L707 69 Q707 53 711 44 Q715 35 733 33 Q741 32 754.5 32 Q768 32 777 33 Q802 35 808.5 45.5 Q815 56 818 76 Q822 99 823.5 120 Q825 141 826 168 L936 137 Z" /><glyph glyph-name="uni4E39" unicode="&#x4e39;" d="M919 256 L797 256 L797 57 Q797 16 790 -11.5 Q783 -39 766 -56.5 Q749 -74 721 -83 Q693 -92 650 -96 L588 -102 L549 17 L615 27 Q634 30 645.5 34 Q657 38 663.5 45.5 Q670 53 672 66 Q674 79 674 99 L674 256 L328 256 Q325 200 317 154.5 Q309 109 292.5 66.5 Q276 24 249.5 -19.5 Q223 -63 184 -115 L75 -38 Q110 5 133.5 39 Q157 73 172 106 Q187 139 194 174.5 Q201 210 204 256 L64 256 L64 376 L207 376 L207 766 L797 766 L797 376 L919 376 L919 256 ZM674 376 L674 648 L330 648 L330 376 L674 376 ZM466 640 Q484 623 505 603 Q526 583 547.5 561 Q569 539 589 516.5 Q609 494 624 474 L535 379 Q520 400 500.5 425 Q481 450 459.5 474.5 Q438 499 416.5 520.5 Q395 542 378 557 L466 640 Z" /><glyph glyph-name="uni4E3A" unicode="&#x4e3a;" d="M885 597 Q884 579 882.5 539 Q881 499 879 447.5 Q877 396 874.5 338.5 Q872 281 869 227 Q866 173 863.5 127 Q861 81 859 54 Q856 17 844 -8 Q832 -33 810 -49 Q788 -65 755 -73.5 Q722 -82 677 -87 L605 -95 L562 32 L640 41 Q667 44 684 48 Q701 52 711 60 Q721 68 725.5 81 Q730 94 732 115 Q734 133 736 162 Q738 191 740 225.5 Q742 260 743.5 297 Q745 334 746.5 367.5 Q748 401 749 427.5 Q750 454 751 469 L514 469 Q509 437 502.5 408 Q496 379 488 352 L559 417 Q574 403 595 381.5 Q616 360 638 336 Q660 312 679 290 Q698 268 709 254 L619 161 Q611 175 593.5 197 Q576 219 556 243 Q536 267 515.5 289 Q495 311 480 326 Q460 263 431 207 Q402 151 362 99 Q322 47 269.5 -3 Q217 -53 150 -105 L48 0 Q124 55 180.5 106.5 Q237 158 277.5 213.5 Q318 269 344 331 Q370 393 384 469 L101 469 L101 597 L254 597 Q242 613 226.5 631 Q211 649 195.5 666 Q180 683 166 697 Q152 711 143 719 L230 796 Q243 785 262 766.5 Q281 748 300.5 727.5 Q320 707 337.5 687 Q355 667 365 653 L308 597 L400 597 Q402 619 404 646.5 Q406 674 408.5 701.5 Q411 729 412.5 752.5 Q414 776 415 790 L544 785 Q544 771 542.5 748 Q541 725 539 698.5 Q537 672 534.5 645 Q532 618 530 597 L885 597 Z" /><glyph glyph-name="uni4E3B" unicode="&#x4e3b;" d="M925 53 L925 -70 L57 -70 L57 53 L426 53 L426 245 L141 245 L141 371 L426 371 L426 527 L101 527 L101 653 L431 653 L404 784 L538 790 L563 653 L882 653 L882 527 L557 527 L557 371 L841 371 L841 245 L557 245 L557 53 L925 53 Z" /><glyph glyph-name="uni4E3D" unicode="&#x4e3d;" d="M928 765 L928 648 L57 648 L57 765 L928 765 ZM109 587 L463 587 L463 8 Q463 -49 437.5 -70.5 Q412 -92 358 -98 L307 -104 L273 10 L317 16 Q340 19 345.5 31.5 Q351 44 351 66 L351 195 L297 156 Q291 170 282.5 188.5 Q274 207 263.5 227 Q253 247 242 268 Q231 289 219 308 L219 -98 L109 -98 L109 587 ZM519 587 L885 587 L885 19 Q885 -38 860 -65.5 Q835 -93 785 -98 L729 -104 L694 10 L737 16 Q762 20 767.5 33 Q773 46 773 66 L773 205 L708 154 Q696 183 674.5 223 Q653 263 630 298 L630 -98 L519 -98 L519 587 ZM219 466 L219 373 L271 405 Q289 380 310.5 345 Q332 310 351 275 L351 466 L219 466 ZM630 466 L630 374 L675 406 Q699 377 726 338 Q753 299 773 261 L773 466 L630 466 Z" /><glyph glyph-name="uni4E3E" unicode="&#x4e3e;" d="M549 244 L549 167 L880 167 L880 50 L549 50 L549 -94 L430 -94 L430 50 L102 50 L102 167 L430 167 L430 244 L244 244 L244 294 Q211 267 174.5 242 Q138 217 99 194 L29 294 Q110 338 175 387 Q240 436 286 497 L79 497 L79 615 L239 615 Q230 630 218.5 649.5 Q207 669 194.5 688.5 Q182 708 170.5 724.5 Q159 741 151 752 L248 807 Q257 795 271.5 774.5 Q286 754 301 731 Q316 708 329.5 686.5 Q343 665 351 651 L292 615 L469 615 Q462 631 452 653 Q442 675 430.5 697.5 Q419 720 408.5 739.5 Q398 759 391 770 L496 817 Q504 804 516 782.5 Q528 761 540.5 737 Q553 713 563.5 690 Q574 667 579 652 L503 615 L621 615 Q635 637 651 663 Q667 689 682 715 Q697 741 710 765.5 Q723 790 731 808 L838 759 Q822 729 800 689.5 Q778 650 755 615 L905 615 L905 497 L700 497 Q745 437 806.5 391 Q868 345 953 300 L895 191 Q808 238 738 298 L738 244 L549 244 ZM430 360 L430 466 L549 461 L549 360 L671 360 Q610 424 566 497 L421 497 Q379 424 317 360 L430 360 Z" /><glyph glyph-name="uni4E43" unicode="&#x4e43;" d="M879 478 Q879 472 877 440.5 Q875 409 872.5 365 Q870 321 866.5 270.5 Q863 220 860 175.5 Q857 131 855 99.5 Q853 68 853 62 Q850 18 838.5 -9.5 Q827 -37 806 -52.5 Q785 -68 752.5 -75 Q720 -82 674 -85 L580 -92 L541 33 L637 39 Q665 41 682 44 Q699 47 709 54.5 Q719 62 723 75.5 Q727 89 729 110 Q731 128 734 161.5 Q737 195 740 231.5 Q743 268 746 302 Q749 336 750 354 L563 354 L563 470 L643 632 L403 632 Q402 600 400.5 568.5 Q399 537 397 508 Q389 401 369 314 Q349 227 317 152 Q285 77 239.5 11 Q194 -55 134 -119 L30 -24 Q87 30 129 84 Q171 138 200 200.5 Q229 263 246.5 338 Q264 413 272 509 Q274 538 275 568.5 Q276 599 277 632 L103 632 L103 757 L776 757 L776 630 L698 478 L879 478 Z" /><glyph glyph-name="uni4E45" unicode="&#x4e45;" d="M606 343 Q663 241 751 159.5 Q839 78 953 16 L868 -106 Q756 -37 671 47.5 Q586 132 526 233 Q489 189 446 147 Q403 105 352.5 63.5 Q302 22 243.5 -20 Q185 -62 116 -106 L34 7 Q240 124 370 260 Q500 396 562 554 L351 554 Q274 417 160 296 L69 394 Q153 484 216.5 590 Q280 696 322 808 L452 775 Q444 751 434.5 728 Q425 705 415 682 L711 682 L711 556 Q688 496 662.5 443.5 Q637 391 606 343 Z" /><glyph glyph-name="uni4E48" unicode="&#x4e48;" d="M565 726 Q529 663 483 598.5 Q437 534 386 473.5 Q335 413 281 359.5 Q227 306 176 264 L71 357 Q123 398 177 450.5 Q231 503 280.5 561.5 Q330 620 373 681.5 Q416 743 447 800 L565 726 ZM809 -92 Q801 -76 790.5 -56.5 Q780 -37 767 -14 Q725 -16 663.5 -19.5 Q602 -23 535 -27 Q468 -31 403.5 -35.5 Q339 -40 292 -43 Q255 -46 223.5 -48.5 Q192 -51 171 -55 L138 82 Q153 86 164.5 91.5 Q176 97 186.5 103 Q197 109 207.5 117 Q218 125 232 136 Q255 155 287.5 187.5 Q320 220 356.5 261.5 Q393 303 432.5 351.5 Q472 400 510.5 451 Q549 502 583.5 554 Q618 606 646 654 L763 584 Q719 513 663 437.5 Q607 362 550 294 Q493 226 440.5 172 Q388 118 351 90 Q385 93 427 96 Q469 99 514 102 Q559 105 604.5 108 Q650 111 691 114 Q661 162 632 206 Q603 250 580 281 L686 352 Q714 316 747 267.5 Q780 219 813 168.5 Q846 118 874.5 70.5 Q903 23 922 -13 L809 -92 Z" /><glyph glyph-name="uni4E49" unicode="&#x4e49;" d="M496 515 Q484 539 467 570 Q450 601 432 633.5 Q414 666 397 696 Q380 726 367 747 L473 813 Q488 790 506 760 Q524 730 542 699 Q560 668 576 639 Q592 610 603 590 L496 515 ZM878 -118 Q757 -65 665 -11 Q573 43 500 104 Q426 42 332.5 -11.5 Q239 -65 118 -120 L46 11 Q155 56 242.5 101.5 Q330 147 399 202 Q319 294 261 410 Q203 526 152 679 L270 729 Q317 589 371.5 484 Q426 379 499 298 Q569 379 617 486.5 Q665 594 698 743 L825 697 Q784 531 730 412 Q676 293 599 202 Q668 147 752 101.5 Q836 56 942 15 L878 -118 Z" /><glyph glyph-name="uni4E4B" unicode="&#x4e4b;" d="M530 63 Q631 61 731.5 61.5 Q832 62 933 67 L900 -59 Q814 -62 719 -63.5 Q624 -65 538 -63 Q477 -62 433 -57 Q389 -52 356 -41 Q323 -30 297.5 -12.5 Q272 5 248 31 Q235 48 226.5 54.5 Q218 61 218 65 Q215 63 207.5 57.5 Q200 52 185 32 Q179 24 170 11.5 Q161 -1 152 -15 Q143 -29 134.5 -42.5 Q126 -56 121 -65 L30 42 Q51 74 80.5 107.5 Q110 141 133 166 Q155 190 171 198.5 Q187 207 208 207 Q218 207 230 204 Q297 242 361.5 284 Q426 326 484 368.5 Q542 411 591 451 Q640 491 677 525 L147 525 L147 651 L440 651 L417 781 L549 787 L572 651 L857 651 L857 525 Q812 481 751 427.5 Q690 374 620 318.5 Q550 263 474.5 210.5 Q399 158 324 115 Q342 98 361.5 88 Q381 78 404.5 72.5 Q428 67 458.5 65.5 Q489 64 530 63 Z" /><glyph glyph-name="uni4E4C" unicode="&#x4e4c;" d="M891 363 Q891 358 889.5 336 Q888 314 886.5 283.5 Q885 253 883.5 218.5 Q882 184 880 153 Q878 122 876.5 99.5 Q875 77 875 70 Q872 25 861.5 -3 Q851 -31 831 -48 Q811 -65 780.5 -73 Q750 -81 707 -85 L603 -94 L565 21 L670 29 Q694 31 708.5 34.5 Q723 38 731 45.5 Q739 53 743 65.5 Q747 78 749 98 Q750 107 752 128.5 Q754 150 756 174 Q758 198 759.5 220 Q761 242 761 251 L171 251 L171 721 L355 721 Q361 742 366.5 762.5 Q372 783 375 801 L507 792 Q505 778 500 759.5 Q495 741 489 721 L799 721 Q799 710 797.5 682 Q796 654 794 623 Q792 592 790.5 564 Q789 536 788 524 Q786 490 776.5 467 Q767 444 748.5 430 Q730 416 701.5 408.5 Q673 401 633 397 L546 389 L514 496 L601 504 Q635 507 647.5 516.5 Q660 526 663 547 Q665 560 666 576 Q667 592 669 608 L297 608 L297 363 L891 363 ZM708 65 L67 65 L67 183 L708 183 L708 65 Z" /><glyph glyph-name="uni4E4D" unicode="&#x4e4d;" d="M481 558 L481 450 L843 450 L843 329 L481 329 L481 222 L877 222 L877 101 L481 101 L481 -94 L357 -94 L357 558 L300 558 Q265 495 225.5 437 Q186 379 138 324 L30 405 Q109 490 174.5 592 Q240 694 281 809 L402 780 Q392 754 381.5 728.5 Q371 703 360 678 L924 678 L924 558 L481 558 Z" /><glyph glyph-name="uni4E4E" unicode="&#x4e4e;" d="M933 243 L559 243 L559 53 Q559 -16 533 -54 Q507 -92 437 -98 L339 -106 L297 15 L384 24 Q416 27 427 39.5 Q438 52 438 81 L438 243 L50 243 L50 365 L285 365 Q269 390 250 418 Q231 446 212 472 Q193 498 175.5 519.5 Q158 541 146 554 L216 610 Q188 608 162 607 Q136 606 112 605 L97 729 Q184 731 285.5 736.5 Q387 742 487.5 749.5 Q588 757 679 766.5 Q770 776 838 787 L855 664 Q793 656 717 649 Q641 642 559 634 L559 365 L690 365 L597 436 Q614 454 636 480.5 Q658 507 679.5 534.5 Q701 562 719.5 588 Q738 614 748 632 L844 557 Q834 541 816.5 516.5 Q799 492 778.5 465 Q758 438 736.5 411 Q715 384 697 365 L933 365 L933 243 ZM438 365 L438 625 Q389 621 341.5 617.5 Q294 614 249 612 Q264 596 281 575.5 Q298 555 315.5 533 Q333 511 350 488 Q367 465 381 444 L294 365 L438 365 Z" /><glyph glyph-name="uni4E4F" unicode="&#x4e4f;" d="M855 664 Q780 651 686.5 638.5 Q593 626 494.5 614.5 Q396 603 299.5 595 Q203 587 123 583 L105 707 Q180 710 275 718.5 Q370 727 469 738.5 Q568 750 662 763 Q756 776 828 790 L855 664 ZM524 43 Q737 34 949 46 L923 -78 Q827 -84 728 -85 Q629 -86 534 -81 Q477 -78 435.5 -74.5 Q394 -71 362.5 -63 Q331 -55 307 -40 Q283 -25 260 -1 Q248 11 239 19 Q230 27 226 31 Q224 28 214.5 20.5 Q205 13 192 -1 Q186 -9 176.5 -19.5 Q167 -30 157 -41 Q147 -52 138.5 -62 Q130 -72 126 -77 L32 21 Q41 32 57 48.5 Q73 65 90 83 Q107 101 123 117.5 Q139 134 147 144 Q168 166 182.5 172.5 Q197 179 217 179 Q228 179 239.5 175 Q251 171 264 160 Q318 185 372 211.5 Q426 238 476 264 Q526 290 570.5 316 Q615 342 651 366 L143 366 L143 490 L435 490 L412 588 L546 594 L569 490 L844 490 L844 365 Q803 335 747 298.5 Q691 262 626.5 223.5 Q562 185 491.5 146.5 Q421 108 351 74 Q365 65 381.5 59.5 Q398 54 418 51 Q438 48 464 46 Q490 44 524 43 Z" /><glyph glyph-name="uni4E50" unicode="&#x4e50;" d="M572 306 L572 30 Q572 -6 565.5 -29.5 Q559 -53 544 -67 Q529 -81 505.5 -88 Q482 -95 448 -99 L364 -108 L320 18 L394 26 Q423 29 431 38 Q439 47 439 67 L439 306 L107 306 L150 737 Q234 740 323 745.5 Q412 751 498.5 758.5 Q585 766 665 775 Q745 784 810 795 L836 667 Q773 658 700.5 649.5 Q628 641 553 634.5 Q478 628 405.5 622.5 Q333 617 271 613 L248 430 L439 430 L439 608 L572 603 L572 430 L881 430 L881 306 L572 306 ZM714 291 Q737 268 767.5 234.5 Q798 201 829.5 165 Q861 129 890.5 93 Q920 57 942 28 L844 -63 Q824 -35 795.5 2 Q767 39 735.5 77.5 Q704 116 673 151 Q642 186 617 212 L714 291 ZM350 222 Q331 189 305 151 Q279 113 250 75 Q221 37 189.5 0.5 Q158 -36 127 -66 L27 14 Q59 44 90 79 Q121 114 149 150 Q177 186 200.5 222 Q224 258 241 290 L350 222 Z" /><glyph glyph-name="uni4E52" unicode="&#x4e52;" d="M929 150 L400 150 L456 83 Q423 54 385 25.5 Q347 -3 307.5 -28.5 Q268 -54 229 -76 Q190 -98 156 -114 L84 -5 Q114 7 148.5 25 Q183 43 218.5 64 Q254 85 287.5 107 Q321 129 348 150 L54 150 L54 271 L201 271 L201 731 Q373 740 529 755 Q685 770 808 796 L833 677 Q785 666 725 656 Q665 646 599 638.5 Q533 631 464 625 Q395 619 330 615 L330 531 L889 531 L889 412 L732 412 L732 271 L929 271 L929 150 ZM330 271 L601 271 L601 412 L330 412 L330 271 Z" /><glyph glyph-name="uni4E53" unicode="&#x4e53;" d="M928 150 L634 150 Q664 133 698 112.5 Q732 92 766 72 Q800 52 831.5 32.5 Q863 13 888 -3 L823 -117 Q792 -95 752 -69 Q712 -43 670 -16.5 Q628 10 589.5 34 Q551 58 523 75 L571 150 L53 150 L53 271 L200 271 L200 732 Q372 740 528.5 755 Q685 770 807 796 L832 677 Q784 666 724 656 Q664 646 598 638 Q532 630 463.5 624 Q395 618 329 614 L329 531 L889 531 L889 412 L732 412 L732 271 L928 271 L928 150 ZM329 271 L601 271 L601 412 L329 412 L329 271 Z" /><glyph glyph-name="uni4E54" unicode="&#x4e54;" d="M891 139 Q794 176 710 236 L710 -88 L579 -88 L579 303 L632 301 Q571 358 525 431 L467 431 Q444 395 417.5 362.5 Q391 330 358 301 L424 298 L424 227 Q424 169 414 120 Q404 71 378.5 28.5 Q353 -14 310.5 -52 Q268 -90 202 -126 L122 -21 Q182 15 217 43 Q252 71 270 99 Q288 127 293 159 Q298 191 298 236 L298 252 Q256 221 207.5 193 Q159 165 102 138 L32 251 Q128 290 197.5 332.5 Q267 375 316 431 L79 431 L79 554 L393 554 Q411 592 423 640 Q349 635 278 631.5 Q207 628 144 626 L133 746 Q217 747 306.5 751 Q396 755 484.5 762 Q573 769 657.5 778 Q742 787 816 798 L844 677 Q781 669 707.5 662 Q634 655 555 649 Q548 623 541 600 Q534 577 526 554 L901 554 L901 431 L665 431 Q715 374 784 334.5 Q853 295 955 260 L891 139 Z" /><glyph glyph-name="uni4E56" unicode="&#x4e56;" d="M555 478 L555 -90 L430 -90 L430 478 L66 478 L66 597 L430 597 L430 649 Q355 645 284.5 642 Q214 639 154 637 L147 755 Q220 756 308 760 Q396 764 486.5 769.5 Q577 775 663 781.5 Q749 788 820 795 L834 677 Q777 672 705 667 Q633 662 555 657 L555 597 L918 597 L918 478 L555 478 ZM258 453 L378 448 L378 33 L258 33 L258 93 Q235 86 208 77 Q181 68 156.5 60 Q132 52 113.5 45 Q95 38 89 35 L55 163 Q62 164 86.5 170.5 Q111 177 142 186.5 Q173 196 205 206 Q237 216 258 223 L258 268 L95 268 L95 388 L258 388 L258 453 ZM942 198 Q941 182 938 156 Q935 130 930 108 Q926 88 919 74.5 Q912 61 898.5 52.5 Q885 44 862.5 39 Q840 34 806 31 Q797 30 785.5 29.5 Q774 29 762 29 Q750 29 738 29.5 Q726 30 717 31 Q662 35 633.5 60.5 Q605 86 605 154 L605 452 L722 447 L722 359 Q757 377 791 397 Q825 417 852 437 L908 341 Q891 330 869 318 Q847 306 822.5 293.5 Q798 281 772 268.5 Q746 256 722 245 L722 189 Q722 170 726 160.5 Q730 151 745 149 Q752 148 767.5 148 Q783 148 790 149 Q812 151 819.5 157 Q827 163 830 181 Q832 195 833.5 207.5 Q835 220 837 234 L942 198 Z" /><glyph glyph-name="uni4E58" unicode="&#x4e58;" d="M549 296 Q617 202 710 137 Q803 72 937 25 L884 -86 Q762 -30 683.5 25.5 Q605 81 549 146 L549 -92 L434 -92 L434 151 Q374 82 297.5 24 Q221 -34 112 -87 L47 23 Q99 45 142 66.5 Q185 88 221.5 109 Q258 130 289 152 Q320 174 347 198 L262 198 L262 219 Q242 213 220 207 Q198 201 175.5 195 Q153 189 132.5 183.5 Q112 178 96 175 L75 270 Q91 273 114.5 278 Q138 283 163.5 289 Q189 295 215 301.5 Q241 308 262 314 L262 344 L103 344 L103 436 L262 436 L262 474 L369 469 L369 219 Q386 236 402 255.5 Q418 275 434 296 L434 497 L81 497 L81 604 L434 604 L434 654 Q359 651 290.5 649 Q222 647 165 647 L159 748 Q227 748 310.5 750.5 Q394 753 481.5 757.5 Q569 762 654.5 768 Q740 774 812 781 L825 677 Q766 672 695.5 667.5 Q625 663 549 659 L549 604 L906 604 L906 497 L549 497 L549 296 ZM719 469 L719 411 Q754 426 790.5 444 Q827 462 856 480 L898 395 Q881 386 859.5 376 Q838 366 814.5 355.5 Q791 345 766 335.5 Q741 326 719 318 L719 298 Q719 284 724.5 275.5 Q730 267 745 265 Q754 263 769 263 Q784 263 793 265 Q810 268 818 273.5 Q826 279 830 297 Q832 309 833.5 318.5 Q835 328 837 343 L923 315 Q922 304 920.5 289.5 Q919 275 916 258 Q911 231 903 215.5 Q895 200 881 191.5 Q867 183 845 179.5 Q823 176 791 173 Q754 170 718 173 Q662 177 637.5 199 Q613 221 613 277 L613 474 L719 469 Z" /><glyph glyph-name="uni4E59" unicode="&#x4e59;" d="M814 626 Q681 527 586.5 450 Q492 373 427 315.5 Q362 258 323 218 Q284 178 263 151.5 Q242 125 235.5 110.5 Q229 96 229 90 Q229 81 231.5 76 Q234 71 242 68 Q250 65 265.5 63.5 Q281 62 307 61 Q497 51 687 61 Q713 62 728 65.5 Q743 69 752 76 Q761 83 765 95.5 Q769 108 774 128 Q777 140 779 157.5 Q781 175 783 194 Q785 213 786.5 230.5 Q788 248 788 260 L920 216 Q919 207 917 190 Q915 173 912 153.5 Q909 134 906 114.5 Q903 95 900 82 Q892 41 879.5 14.5 Q867 -12 844.5 -28.5 Q822 -45 787.5 -52.5 Q753 -60 701 -63 Q485 -73 269 -63 Q181 -58 133.5 -26.5 Q86 5 86 74 Q86 96 92 120.5 Q98 145 117 176 Q136 207 171 247 Q206 287 263.5 341 Q321 395 405 464.5 Q489 534 606 625 L122 625 L122 751 L814 751 L814 626 Z" /><glyph glyph-name="uni4E5D" unicode="&#x4e5d;" d="M946 184 Q946 176 945 156 Q944 136 942 112 Q940 88 938 65 Q936 42 934 29 Q929 -1 920 -21 Q911 -41 896 -53.5 Q881 -66 857.5 -72 Q834 -78 799 -80 Q750 -83 701 -80 Q671 -78 647.5 -71.5 Q624 -65 608.5 -50.5 Q593 -36 584.5 -11.5 Q576 13 576 51 L576 492 L425 492 Q422 415 414 353 Q406 291 391.5 239.5 Q377 188 354.5 143.5 Q332 99 301 57.5 Q270 16 228.5 -25.5 Q187 -67 134 -113 L36 -20 Q106 37 154 86 Q202 135 232 191.5 Q262 248 276.5 319 Q291 390 295 492 L89 492 L89 626 L298 626 L302 797 L432 790 L428 626 L708 626 L708 74 Q708 59 711.5 52.5 Q715 46 733 44 Q752 42 775 44 Q800 45 808 52 Q816 59 821 80 Q824 91 826 107.5 Q828 124 829.5 143.5 Q831 163 832 182.5 Q833 202 834 219 L946 184 Z" /><glyph glyph-name="uni4E5E" unicode="&#x4e5e;" d="M906 173 Q905 163 902.5 146.5 Q900 130 897 112 Q894 94 891 78 Q888 62 886 54 Q877 20 865 -5 Q853 -30 832 -46.5 Q811 -63 779.5 -72 Q748 -81 700 -82 Q488 -88 277 -82 Q238 -81 210.5 -71 Q183 -61 165 -45 Q147 -29 138.5 -8.5 Q130 12 130 35 Q130 68 148.5 100.5 Q167 133 212.5 173.5 Q258 214 334 265.5 Q410 317 525 388 L221 388 L221 479 Q203 459 186 441 Q169 423 154 408 L58 498 Q143 575 201 656 Q259 737 293 818 L413 770 Q399 740 383 710 L872 710 L872 586 L305 586 Q291 566 276 546.5 Q261 527 247 510 L768 510 L768 394 Q652 326 571 277 Q490 228 436 193 Q382 158 351.5 135.5 Q321 113 305.5 99 Q290 85 286.5 76.5 Q283 68 283 62 Q283 48 296 44 Q309 40 334 39 Q505 33 676 39 Q718 41 734 55 Q750 69 759 104 Q762 114 764 128 Q766 142 768 157 Q770 172 771.5 187.5 Q773 203 773 215 L906 173 Z" /><glyph glyph-name="uni4E5F" unicode="&#x4e5f;" d="M941 144 Q939 120 935 92 Q931 64 923 35 Q914 2 902.5 -20 Q891 -42 874 -55.5 Q857 -69 832 -75 Q807 -81 771 -82 Q663 -85 556.5 -85.5 Q450 -86 342 -82 Q296 -81 264 -72 Q232 -63 211.5 -43.5 Q191 -24 182 7 Q173 38 173 84 L173 374 L76 349 L45 467 L173 500 L173 683 L298 678 L298 532 L436 567 L436 792 L561 787 L561 599 L852 673 Q852 665 850.5 635.5 Q849 606 847.5 566 Q846 526 844 481.5 Q842 437 840.5 398.5 Q839 360 837.5 332 Q836 304 835 298 Q833 263 824 241 Q815 219 800 205.5 Q785 192 763 185.5 Q741 179 712 176 L631 168 L590 291 L657 299 Q689 303 700 313.5 Q711 324 713 353 Q714 374 715.5 398 Q717 422 718.5 444.5 Q720 467 721 486 Q722 505 722 515 L561 474 L561 99 L436 99 L436 442 L298 406 L298 125 Q298 97 301.5 80 Q305 63 315 54 Q325 45 342 41.5 Q359 38 386 37 Q550 31 715 37 Q737 38 752 41.5 Q767 45 777.5 53 Q788 61 795 74 Q802 87 807 108 Q812 125 814.5 146.5 Q817 168 818 189 L941 144 Z" /><glyph glyph-name="uni4E60" unicode="&#x4e60;" d="M872 754 Q871 744 870 713 Q869 682 867.5 637 Q866 592 864.5 537 Q863 482 861 425 Q859 368 857 312 Q855 256 853.5 210 Q852 164 851 130.5 Q850 97 849 85 Q846 40 832.5 9 Q819 -22 795 -42 Q771 -62 736 -72.5 Q701 -83 656 -86 L535 -95 L494 34 L610 44 Q637 46 656 51.5 Q675 57 687 67 Q699 77 705.5 93.5 Q712 110 714 135 Q715 149 716.5 188 Q718 227 720 278 Q722 329 724 385.5 Q726 442 727.5 491.5 Q729 541 730.5 577 Q732 613 732 622 L107 622 L107 754 L872 754 ZM711 285 Q562 213 416.5 151.5 Q271 90 128 36 L68 157 Q154 188 251 226.5 Q348 265 448 309 Q424 333 388.5 361.5 Q353 390 315.5 418 Q278 446 241.5 470.5 Q205 495 179 510 L255 615 Q280 600 315.5 577 Q351 554 388.5 528 Q426 502 461 475.5 Q496 449 520 428 L451 311 Q508 336 562.5 361.5 Q617 387 671 413 L690 350 L711 285 Z" /><glyph glyph-name="uni4E61" unicode="&#x4e61;" d="M860 476 Q857 460 853 436 Q849 412 844 394 Q826 322 800 264 Q774 206 735 159 Q696 112 642 74.5 Q588 37 514.5 6 Q441 -25 345 -51.5 Q249 -78 126 -103 L60 12 Q175 35 263.5 57.5 Q352 80 419.5 105.5 Q487 131 535.5 160.5 Q584 190 618 226 Q579 223 535 220 Q491 217 447 214 Q403 211 362.5 207.5 Q322 204 291 201 Q259 198 236 194.5 Q213 191 196 188 L160 311 Q172 314 181.5 316.5 Q191 319 200 323 Q209 327 220 333 Q231 339 247 348 Q281 367 325.5 397.5 Q370 428 421 466 Q382 464 343.5 461 Q305 458 274 455 Q243 452 219.5 449 Q196 446 176 441 L142 561 Q164 566 180 575 Q196 584 209 592 Q227 602 256.5 626 Q286 650 319.5 681 Q353 712 387 747.5 Q421 783 448 815 L549 742 Q521 712 492 683.5 Q463 655 436.5 631.5 Q410 608 387 591 Q364 574 348 567 Q393 569 449 571 Q505 573 558 575 Q604 614 647 653.5 Q690 693 726 730 L821 646 Q771 594 717 545 Q663 496 609.5 454 Q556 412 506 378.5 Q456 345 413 324 Q443 325 477.5 327 Q512 329 548 331.5 Q584 334 620.5 336 Q657 338 690 340 Q706 380 717 427 Q722 448 724.5 465 Q727 482 729 496 L860 476 Z" /><glyph glyph-name="uni4E66" unicode="&#x4e66;" d="M771 391 L912 391 Q912 375 909 335 Q906 295 902 250 Q898 205 894 165 Q890 125 889 109 Q886 73 874.5 49.5 Q863 26 842 11.5 Q821 -3 790 -10.5 Q759 -18 717 -23 L623 -34 L585 90 L689 100 Q727 104 742 116 Q757 128 762 157 Q763 164 765 179 Q767 194 769.5 211 Q772 228 773.5 243 Q775 258 776 265 L451 265 L451 -93 L330 -93 L330 265 L47 265 L47 391 L330 391 L330 542 L122 542 L122 667 L330 667 L330 798 L451 793 L451 667 L716 667 Q694 684 674.5 698 Q655 712 640 721 L716 818 Q737 804 766 783 Q795 762 825 739 Q855 716 883 693 Q911 670 930 653 L855 548 Q844 559 827 574.5 Q810 590 790 607 L771 391 ZM451 391 L647 391 L661 542 L451 542 L451 391 Z" /><glyph glyph-name="uni4E70" unicode="&#x4e70;" d="M245 645 L119 645 L119 761 L893 761 L893 644 Q875 606 853 564 Q831 522 802 477 L691 525 Q711 552 728.5 581 Q746 610 763 645 L267 645 Q291 634 319.5 619 Q348 604 377 588 Q406 572 433.5 556 Q461 540 482 527 L430 414 Q405 432 372 453.5 Q339 475 305.5 494.5 Q272 514 242 530 Q212 546 194 554 L245 645 ZM859 -117 Q820 -92 776.5 -67 Q733 -42 688.5 -18.5 Q644 5 599.5 26.5 Q555 48 515 66 Q454 5 357 -38 Q260 -81 115 -121 L63 -1 Q139 15 199 33.5 Q259 52 305 73 Q351 94 384 117.5 Q417 141 440 167 L82 167 L82 282 L320 282 Q296 299 267.5 317.5 Q239 336 211.5 353.5 Q184 371 158.5 385.5 Q133 400 115 409 L171 505 Q198 491 232.5 472 Q267 453 301 433 Q335 413 365.5 393.5 Q396 374 415 360 L376 282 L501 282 Q510 316 513.5 353 Q517 390 519 431 Q520 450 520.5 475.5 Q521 501 521.5 527 Q522 553 522.5 576.5 Q523 600 523 615 L648 608 Q648 593 647.5 566.5 Q647 540 646 511 Q645 482 644 456 Q643 430 642 415 Q639 378 635 345 Q631 312 624 282 L906 282 L906 167 L586 167 Q584 163 583 162 Q622 145 668.5 124.5 Q715 104 761.5 82 Q808 60 849 38.5 Q890 17 917 0 L859 -117 Z" /><glyph glyph-name="uni4E71" unicode="&#x4e71;" d="M941 125 Q939 97 936 68.5 Q933 40 927 11 Q921 -18 912 -36.5 Q903 -55 889 -66 Q875 -77 855.5 -82 Q836 -87 809 -89 Q798 -90 783 -90.5 Q768 -91 751.5 -91 Q735 -91 719.5 -90.5 Q704 -90 694 -89 Q656 -86 630 -78 Q604 -70 587 -53 Q570 -36 562.5 -9 Q555 18 555 58 L555 782 L677 777 L677 94 Q677 62 687 49 Q697 36 721 34 Q729 33 746 33 Q763 33 771 34 Q793 37 802 45 Q811 53 816 76 Q820 96 822 117 Q824 138 825 163 L941 125 ZM355 534 L524 534 L524 415 L355 415 L355 319 L495 319 L495 -73 L91 -73 L91 319 L235 319 L235 415 L48 415 L48 534 L235 534 L235 623 Q197 618 159 614.5 Q121 611 86 609 L78 728 Q130 732 184.5 737.5 Q239 743 291.5 750 Q344 757 392 764.5 Q440 772 478 780 L499 661 Q468 655 431.5 649 Q395 643 355 637 L355 534 ZM375 198 L213 198 L213 47 L375 47 L375 198 Z" /><glyph glyph-name="uni4E73" unicode="&#x4e73;" d="M545 683 Q499 675 442.5 667.5 Q386 660 326 654 Q332 642 339.5 624.5 Q347 607 354.5 588.5 Q362 570 368.5 553 Q375 536 378 526 L287 486 Q284 496 277.5 513.5 Q271 531 263.5 550.5 Q256 570 248.5 589 Q241 608 235 622 L302 652 Q267 648 232.5 645 Q198 642 166 640 Q172 628 181 610.5 Q190 593 199 574.5 Q208 556 215.5 539.5 Q223 523 227 513 L155 473 L436 473 L381 502 Q389 516 399.5 536 Q410 556 420.5 578 Q431 600 441 622 Q451 644 458 663 L545 623 Q539 606 531 587 Q523 568 514 548 Q505 528 496 508.5 Q487 489 478 473 L529 473 L529 368 L398 263 Q437 268 471.5 273 Q506 278 533 282 L535 234 L537 174 Q504 169 462 163.5 Q420 158 374 151 L374 28 Q374 -29 343 -56 Q312 -83 244 -89 L178 -95 L146 12 L209 18 Q234 20 243.5 27.5 Q253 35 253 56 L253 135 Q194 127 143 121 Q92 115 59 110 L45 216 Q80 220 135 227 Q190 234 253 243 L253 291 L356 366 L97 366 L97 473 L138 473 Q133 486 125.5 503.5 Q118 521 109.5 539 Q101 557 92.5 574 Q84 591 77 603 L149 639 Q131 637 114.5 636.5 Q98 636 82 635 L75 747 Q125 749 184 753 Q243 757 303 763 Q363 769 421 777 Q479 785 528 794 L545 683 ZM943 170 Q943 156 941.5 138.5 Q940 121 938 103 Q936 85 933.5 68.5 Q931 52 928 40 Q921 8 913.5 -14.5 Q906 -37 892 -51 Q878 -65 854.5 -72.5 Q831 -80 792 -83 Q748 -86 705 -83 Q668 -80 642.5 -72.5 Q617 -65 601 -49.5 Q585 -34 578 -8 Q571 18 571 58 L571 782 L692 777 L692 76 Q692 53 699 46.5 Q706 40 729 38 Q748 36 768 38 Q791 40 800 48 Q809 56 814 81 Q819 107 822.5 140.5 Q826 174 827 203 L943 170 Z" /><glyph glyph-name="uni4E7E" unicode="&#x4e7e;" d="M935 127 Q932 79 923 29 Q913 -26 883 -49.5 Q853 -73 789 -78 Q694 -84 599 -78 Q574 -77 552 -70 Q530 -63 513 -50 Q496 -37 486 -18.5 Q476 0 476 25 Q476 30 476 34 Q476 38 477 43 L337 43 L337 -93 L220 -93 L220 43 L53 43 L53 154 L220 154 L220 198 L86 198 L86 570 L220 570 L220 611 L78 611 L78 717 L220 717 L220 795 L337 790 L337 717 L477 717 L477 611 L337 611 L337 570 L466 570 L466 535 Q504 597 532 664.5 Q560 732 583 810 L697 780 Q689 757 681.5 734.5 Q674 712 666 691 L912 691 L912 570 L615 570 Q605 549 595 528.5 Q585 508 574 488 L854 488 L854 374 Q782 296 734 241 Q686 186 657.5 148.5 Q629 111 617 88.5 Q605 66 605 54 Q605 43 614.5 39.5 Q624 36 645 34 Q675 32 705 31.5 Q735 31 764 34 Q788 36 798 43 Q808 50 812 73 Q821 125 823 166 L935 127 ZM477 44 Q480 75 494.5 110 Q509 145 536.5 185 Q564 225 605.5 271.5 Q647 318 704 374 L530 374 L530 442 L466 487 L466 198 L337 198 L337 154 L477 154 L477 44 ZM201 470 L201 433 L351 433 L351 470 L201 470 ZM201 298 L351 298 L351 335 L201 335 L201 298 Z" /><glyph glyph-name="uni4E86" unicode="&#x4e86;" d="M368 36 Q389 37 401 39 Q413 41 420 46 Q427 51 429 61 Q431 71 431 89 L429 483 L667 626 L107 626 L107 755 L885 755 L885 626 L564 418 L563 43 Q563 4 556 -20.5 Q549 -45 531.5 -59.5 Q514 -74 484.5 -81 Q455 -88 410 -92 L314 -100 L272 28 L368 36 Z" /><glyph glyph-name="uni4E88" unicode="&#x4e88;" d="M925 449 L925 328 Q923 325 912 311 Q901 297 885.5 277 Q870 257 852 234 Q834 211 818 189.5 Q802 168 789.5 152 Q777 136 773 130 L666 199 Q672 207 686.5 224 Q701 241 717.5 260.5 Q734 280 749.5 298.5 Q765 317 774 328 L555 328 L555 35 Q555 -1 549 -25 Q543 -49 527 -63.5 Q511 -78 484.5 -85 Q458 -92 416 -96 L337 -103 L297 15 L374 23 Q407 27 418.5 37 Q430 47 430 81 L430 328 L61 328 L61 449 L426 449 Q404 466 381 483.5 Q358 501 336.5 517 Q315 533 295.5 546 Q276 559 261 568 L323 652 L151 652 L151 771 L861 771 L861 652 Q838 637 803.5 614.5 Q769 592 730.5 566 Q692 540 651.5 513 Q611 486 576 461 L565 449 L925 449 ZM347 652 Q375 633 414.5 604.5 Q454 576 492 547 Q515 561 539 576 Q563 591 585.5 605 Q608 619 627.5 631 Q647 643 661 652 L347 652 Z" /><glyph glyph-name="uni4E89" unicode="&#x4e89;" d="M927 291 L829 291 L829 102 L538 102 L538 37 Q538 0 531.5 -23.5 Q525 -47 510 -60.5 Q495 -74 471.5 -80 Q448 -86 414 -89 L334 -96 L293 15 L369 23 Q385 24 394.5 27 Q404 30 409.5 35 Q415 40 416.5 49 Q418 58 418 72 L418 102 L134 102 L134 207 L418 207 L418 291 L49 291 L49 400 L418 400 L418 465 L181 465 L181 495 Q157 475 134 457 L53 553 Q91 579 129.5 613.5 Q168 648 202.5 684.5 Q237 721 266 757 Q295 793 316 823 L442 790 Q437 780 431 771 Q425 762 418 752 L740 752 L740 640 L667 572 L829 572 L829 400 L927 400 L927 291 ZM330 638 Q315 621 299 605 Q283 589 266 572 L503 572 L578 638 L330 638 ZM538 400 L711 400 L711 465 L538 465 L538 400 ZM711 291 L538 291 L538 207 L711 207 L711 291 Z" /><glyph glyph-name="uni4E8B" unicode="&#x4e8b;" d="M545 648 L545 620 L839 620 L839 421 L545 419 L545 388 L849 388 L849 270 L925 270 L925 182 L849 182 L849 58 L545 58 L545 16 Q545 -19 539 -40.5 Q533 -62 519.5 -75 Q506 -88 484 -93.5 Q462 -99 431 -102 L348 -110 L313 -6 L382 1 Q398 3 407.5 5.5 Q417 8 421.5 14 Q426 20 427.5 30 Q429 40 429 58 L126 58 L126 147 L429 147 L429 182 L58 182 L58 270 L429 270 L429 303 L140 303 L140 388 L429 388 L429 418 L144 416 L144 620 L429 620 L429 648 L56 648 L56 744 L429 744 L429 812 L545 806 L545 744 L925 744 L925 648 L545 648 ZM429 501 L429 538 L264 538 L264 501 L429 501 ZM545 538 L545 501 L718 501 L718 538 L545 538 ZM545 303 L545 270 L736 270 L736 303 L545 303 ZM736 182 L545 182 L545 147 L736 147 L736 182 Z" /><glyph glyph-name="uni4E8C" unicode="&#x4e8c;" d="M827 573 L155 573 L155 706 L827 706 L827 573 ZM922 -30 L60 -30 L60 104 L922 104 L922 -30 Z" /><glyph glyph-name="uni4E8E" unicode="&#x4e8e;" d="M915 323 L569 323 L569 71 Q569 23 563 -6.5 Q557 -36 540.5 -53.5 Q524 -71 494.5 -79 Q465 -87 417 -91 L343 -97 L299 33 L373 39 Q393 40 405 43 Q417 46 423 54 Q429 62 431 78 Q433 94 433 121 L433 323 L65 323 L65 446 L433 446 L433 634 L144 634 L144 756 L837 756 L837 634 L569 634 L569 446 L915 446 L915 323 Z" /><glyph glyph-name="uni4E8F" unicode="&#x4e8f;" d="M825 630 L154 630 L154 751 L825 751 L825 630 ZM367 415 L347 335 L807 335 Q806 328 804.5 309 Q803 290 800.5 264.5 Q798 239 795 211 Q792 183 789.5 157 Q787 131 785 110.5 Q783 90 782 81 Q777 34 764.5 3.5 Q752 -27 728.5 -46 Q705 -65 669 -75 Q633 -85 580 -89 L449 -100 L408 24 L544 34 Q568 36 586 40 Q604 44 615.5 53 Q627 62 633.5 76.5 Q640 91 642 114 Q643 125 644.5 139 Q646 153 647.5 167 Q649 181 650.5 193.5 Q652 206 653 214 L180 214 L226 415 L59 415 L59 537 L921 537 L921 415 L367 415 Z" /><glyph glyph-name="uni4E91" unicode="&#x4e91;" d="M830 635 L152 635 L152 760 L830 760 L830 635 ZM509 371 Q486 331 458 287 Q430 243 402 204 Q374 165 349.5 134.5 Q325 104 310 90 Q346 93 388 96 Q430 99 475.5 102.5 Q521 106 567 109.5 Q613 113 656 116 Q632 154 607 192 Q582 230 556 268 L662 330 Q716 254 771 168 Q826 82 883 -15 L779 -91 Q766 -68 753.5 -46.5 Q741 -25 728 -3 Q698 -5 657.5 -7.5 Q617 -10 570.5 -13.5 Q524 -17 474.5 -20.5 Q425 -24 377.5 -27.5 Q330 -31 287 -34.5 Q244 -38 211 -41 Q190 -43 173.5 -44.5 Q157 -46 140 -49 L104 79 Q117 84 126.5 89 Q136 94 143.5 100 Q151 106 158.5 113.5 Q166 121 177 130 Q193 145 215 170.5 Q237 196 261 228.5 Q285 261 309.5 297.5 Q334 334 355 371 L66 371 L66 496 L916 496 L916 371 L509 371 Z" /><glyph glyph-name="uni4E92" unicode="&#x4e92;" d="M932 59 L932 -64 L50 -64 L50 59 L635 59 L643 156 L177 156 L251 628 L102 628 L102 752 L884 752 L884 628 L380 628 L364 538 L798 538 L764 59 L932 59 ZM654 281 L665 413 L343 413 L321 281 L654 281 Z" /><glyph glyph-name="uni4E94" unicode="&#x4e94;" d="M928 73 L928 -48 L56 -48 L56 73 L246 73 L291 338 L129 338 L129 461 L312 461 L340 626 L110 626 L110 749 L881 749 L881 626 L472 626 L443 461 L800 461 L786 73 L928 73 ZM377 73 L654 73 L666 338 L422 338 L377 73 Z" /><glyph glyph-name="uni4E95" unicode="&#x4e95;" d="M928 211 L737 211 L737 -104 L606 -104 L606 211 L390 211 Q383 158 369 116.5 Q355 75 331.5 38.5 Q308 2 273 -33.5 Q238 -69 190 -111 L80 -23 Q120 10 150 37.5 Q180 65 201 91 Q222 117 235 146 Q248 175 255 211 L55 211 L55 336 L266 336 L266 507 L98 507 L98 632 L266 632 L266 783 L398 778 L398 632 L606 632 L606 785 L737 780 L737 632 L887 632 L887 507 L737 507 L737 336 L928 336 L928 211 ZM606 336 L606 507 L398 507 L398 336 L606 336 Z" /><glyph glyph-name="uni4E9A" unicode="&#x4e9a;" d="M925 55 L925 -66 L60 -66 L60 55 L322 55 L322 204 L232 147 Q223 170 210.5 201 Q198 232 183 267 Q168 302 152 338 Q136 374 121.5 406 Q107 438 94.5 463.5 Q82 489 74 503 L181 560 Q191 545 208.5 511 Q226 477 246.5 435.5 Q267 394 287 350.5 Q307 307 322 271 L322 644 L100 644 L100 767 L885 767 L885 644 L660 644 L660 273 Q681 308 701 346 Q721 384 739 421.5 Q757 459 772.5 494.5 Q788 530 799 560 L906 505 Q895 471 875.5 425 Q856 379 832 330 Q808 281 782.5 234.5 Q757 188 735 154 L660 198 L660 55 L925 55 ZM448 55 L536 55 L536 644 L448 644 L448 55 Z" /><glyph glyph-name="uni4E9B" unicode="&#x4e9b;" d="M942 450 Q940 425 937 404 Q934 383 929 360 Q923 333 914 315.5 Q905 298 890 288.5 Q875 279 852 274.5 Q829 270 796 268 Q716 263 636 268 Q582 271 554.5 297 Q527 323 527 387 L527 794 L651 789 L651 616 Q699 637 750 664.5 Q801 692 848 724 L897 616 Q876 601 846 583.5 Q816 566 782 549 Q748 532 714 516.5 Q680 501 651 490 L651 428 Q651 400 661 392 Q671 384 697 382 Q730 379 761 382 Q787 385 801 391 Q815 397 821 417 Q825 429 827.5 445 Q830 461 832 483 L942 450 ZM67 365 Q74 366 87.5 367.5 Q101 369 120 372 L120 709 L245 704 L245 392 Q258 394 271 397 Q284 400 298 402 L298 789 L418 784 L418 645 L507 645 L507 533 L418 533 L418 424 Q446 429 467.5 433 Q489 437 501 440 L506 374 L512 314 Q498 311 465.5 306 Q433 301 391.5 294 Q350 287 303.5 279 Q257 271 214.5 264 Q172 257 137.5 251 Q103 245 86 242 L67 365 ZM187 110 L187 221 L797 221 L797 110 L187 110 ZM73 53 L913 53 L913 -68 L73 -68 L73 53 Z" /><glyph glyph-name="uni4EA1" unicode="&#x4ea1;" d="M316 519 L316 59 L845 59 L845 -64 L179 -64 L179 519 L62 519 L62 645 L438 645 L409 792 L550 799 L579 645 L923 645 L923 519 L316 519 Z" /><glyph glyph-name="uni4EA4" unicode="&#x4ea4;" d="M79 354 Q148 399 209.5 453 Q271 507 322 563 L93 563 L93 691 L429 691 L406 788 L541 794 L561 691 L889 691 L889 563 L647 563 Q675 543 708.5 518 Q742 493 776 466.5 Q810 440 842 415 Q874 390 898 370 L829 257 Q804 279 767 310.5 Q730 342 690.5 375 Q651 408 613 437.5 Q575 467 548 487 L608 563 L350 563 L426 493 Q368 427 299 364.5 Q230 302 157 248 L79 354 ZM898 -121 Q760 -78 662.5 -37 Q565 4 493 55 Q422 3 328 -40 Q234 -83 104 -126 L36 -3 Q154 29 241 63.5 Q328 98 394 141 Q359 179 327 225.5 Q295 272 263 329 L368 393 Q397 341 427 298.5 Q457 256 492 221 Q526 257 553.5 299 Q581 341 605 392 L718 336 Q689 279 658.5 231.5 Q628 184 590 143 Q658 100 745 68.5 Q832 37 948 9 L898 -121 Z" /><glyph glyph-name="uni4EA5" unicode="&#x4ea5;" d="M909 686 L909 567 L659 567 L737 509 Q685 432 625 367 Q565 302 491.5 245.5 Q418 189 328.5 138.5 Q239 88 128 39 L69 151 Q180 194 261.5 237 Q343 280 408 330 Q354 328 299.5 325.5 Q245 323 211 321 Q202 319 192.5 318.5 Q183 318 174 317 L143 426 Q158 430 167.5 433 Q177 436 183.5 438.5 Q190 441 194.5 444 Q199 447 204 451 Q211 456 223.5 467.5 Q236 479 251.5 494.5 Q267 510 284 528.5 Q301 547 317 567 L74 567 L74 686 L429 686 L407 787 L541 800 L564 686 L909 686 ZM526 440 Q575 496 626 567 L473 567 Q456 545 438.5 524 Q421 503 404.5 485 Q388 467 373 453 Q358 439 346 433 Q382 435 431.5 436.5 Q481 438 526 440 ZM834 341 Q750 227 648 139 Q676 123 709.5 104.5 Q743 86 775.5 67 Q808 48 837.5 30 Q867 12 889 -1 L825 -122 Q799 -103 763 -79 Q727 -55 688.5 -31 Q650 -7 611.5 15.5 Q573 38 542 56 Q466 4 378.5 -41.5 Q291 -87 186 -130 L121 -11 Q232 29 323 74 Q414 119 489 170.5 Q564 222 625.5 283 Q687 344 740 416 L834 341 Z" /><glyph glyph-name="uni4EA6" unicode="&#x4ea6;" d="M832 60 Q820 92 801.5 134 Q783 176 761.5 221 Q740 266 717 310.5 Q694 355 673 392 L673 10 Q673 -22 666.5 -43 Q660 -64 644 -77.5 Q628 -91 602 -97.5 Q576 -104 537 -108 L472 -114 L431 11 L500 18 Q515 19 524 21.5 Q533 24 538.5 29.5 Q544 35 546 44.5 Q548 54 548 69 L548 551 L453 551 Q452 518 451 475.5 Q450 433 448 384 Q443 281 429.5 208.5 Q416 136 389 79 Q362 22 319 -26 Q276 -74 213 -128 L119 -29 Q177 18 215 58 Q253 98 276 144.5 Q299 191 309.5 250 Q320 309 324 395 Q326 441 327 480.5 Q328 520 329 551 L78 551 L78 672 L429 672 L402 793 L543 801 L569 672 L900 672 L900 551 L673 551 L673 439 L757 482 Q805 410 852 322.5 Q899 235 943 138 L832 60 ZM296 450 Q272 362 231 266 Q190 170 138 87 L30 142 Q81 220 119.5 306.5 Q158 393 181 484 L296 450 Z" /><glyph glyph-name="uni4EA7" unicode="&#x4ea7;" d="M736 588 Q731 554 724.5 518 Q718 482 711 446 L893 446 L893 323 L261 323 L261 262 Q261 199 253.5 148.5 Q246 98 231 53 Q216 8 192 -33.5 Q168 -75 135 -120 L20 -49 Q55 -9 78 26.5 Q101 62 114.5 99.5 Q128 137 133.5 182 Q139 227 139 287 L139 446 L287 446 Q283 478 278 518 Q273 558 269 588 L89 588 L89 710 L435 710 L416 795 L548 801 L568 710 L914 710 L914 588 L736 588 ZM585 446 Q592 479 598.5 516 Q605 553 610 588 L393 588 Q398 555 402.5 515.5 Q407 476 411 446 L585 446 Z" /><glyph glyph-name="uni4EA9" unicode="&#x4ea9;" d="M920 700 L920 579 L66 579 L66 700 L435 700 L412 794 L546 800 L568 700 L920 700 ZM137 520 L848 520 L848 -72 L137 -72 L137 520 ZM258 401 L258 285 L434 285 L434 401 L258 401 ZM728 401 L552 401 L552 285 L728 285 L728 401 ZM258 46 L434 46 L434 168 L258 168 L258 46 ZM728 46 L728 168 L552 168 L552 46 L728 46 Z" /><glyph glyph-name="uni4EAB" unicode="&#x4eab;" d="M897 629 L84 629 L84 723 L431 723 L415 795 L547 801 L564 723 L897 723 L897 629 ZM165 384 L165 592 L816 592 L816 384 L165 384 ZM283 470 L697 470 L697 507 L283 507 L283 470 ZM916 81 L564 81 L564 53 Q564 9 558 -19 Q552 -47 536.5 -64.5 Q521 -82 495.5 -90.5 Q470 -99 431 -102 L354 -109 L316 4 L385 10 Q401 12 411.5 15 Q422 18 428 25.5 Q434 33 436.5 46 Q439 59 439 81 L62 81 L62 183 L439 183 L439 203 L589 255 L143 255 L143 348 L832 348 L832 255 L637 183 L916 183 L916 81 Z" /><glyph glyph-name="uni4EAC" unicode="&#x4eac;" d="M903 597 L83 597 L83 712 L428 712 L409 792 L542 798 L560 712 L903 712 L903 597 ZM567 223 L567 57 Q567 8 561.5 -22 Q556 -52 541 -68.5 Q526 -85 499.5 -92 Q473 -99 432 -103 L357 -110 L315 13 L393 22 Q422 26 429.5 40 Q437 54 437 93 L437 223 L171 223 L171 544 L813 544 L813 223 L567 223 ZM300 336 L685 336 L685 429 L300 429 L300 336 ZM355 135 Q290 67 232.5 14.5 Q175 -38 115 -84 L32 18 Q67 42 96.5 64.5 Q126 87 153 110 Q180 133 206 158.5 Q232 184 261 215 L355 135 ZM694 214 Q762 166 825.5 117.5 Q889 69 948 15 L869 -89 Q817 -33 754.5 18.5 Q692 70 622 121 L694 214 Z" /><glyph glyph-name="uni4EAD" unicode="&#x4ead;" d="M912 726 L912 627 L71 627 L71 726 L431 726 L414 796 L548 802 L564 726 L912 726 ZM806 596 L806 397 L178 397 L178 596 L806 596 ZM693 514 L293 514 L293 479 L693 479 L693 514 ZM88 363 L898 363 L898 182 L783 182 L783 269 L202 269 L202 184 L88 184 L88 363 ZM220 228 L764 228 L764 124 L573 124 L573 24 Q573 -8 567 -30 Q561 -52 546.5 -66 Q532 -80 508.5 -87.5 Q485 -95 450 -99 L375 -107 L334 12 L405 20 Q431 23 441 32 Q451 41 451 63 L451 124 L220 124 L220 228 Z" /><glyph glyph-name="uni4EAE" unicode="&#x4eae;" d="M900 631 L83 631 L83 727 L430 727 L413 797 L547 803 L563 727 L900 727 L900 631 ZM803 596 L803 385 L182 385 L182 596 L803 596 ZM683 508 L303 508 L303 472 L683 472 L683 508 ZM779 173 L779 260 L207 260 L207 174 L87 174 L87 349 L900 349 L900 173 L779 173 ZM926 85 Q924 61 922.5 42.5 Q921 24 917 4 Q911 -25 903 -42.5 Q895 -60 883 -70.5 Q871 -81 854 -85.5 Q837 -90 813 -93 Q802 -94 780 -94.5 Q758 -95 734 -95 Q710 -95 688.5 -94.5 Q667 -94 656 -93 Q606 -88 588 -62 Q570 -36 570 16 L570 122 L390 122 L390 97 Q390 64 376 33.5 Q362 3 330 -24 Q298 -51 245 -75 Q192 -99 113 -119 L47 -7 Q119 9 162.5 24 Q206 39 230 58.5 Q254 78 262 104 Q270 130 270 166 L270 220 L691 220 L691 63 Q691 42 697.5 33 Q704 24 724 22 Q743 21 762 22 Q784 24 793.5 28.5 Q803 33 808 53 Q814 78 817 117 L926 85 Z" /><glyph glyph-name="uni4EB2" unicode="&#x4eb2;" d="M691 184 Q717 170 748.5 150.5 Q780 131 812 110 Q844 89 873 68.5 Q902 48 923 32 L856 -75 Q830 -54 799.5 -31.5 Q769 -9 737.5 12.5 Q706 34 675 54 Q644 74 617 90 L683 184 L565 184 L565 26 Q565 -10 559 -32 Q553 -54 538.5 -67 Q524 -80 499 -86.5 Q474 -93 437 -97 L381 -103 L337 22 L393 28 Q424 32 432 40 Q440 48 440 74 L440 184 L288 184 L361 108 Q335 83 305 57 Q275 31 242.5 6 Q210 -19 177.5 -42 Q145 -65 114 -84 L43 18 Q98 51 157 95.5 Q216 140 265 184 L103 184 L103 300 L440 300 L440 369 L71 369 L71 487 L289 487 Q284 515 277.5 544.5 Q271 574 265 598 L121 598 L121 715 L427 715 L407 798 L544 804 L564 715 L862 715 L862 598 L733 598 Q716 545 695 487 L909 487 L909 369 L565 369 L565 300 L881 300 L881 184 L691 184 ZM393 598 Q400 570 406.5 540.5 Q413 511 419 487 L568 487 Q578 513 587.5 541.5 Q597 570 606 598 L393 598 Z" /><glyph glyph-name="uni4EBA" unicode="&#x4eba;" d="M548 614 Q560 513 593 426.5 Q626 340 677 264 Q728 188 795 122.5 Q862 57 943 0 L851 -113 Q720 -5 632 105.5 Q544 216 495 340 Q450 220 366 114.5 Q282 9 150 -92 L45 1 Q147 75 218.5 149 Q290 223 335 306 Q380 389 401 485 Q422 581 423 698 Q423 705 423.5 716.5 Q424 728 424.5 740 Q425 752 425 763 Q425 774 425 782 L550 777 Q550 766 549.5 748.5 Q549 731 549 712.5 Q549 694 549 676.5 Q549 659 549 649 Q549 640 548.5 631.5 Q548 623 548 614 Z" /><glyph glyph-name="uni4EBF" unicode="&#x4ebf;" d="M361 763 Q342 709 324 663 Q306 617 287 574 L287 -85 L168 -85 L168 345 L111 258 L23 375 Q54 412 85.5 461 Q117 510 145.5 565.5 Q174 621 199 681 Q224 741 242 801 L361 763 ZM941 204 Q940 175 937 139 Q934 103 929 69 Q923 27 913 0 Q903 -27 885.5 -43.5 Q868 -60 840.5 -67 Q813 -74 771 -76 Q699 -79 624 -79 Q549 -79 477 -76 Q399 -73 362 -39 Q325 -5 325 52 Q325 75 329.5 99.5 Q334 124 347.5 155.5 Q361 187 386.5 227.5 Q412 268 453.5 324 Q495 380 555.5 453 Q616 526 700 623 L402 623 L402 747 L866 747 L866 622 Q773 515 707 436.5 Q641 358 596.5 301 Q552 244 525.5 206.5 Q499 169 485.5 143.5 Q472 118 468 102.5 Q464 87 464 75 Q464 55 477 51.5 Q490 48 506 47 Q618 41 732 47 Q753 48 766.5 51.5 Q780 55 788.5 63 Q797 71 801.5 83.5 Q806 96 809 116 Q811 128 812.5 143 Q814 158 815.5 174.5 Q817 191 817.5 207 Q818 223 818 237 L941 204 Z" /><glyph glyph-name="uni4EC0" unicode="&#x4ec0;" d="M379 767 Q363 719 345 674 Q327 629 307 585 L307 -87 L179 -87 L179 357 Q162 331 144.5 306.5 Q127 282 108 258 L20 370 Q55 410 89.5 463 Q124 516 155 574 Q186 632 212 692 Q238 752 256 807 L379 767 ZM934 360 L696 360 L696 -90 L571 -90 L571 360 L338 360 L338 490 L571 490 L571 793 L696 788 L696 490 L934 490 L934 360 Z" /><glyph glyph-name="uni4EC1" unicode="&#x4ec1;" d="M365 768 Q351 713 332.5 660 Q314 607 292 555 L292 -88 L168 -88 L168 318 Q154 297 140 277 Q126 257 112 237 L26 369 Q54 407 84.5 457.5 Q115 508 144 565.5 Q173 623 199.5 684 Q226 745 245 805 L365 768 ZM884 562 L371 562 L371 692 L884 692 L884 562 ZM932 93 L932 -35 L321 -35 L321 93 L932 93 Z" /><glyph glyph-name="uni4EC5" unicode="&#x4ec5;" d="M709 201 Q754 153 813 105 Q872 57 950 4 L873 -113 Q797 -59 735.5 -7 Q674 45 624 99 Q521 -8 361 -112 L289 -7 L289 -99 L163 -99 L163 350 Q131 303 96 259 L18 370 Q53 413 85.5 463.5 Q118 514 146 568.5 Q174 623 196.5 680 Q219 737 236 793 L353 761 Q338 714 322 671 Q306 628 289 586 L289 10 Q368 61 429 108.5 Q490 156 538 204 Q480 286 440.5 377.5 Q401 469 374 581 L497 618 Q525 522 554.5 447.5 Q584 373 625 308 Q675 380 704 456.5 Q733 533 751 624 L366 624 L366 752 L882 752 L882 626 Q854 499 814 395.5 Q774 292 709 201 Z" /><glyph glyph-name="uni4EC6" unicode="&#x4ec6;" d="M404 760 Q386 710 365.5 663.5 Q345 617 322 572 L322 -92 L194 -92 L194 359 Q150 299 104 245 L21 349 Q98 441 169.5 555.5 Q241 670 288 804 L404 760 ZM883 224 Q860 245 833 268 Q806 291 777.5 313.5 Q749 336 720.5 356.5 Q692 377 667 394 L667 -92 L537 -92 L537 792 L667 787 L667 452 L706 517 Q735 500 768 479 Q801 458 834 435 Q867 412 897.5 388.5 Q928 365 952 344 L883 224 Z" /><glyph glyph-name="uni4EC7" unicode="&#x4ec7;" d="M947 158 Q946 147 944.5 128.5 Q943 110 941 89.5 Q939 69 937 50.5 Q935 32 934 21 Q930 -9 923.5 -28.5 Q917 -48 904.5 -59.5 Q892 -71 872 -76.5 Q852 -82 822 -83 Q791 -84 760 -83 Q709 -81 681.5 -58.5 Q654 -36 654 22 L654 496 L556 496 Q555 416 551 352 Q547 288 538 234.5 Q529 181 515 136.5 Q501 92 479 51.5 Q457 11 427 -27.5 Q397 -66 357 -107 L275 -34 L275 -95 L153 -95 L153 328 Q142 309 129.5 291 Q117 273 104 256 L25 368 Q52 404 81.5 454.5 Q111 505 138 562.5 Q165 620 187.5 681 Q210 742 225 799 L343 765 Q328 713 311 664.5 Q294 616 275 568 L275 -4 Q327 49 358 95.5 Q389 142 406.5 197 Q424 252 430.5 323 Q437 394 439 496 L326 496 L326 617 L441 617 Q442 668 442.5 716 Q443 764 443 793 L561 788 Q560 760 559.5 713 Q559 666 558 617 L774 617 L774 62 Q774 48 778 43 Q782 38 794 38 L810 38 Q824 38 828 43.5 Q832 49 834 65 Q836 88 840 125 Q844 162 846 197 L947 158 Z" /><glyph glyph-name="uni4ECA" unicode="&#x4eca;" d="M541 826 Q609 714 710.5 623 Q812 532 957 459 L889 343 Q829 373 769.5 413.5 Q710 454 657 498.5 Q604 543 561 588 Q518 633 492 672 Q465 635 426 594 Q387 553 337.5 511 Q288 469 230 428.5 Q172 388 109 352 L28 459 Q167 531 272.5 624.5 Q378 718 446 826 L541 826 ZM523 336 L816 336 L816 213 Q792 184 760 143.5 Q728 103 693 58.5 Q658 14 621.5 -30 Q585 -74 552 -110 L434 -38 Q465 -9 495.5 24 Q526 57 554.5 90 Q583 123 608.5 154 Q634 185 654 210 L146 210 L146 336 L493 336 Q481 355 465 377 Q449 399 432 421 Q415 443 398.5 462 Q382 481 369 495 L458 565 Q473 551 491 530 Q509 509 527.5 486 Q546 463 563 439.5 Q580 416 593 397 L523 336 Z" /><glyph glyph-name="uni4ECB" unicode="&#x4ecb;" d="M883 305 Q837 328 793.5 355.5 Q750 383 710 415 L710 -92 L580 -92 L580 429 L698 424 Q633 477 580.5 534.5 Q528 592 492 652 Q448 589 396.5 534 Q345 479 281 428 L402 423 L402 312 Q402 232 393.5 173 Q385 114 361 66 Q337 18 293.5 -23.5 Q250 -65 181 -110 L90 -8 Q145 33 180.5 63.5 Q216 94 236 126.5 Q256 159 263.5 199.5 Q271 240 271 301 L271 419 Q200 363 113 313 L23 425 Q172 503 278 597.5 Q384 692 444 815 L538 815 Q608 683 711 591.5 Q814 500 953 430 L883 305 Z" /><glyph glyph-name="uni4ECD" unicode="&#x4ecd;" d="M912 464 L891 53 Q889 15 881.5 -9 Q874 -33 857.5 -48 Q841 -63 813 -71 Q785 -79 742 -83 L659 -92 L620 29 L704 37 Q726 39 739 43 Q752 47 759 54.5 Q766 62 768.5 74.5 Q771 87 772 107 Q773 135 775.5 173.5 Q778 212 780 248 Q782 284 783.5 312 Q785 340 785 346 L665 346 L665 463 L719 633 L555 633 Q555 525 552.5 441.5 Q550 358 542.5 291.5 Q535 225 522.5 173 Q510 121 490 75.5 Q470 30 441.5 -12.5 Q413 -55 375 -101 L280 -19 L280 -97 L159 -97 L159 330 Q147 313 134 295.5 Q121 278 107 261 L20 370 Q47 405 78.5 454 Q110 503 140.5 560 Q171 617 197.5 677.5 Q224 738 242 796 L358 755 Q339 699 320 647.5 Q301 596 280 548 L280 -15 Q315 28 340.5 64.5 Q366 101 383.5 139 Q401 177 411.5 221 Q422 265 428 322.5 Q434 380 436 455.5 Q438 531 438 633 L376 633 L376 754 L846 754 L846 638 L789 464 L912 464 Z" /><glyph glyph-name="uni4ECE" unicode="&#x4ece;" d="M850 -109 Q776 -24 724 65 Q672 154 640 262 Q608 165 552 73.5 Q496 -18 405 -116 L305 -21 Q386 64 437.5 137.5 Q489 211 519 289 Q549 367 561.5 456.5 Q574 546 576 663 Q576 670 576.5 687.5 Q577 705 577 724.5 Q577 744 577 762 Q577 780 577 790 L707 784 Q707 775 706.5 758 Q706 741 705 722.5 Q704 704 703 687.5 Q702 671 702 663 Q700 635 698.5 608.5 Q697 582 695 556 Q704 462 724 382 Q744 302 775 232 Q806 162 849 100.5 Q892 39 947 -18 L850 -109 ZM422 195 Q405 226 381.5 264.5 Q358 303 332 342 Q320 281 304 227.5 Q288 174 265.5 122.5 Q243 71 213.5 19.5 Q184 -32 145 -88 L32 -11 Q90 72 128.5 141 Q167 210 190 283 Q213 356 224 442.5 Q235 529 238 647 Q238 662 238.5 682 Q239 702 239.5 722.5 Q240 743 240.5 760.5 Q241 778 241 788 L369 783 Q369 774 368.5 753 Q368 732 367.5 709.5 Q367 687 366 668 Q365 649 365 643 Q363 609 360.5 577.5 Q358 546 355 517 Q373 493 395 461.5 Q417 430 439 397 Q461 364 480.5 333.5 Q500 303 513 280 L422 195 Z" /><glyph glyph-name="uni4ED1" unicode="&#x4ed1;" d="M486 664 Q445 613 389.5 559.5 Q334 506 266 454 L346 451 L346 313 Q391 329 437.5 347.5 Q484 366 529 386 Q574 406 615 426.5 Q656 447 690 467 L743 338 Q711 319 661 296 Q611 273 555 249.5 Q499 226 443.5 205 Q388 184 346 170 L346 86 Q346 72 347 62.5 Q348 53 353 47 Q358 41 368 38.5 Q378 36 396 35 Q457 33 514.5 33 Q572 33 634 35 Q658 36 672.5 39.5 Q687 43 696 50.5 Q705 58 710 70.5 Q715 83 719 103 Q727 143 727 187 L855 150 Q853 120 850.5 94 Q848 68 840 33 Q826 -32 788 -59.5 Q750 -87 674 -90 Q525 -96 376 -90 Q334 -89 303.5 -80.5 Q273 -72 253 -53 Q233 -34 223.5 -2 Q214 30 214 80 L214 416 Q188 398 162 381.5 Q136 365 109 349 L24 460 Q91 494 153 535.5 Q215 577 268 623 Q321 669 364 717.5 Q407 766 437 814 L530 814 Q597 711 710 623 Q823 535 960 466 L887 346 Q827 376 767.5 416 Q708 456 655 498.5 Q602 541 558 584 Q514 627 486 664 Z" /><glyph glyph-name="uni4ED3" unicode="&#x4ed3;" d="M546 244 Q568 245 582 248 Q596 251 604.5 256.5 Q613 262 616 272 Q619 282 620 299 Q621 315 621 330 Q621 345 622 366 L327 366 L327 102 Q327 82 328 68.5 Q329 55 335 46 Q341 37 355 32 Q369 27 395 26 Q464 22 527.5 22 Q591 22 660 26 Q688 27 705.5 30 Q723 33 733 40 Q743 47 747.5 60 Q752 73 755 94 Q758 114 759.5 132 Q761 150 762 169 L882 129 Q881 111 877.5 85 Q874 59 871 39 Q865 -1 853.5 -26 Q842 -51 822 -66 Q802 -81 771 -87.5 Q740 -94 694 -95 Q609 -98 530.5 -98 Q452 -98 367 -95 Q323 -94 292 -86.5 Q261 -79 241.5 -61 Q222 -43 213 -12.5 Q204 18 204 67 L204 406 Q151 370 96 337 L31 463 Q169 535 274 628.5 Q379 722 440 823 L541 823 Q677 609 951 474 L887 344 Q851 364 815.5 386.5 Q780 409 745 433 Q745 410 744.5 383.5 Q744 357 743 333 Q742 309 741.5 291.5 Q741 274 741 268 Q740 227 731.5 200.5 Q723 174 704.5 158 Q686 142 657 134.5 Q628 127 585 124 L499 116 L467 240 L546 244 ZM673 487 Q615 533 568.5 579 Q522 625 492 664 Q457 620 411.5 576 Q366 532 312 487 L673 487 Z" /><glyph glyph-name="uni4ED4" unicode="&#x4ed4;" d="M368 771 Q348 714 327 659.5 Q306 605 282 553 L282 -95 L156 -95 L156 330 Q145 314 133.5 298.5 Q122 283 110 267 L18 362 Q52 403 86.5 455.5 Q121 508 151.5 565.5 Q182 623 207 682.5 Q232 742 248 798 L368 771 ZM934 285 L698 285 L698 29 Q698 -7 690.5 -29.5 Q683 -52 666.5 -65.5 Q650 -79 622.5 -85.5 Q595 -92 555 -95 L476 -102 L437 25 L515 31 Q533 32 543.5 34 Q554 36 559.5 40.5 Q565 45 566.5 53.5 Q568 62 568 77 L568 285 L315 285 L315 412 L568 412 L568 507 L719 629 L392 629 L392 754 L900 754 L900 630 L698 458 L698 412 L934 412 L934 285 Z" /><glyph glyph-name="uni4ED6" unicode="&#x4ed6;" d="M942 127 Q940 101 938 78.5 Q936 56 932 32 Q927 -1 918 -22.5 Q909 -44 891.5 -57 Q874 -70 847 -75.5 Q820 -81 779 -83 Q638 -89 497 -83 Q459 -82 431.5 -74.5 Q404 -67 386.5 -51 Q369 -35 360.5 -8.5 Q352 18 352 59 L352 366 L302 350 L278 454 L278 -95 L160 -95 L160 359 Q131 313 96 264 L21 363 Q46 395 77 445.5 Q108 496 138 555 Q168 614 194.5 677 Q221 740 237 796 L351 770 Q335 719 316.5 671.5 Q298 624 278 577 L278 468 L352 492 L352 692 L469 687 L469 529 L547 554 L547 790 L665 785 L665 592 L879 661 Q878 633 877 594.5 Q876 556 874.5 514.5 Q873 473 872 431.5 Q871 390 870.5 357 Q870 324 869 302 Q868 280 868 277 Q866 250 859.5 230.5 Q853 211 840 197.5 Q827 184 806 177 Q785 170 753 169 L711 167 L677 286 L711 288 Q734 290 742.5 300 Q751 310 753 330 Q754 355 755.5 383 Q757 411 758.5 435.5 Q760 460 760.5 477.5 Q761 495 761 500 L665 469 L665 99 L547 99 L547 430 L469 405 L469 96 Q469 76 470.5 64 Q472 52 478.5 45 Q485 38 498.5 35.5 Q512 33 536 32 Q632 28 729 32 Q757 33 773 36 Q789 39 797.5 45 Q806 51 809.5 62 Q813 73 817 91 Q820 106 822 126.5 Q824 147 824 165 L942 127 Z" /><glyph glyph-name="uni4ED7" unicode="&#x4ed7;" d="M367 774 Q353 720 333 667.5 Q313 615 290 564 L290 -100 L171 -100 L171 348 Q151 319 132 292 Q113 265 93 242 L22 349 Q52 390 85.5 444.5 Q119 499 150 559 Q181 619 207 680.5 Q233 742 247 798 L367 774 ZM895 -102 Q805 -66 733.5 -28 Q662 10 605 55 Q562 14 501.5 -25 Q441 -64 359 -106 L294 1 Q369 39 423 72 Q477 105 515 140 Q460 204 423.5 283.5 Q387 363 365 466 L473 496 Q490 413 517 348.5 Q544 284 586 231 Q614 286 623 355.5 Q632 425 633 520 L633 522 L328 522 L328 644 L634 644 L634 796 L757 791 Q757 769 757 729 Q757 689 756 644 L909 644 L909 522 L755 522 Q754 460 750.5 407 Q747 354 738.5 307.5 Q730 261 715.5 220.5 Q701 180 679 144 Q731 106 797 74.5 Q863 43 948 14 L895 -102 Z" /><glyph glyph-name="uni4ED8" unicode="&#x4ed8;" d="M363 768 Q347 716 330.5 668.5 Q314 621 295 576 L295 -95 L166 -95 L166 334 Q154 316 140.5 298 Q127 280 113 262 L18 359 Q47 394 79 443.5 Q111 493 140.5 551 Q170 609 195.5 671.5 Q221 734 236 794 L363 768 ZM925 496 L800 496 L800 74 Q800 26 795.5 -5 Q791 -36 775.5 -55 Q760 -74 731 -83 Q702 -92 653 -96 L574 -103 L534 21 L602 27 Q623 29 636 32.5 Q649 36 655.5 45 Q662 54 664.5 70.5 Q667 87 667 114 L667 496 L325 496 L325 624 L667 624 L667 793 L800 788 L800 624 L925 624 L925 496 ZM447 457 Q464 439 487 410 Q510 381 534 349 Q558 317 579 286 Q600 255 613 233 L515 148 Q503 170 482.5 202.5 Q462 235 439 268.5 Q416 302 392 332.5 Q368 363 348 383 L447 457 Z" /><glyph glyph-name="uni4ED9" unicode="&#x4ed9;" d="M336 766 Q308 667 267 576 L267 -93 L147 -93 L147 354 Q133 333 119.5 312.5 Q106 292 92 272 L15 382 Q43 420 73 469.5 Q103 519 131 574 Q159 629 182.5 687 Q206 745 220 799 L336 766 ZM895 624 L895 -67 L340 -67 L340 628 L459 623 L459 57 L547 57 L547 792 L670 787 L670 57 L774 57 L774 629 L895 624 Z" /><glyph glyph-name="uni4EE3" unicode="&#x4ee3;" d="M383 762 Q366 710 346 661 Q326 612 304 564 L304 -93 L181 -93 L181 344 Q144 286 104 235 L24 344 Q58 382 93 436 Q128 490 160 551 Q192 612 219.5 676 Q247 740 265 798 L383 762 ZM927 123 Q924 107 921 95 Q918 83 915 71.5 Q912 60 908 48.5 Q904 37 899 22 Q877 -46 843.5 -72.5 Q810 -99 763 -99 Q725 -99 688 -76 Q651 -53 611 6 Q570 65 543 159.5 Q516 254 499 392 L332 376 L323 499 L486 514 L480 601 Q479 614 478 638.5 Q477 663 475.5 690.5 Q474 718 472.5 744.5 Q471 771 471 789 L594 785 Q594 775 595 752.5 Q596 730 597 703 Q598 676 599.5 648 Q601 620 602 598 Q603 579 604 561 Q605 543 607 526 L910 554 L919 432 L620 403 Q637 276 662.5 195.5 Q688 115 714 79 Q729 57 741.5 47 Q754 37 770 37 Q783 37 792 49 Q801 61 811 98 Q817 121 821 141 Q825 161 828 181 L927 123 ZM786 549 Q774 563 754.5 584 Q735 605 713 626 Q691 647 669 666 Q647 685 631 695 L700 778 Q716 768 738 751 Q760 734 782.5 715.5 Q805 697 825 678 Q845 659 857 646 L786 549 Z" /><glyph glyph-name="uni4EE4" unicode="&#x4ee4;" d="M888 340 Q873 347 857.5 355 Q842 363 827 371 L827 240 Q782 198 728 148 Q674 98 621 53 Q674 25 712 3 L650 -121 Q609 -95 551 -63 Q493 -31 431.5 0 Q370 31 311 58 Q252 85 210 101 L268 219 Q313 201 373 174 Q433 147 496 116 Q516 132 537 150 Q558 168 578.5 184.5 Q599 201 617 216.5 Q635 232 650 244 L145 244 L145 373 Q135 367 125 361.5 Q115 356 105 350 L21 466 Q154 531 263.5 623 Q373 715 445 819 L539 819 Q604 716 707 627.5 Q810 539 955 468 L888 340 ZM822 374 Q771 403 721.5 439.5 Q672 476 628.5 515 Q585 554 549.5 593 Q514 632 492 665 Q467 632 431.5 595 Q396 558 351.5 520.5 Q307 483 255 445.5 Q203 408 146 374 L489 374 Q477 390 463.5 408.5 Q450 427 435.5 444.5 Q421 462 407 478 Q393 494 381 506 L474 587 Q487 573 504.5 554 Q522 535 539.5 514.5 Q557 494 573.5 473 Q590 452 602 435 L528 374 L822 374 Z" /><glyph glyph-name="uni4EE5" unicode="&#x4ee5;" d="M468 469 Q457 495 439.5 530 Q422 565 401.5 601.5 Q381 638 359.5 672.5 Q338 707 320 733 L417 796 Q434 772 456 738 Q478 704 499 668.5 Q520 633 538.5 599.5 Q557 566 567 543 L468 469 ZM853 -80 Q842 -65 824 -42.5 Q806 -20 783.5 6.5 Q761 33 736.5 60 Q712 87 690 111 Q647 54 580.5 2.5 Q514 -49 415 -105 L329 -2 Q430 51 495 105 Q560 159 599.5 222 Q639 285 658 360.5 Q677 436 686 533 Q688 553 689 586 Q690 619 691 653.5 Q692 688 692 719 Q692 750 692 766 L812 761 Q812 746 812.5 718.5 Q813 691 813 658 Q813 625 812 589.5 Q811 554 808 524 Q802 433 790.5 362.5 Q779 292 757 232 Q781 207 807 179 Q833 151 858 123 Q883 95 904.5 69.5 Q926 44 943 24 L853 -80 ZM511 248 Q495 235 462 207.5 Q429 180 389 145.5 Q349 111 306.5 75 Q264 39 228 9 Q211 -5 193 -21 Q175 -37 160 -52 L81 51 Q100 67 103.5 81 Q107 95 107 114 L107 744 L235 739 L235 174 Q256 192 283 215.5 Q310 239 337.5 264 Q365 289 391.5 312.5 Q418 336 438 354 L511 248 Z" /><glyph glyph-name="uni4EEA" unicode="&#x4eea;" d="M592 523 Q584 545 571 574.5 Q558 604 544 634.5 Q530 665 515.5 693.5 Q501 722 489 742 L596 800 Q608 781 623 753 Q638 725 653 695.5 Q668 666 681 638 Q694 610 702 590 L592 523 ZM364 765 Q347 705 328 651 Q309 597 286 546 L286 -96 L162 -96 L162 327 Q133 285 101 245 L11 363 Q46 403 80 454 Q114 505 144 561.5 Q174 618 198.5 678.5 Q223 739 240 798 L364 765 ZM710 188 Q808 92 953 10 L886 -105 Q812 -63 747.5 -15.5 Q683 32 627 89 Q576 38 511 -8 Q446 -54 361 -104 L293 7 Q374 54 435 97.5 Q496 141 543 186 Q470 283 418 400.5 Q366 518 335 665 L447 704 Q472 578 515 474.5 Q558 371 626 282 Q654 323 675 369 Q696 415 712.5 469 Q729 523 742 586.5 Q755 650 766 725 L887 695 Q870 608 852 535 Q834 462 813 400 Q792 338 767 286 Q742 234 710 188 Z" /><glyph glyph-name="uni4EEC" unicode="&#x4eec;" d="M436 809 Q451 795 468 777 Q485 759 501.5 739.5 Q518 720 532.5 701 Q547 682 558 667 L476 579 Q468 594 453.5 614.5 Q439 635 421.5 656.5 Q404 678 386.5 698.5 Q369 719 355 733 L436 809 ZM334 770 Q320 723 304 676.5 Q288 630 268 584 L268 -98 L151 -98 L151 356 Q123 310 96 271 L17 371 Q46 411 76.5 463.5 Q107 516 134.5 573 Q162 630 185 689 Q208 748 222 802 L334 770 ZM899 754 L899 56 Q899 11 892.5 -16 Q886 -43 871 -58 Q856 -73 831 -80 Q806 -87 769 -91 L694 -99 L653 19 L719 26 Q753 30 766.5 41.5 Q780 53 780 90 L780 634 L573 634 L573 754 L899 754 ZM336 603 L458 598 L458 -92 L336 -92 L336 603 Z" /><glyph glyph-name="uni4EF0" unicode="&#x4ef0;" d="M334 773 Q321 721 305 671 Q289 621 270 573 L270 -94 L151 -94 L151 340 Q137 317 121.5 295.5 Q106 274 89 253 L22 374 Q50 413 79 461.5 Q108 510 134.5 566.5 Q161 623 183.5 684.5 Q206 746 221 810 L334 773 ZM895 747 L895 171 Q895 137 889 115 Q883 93 871 79 Q859 65 841.5 57.5 Q824 50 802 47 L752 40 L713 165 L747 172 Q766 176 771 188.5 Q776 201 776 227 L776 625 L689 625 L689 -95 L570 -95 L570 683 Q508 648 453 623 L453 201 Q462 205 473.5 211.5 Q485 218 497 224 Q509 230 519.5 236 Q530 242 538 245 L547 108 Q536 102 517 92 Q498 82 476 71.5 Q454 61 430.5 49.5 Q407 38 387 29 L353 13 L313 142 Q327 156 329 165.5 Q331 175 331 182 L331 721 Q380 735 432.5 757.5 Q485 780 525 800 L570 689 L570 747 L895 747 Z" /><glyph glyph-name="uni4EF2" unicode="&#x4ef2;" d="M348 768 Q331 714 312.5 665 Q294 616 273 570 L273 -93 L155 -93 L155 356 Q139 332 122.5 309 Q106 286 89 263 L16 374 Q45 411 76 460.5 Q107 510 136 566.5 Q165 623 190 684.5 Q215 746 232 808 L348 768 ZM896 166 L674 166 L674 -95 L552 -95 L552 166 L331 166 L331 643 L552 643 L552 798 L674 793 L674 643 L896 643 L896 166 ZM552 294 L552 515 L455 515 L455 294 L552 294 ZM769 515 L674 515 L674 294 L769 294 L769 515 Z" /><glyph glyph-name="uni4EF6" unicode="&#x4ef6;" d="M935 189 L698 189 L698 -92 L573 -92 L573 189 L310 189 L310 310 L573 310 L573 493 L470 493 Q457 451 443 412.5 Q429 374 415 339 L290 385 Q308 425 325 470.5 Q342 516 357 563 Q372 610 385 656.5 Q398 703 408 747 L528 717 Q518 667 504 614 L573 614 L573 796 L698 791 L698 614 L890 614 L890 493 L698 493 L698 310 L935 310 L935 189 ZM346 764 Q319 667 283 577 L283 -90 L159 -90 L159 341 Q142 315 124.5 290.5 Q107 266 88 242 L18 360 Q42 396 71.5 448 Q101 500 129 558.5 Q157 617 181 678 Q205 739 220 794 L346 764 Z" /><glyph glyph-name="uni4EF7" unicode="&#x4ef7;" d="M649 815 Q672 759 705 707 Q738 655 779 609 Q820 563 867 525 Q914 487 964 459 L892 350 Q785 423 716 497 Q647 571 605 661 Q573 599 533 542 Q493 485 431 426 L541 421 L541 303 Q541 225 534.5 169 Q528 113 510.5 66.5 Q493 20 462.5 -22 Q432 -64 384 -113 L287 -34 Q332 3 358.5 36 Q385 69 399.5 106.5 Q414 144 418 190.5 Q422 237 422 301 L422 417 Q405 400 385 383.5 Q365 367 343 350 L270 448 L270 -94 L153 -94 L153 341 Q139 320 125 300 Q111 280 96 260 L16 365 Q45 401 77.5 450.5 Q110 500 140.5 557.5 Q171 615 196.5 678 Q222 741 237 803 L353 768 Q335 709 314 655 Q293 601 270 550 L270 454 Q478 606 555 815 L649 815 ZM666 428 L784 423 L784 -86 L666 -86 L666 428 Z" /><glyph glyph-name="uni4EFB" unicode="&#x4efb;" d="M360 763 Q329 664 288 576 L288 -85 L161 -85 L161 352 Q145 329 128.5 306 Q112 283 94 260 L18 369 Q45 404 76.5 453 Q108 502 139 559 Q170 616 197 677 Q224 738 242 797 L360 763 ZM681 298 L681 66 L894 66 L894 -60 L337 -60 L337 66 L553 66 L553 298 L313 298 L313 426 L553 426 L553 603 Q502 598 453.5 595 Q405 592 359 590 L346 716 Q406 717 473 722 Q540 727 607 735.5 Q674 744 738.5 756 Q803 768 858 782 L885 656 Q793 633 681 618 L681 426 L934 426 L934 298 L681 298 Z" /><glyph glyph-name="uni4EFD" unicode="&#x4efd;" d="M867 337 L832 374 Q830 337 827.5 288.5 Q825 240 822.5 193.5 Q820 147 818 110 Q816 73 815 59 Q812 13 801.5 -13.5 Q791 -40 772 -54.5 Q753 -69 725 -75.5 Q697 -82 660 -86 L601 -93 L566 31 L625 37 Q648 39 661 43.5 Q674 48 680.5 57 Q687 66 689 80 Q691 94 693 117 Q694 127 696 155.5 Q698 184 700.5 215.5 Q703 247 705 275 Q707 303 707 312 L569 312 Q563 246 551 190.5 Q539 135 516 85 Q493 35 457 -11 Q421 -57 367 -104 L280 -11 Q323 23 353 54.5 Q383 86 403 122.5 Q423 159 434 204.5 Q445 250 449 312 L368 312 L368 368 L340 337 L275 402 L275 -93 L156 -93 L156 338 Q142 317 126.5 295.5 Q111 274 94 253 L24 359 Q56 398 86.5 448.5 Q117 499 144 556 Q171 613 193.5 674 Q216 735 232 794 L342 757 Q327 704 310.5 655.5 Q294 607 275 561 L275 438 Q343 510 392 595.5 Q441 681 471 776 L587 736 Q559 654 516.5 578 Q474 502 423 436 L777 436 Q746 473 721 509.5 Q696 546 675 586 Q654 626 636 671.5 Q618 717 603 771 L719 802 Q738 739 760.5 688 Q783 637 811 593 Q839 549 874 509 Q909 469 952 429 L867 337 Z" /><glyph glyph-name="uni4EFF" unicode="&#x4eff;" d="M562 548 L559 450 L859 450 Q859 443 857.5 416.5 Q856 390 854.5 353 Q853 316 851 272.5 Q849 229 847 188.5 Q845 148 843 114.5 Q841 81 840 64 Q837 19 828 -8 Q819 -35 801 -50.5 Q783 -66 753.5 -73 Q724 -80 679 -84 L609 -91 L571 35 L631 41 Q656 43 672 46.5 Q688 50 698 56.5 Q708 63 713 74.5 Q718 86 720 104 Q721 114 723 145.5 Q725 177 727 212.5 Q729 248 730 280 Q731 312 731 324 L552 324 Q545 251 532 192 Q519 133 496.5 81.5 Q474 30 441 -17 Q408 -64 361 -113 L280 -44 L280 -95 L158 -95 L158 339 Q144 319 130.5 300 Q117 281 102 262 L24 359 Q55 399 84.5 450 Q114 501 141 557.5 Q168 614 191 674.5 Q214 735 232 795 L360 761 Q352 738 345 717 Q338 696 330 675 L564 675 L538 786 L671 792 L696 675 L925 675 L925 548 L562 548 ZM435 466 Q436 472 436.5 496.5 Q437 521 438 548 L325 548 L325 663 Q314 634 303 607.5 Q292 581 280 555 L280 -9 Q329 41 357.5 85.5 Q386 130 402 182.5 Q418 235 424.5 302.5 Q431 370 435 466 Z" /><glyph glyph-name="uni4F01" unicode="&#x4f01;" d="M493 662 Q467 630 423 589.5 Q379 549 325 507 Q271 465 211 423 Q151 381 92 346 L20 460 Q87 496 150.5 538.5 Q214 581 269 627 Q324 673 369 721 Q414 769 446 816 L539 816 Q608 716 714.5 626.5 Q821 537 958 462 L890 342 Q833 372 774 413 Q715 454 661.5 498 Q608 542 564 585 Q520 628 493 662 ZM570 52 L904 52 L904 -72 L65 -72 L65 52 L180 52 L180 381 L303 376 L303 52 L444 52 L444 530 L570 525 L570 346 L816 346 L816 220 L570 220 L570 52 Z" /><glyph glyph-name="uni4F0A" unicode="&#x4f0a;" d="M340 775 Q325 718 307 665.5 Q289 613 269 563 L269 -100 L149 -100 L149 338 Q135 318 120.5 298.5 Q106 279 90 259 L11 362 Q38 398 68 450 Q98 502 127.5 561.5 Q157 621 182 683.5 Q207 746 223 803 L340 775 ZM935 410 L863 410 L863 168 L574 168 Q564 123 548 87 Q532 51 509 18.5 Q486 -14 454 -45 Q422 -76 381 -111 L291 -10 Q324 13 349 33.5 Q374 54 393.5 75 Q413 96 427 118.5 Q441 141 451 168 L322 168 L322 292 L474 292 Q476 318 477 347 Q478 376 479 410 L305 410 L305 535 L479 535 L479 638 L357 638 L357 760 L863 760 L863 535 L935 535 L935 410 ZM596 535 L746 535 L746 638 L596 638 L596 535 ZM746 410 L596 410 Q595 377 594 347.5 Q593 318 591 292 L746 292 L746 410 Z" /><glyph glyph-name="uni4F0D" unicode="&#x4f0d;" d="M349 777 Q332 718 314 665 Q296 612 275 562 L275 -93 L154 -93 L154 341 Q141 322 127 303 Q113 284 98 265 L17 368 Q42 404 72.5 456 Q103 508 133.5 566.5 Q164 625 190 687 Q216 749 232 805 L349 777 ZM936 59 L936 -60 L305 -60 L305 59 L403 59 L438 334 L350 334 L350 455 L454 455 L476 625 L345 625 L345 746 L898 746 L898 625 L605 625 L582 455 L862 455 L852 59 L936 59 ZM530 59 L726 59 L732 334 L566 334 L530 59 Z" /><glyph glyph-name="uni4F0F" unicode="&#x4f0f;" d="M648 429 Q674 294 749 189 Q824 84 949 -1 L854 -104 Q769 -44 704.5 38 Q640 120 599 214 Q564 130 505 51.5 Q446 -27 355 -109 L288 -32 L288 -94 L165 -94 L165 336 Q153 318 140.5 299.5 Q128 281 114 262 L27 369 Q53 402 83.5 452.5 Q114 503 144 562 Q174 621 200 683.5 Q226 746 243 804 L366 760 Q348 703 329 652.5 Q310 602 288 554 L288 11 Q349 63 392 112 Q435 161 463 211 Q491 261 505.5 315 Q520 369 525 431 L324 431 L324 555 L528 555 L528 794 L652 790 L652 555 L794 555 Q783 570 766 591 Q749 612 730 633 Q711 654 692.5 672 Q674 690 660 701 L741 779 Q756 768 774 751 Q792 734 811 714.5 Q830 695 848 675 Q866 655 881 637 L810 555 L906 555 L906 431 L648 431 L648 429 Z" /><glyph glyph-name="uni4F10" unicode="&#x4f10;" d="M929 121 Q924 74 908 14 Q899 -20 885 -43.5 Q871 -67 854 -81.5 Q837 -96 818 -102.5 Q799 -109 780 -109 Q761 -109 738.5 -103 Q716 -97 692 -82.5 Q668 -68 644 -44 Q620 -20 598 16 Q580 46 565 79 Q472 16 359 -36 L299 84 Q427 139 521 202 Q495 297 479 428 L320 408 L307 530 L466 550 Q464 563 463 575.5 Q462 588 461 602 Q459 622 457.5 649 Q456 676 454 702.5 Q452 729 450.5 752.5 Q449 776 448 788 L569 787 Q570 770 572 719 Q574 668 581 587 Q582 581 582 575.5 Q582 570 583 564 L742 584 Q711 619 671 651 Q631 683 597 704 L663 794 Q683 783 704.5 767.5 Q726 752 748 734 Q770 716 790.5 697 Q811 678 829 660 L775 588 L901 604 L915 482 L784 466 L879 389 Q831 323 778.5 264.5 Q726 206 665 155 Q676 129 688 107 Q700 85 713 66 Q727 42 746.5 33 Q766 24 778 24 Q792 24 798 37.5 Q804 51 814 88 Q820 111 823 131.5 Q826 152 829 175 L929 121 ZM378 760 Q360 704 339 654 Q318 604 294 556 L294 -96 L172 -96 L172 356 Q155 331 136 307 Q117 283 97 259 L26 357 Q54 390 87.5 440 Q121 490 153 548.5 Q185 607 212.5 670 Q240 733 256 793 L378 760 ZM597 442 Q604 396 611 356 Q618 316 626 281 Q674 323 712.5 368.5 Q751 414 784 466 L597 442 Z" /><glyph glyph-name="uni4F11" unicode="&#x4f11;" d="M877 3 Q809 78 753 154.5 Q697 231 654 314 L654 -92 L535 -92 L535 301 Q497 225 447.5 153.5 Q398 82 329 0 L276 59 L276 -95 L157 -95 L157 347 Q126 301 93 259 L9 361 Q36 395 68.5 446 Q101 497 132.5 555.5 Q164 614 191 676 Q218 738 235 795 L353 766 Q336 712 317 661.5 Q298 611 276 563 L276 139 Q356 224 415.5 312.5 Q475 401 516 506 L327 506 L327 639 L535 639 L535 795 L654 790 L654 639 L897 639 L897 506 L676 506 Q726 391 799.5 292.5 Q873 194 960 113 L877 3 Z" /><glyph glyph-name="uni4F17" unicode="&#x4f17;" d="M691 362 Q714 250 779 161 Q844 72 951 -6 L866 -106 Q793 -51 735.5 15 Q678 81 640 159 Q608 84 555 18 Q502 -48 426 -117 L328 -19 Q392 31 436 78.5 Q480 126 508.5 175 Q537 224 551 277.5 Q565 331 570 393 Q571 403 571.5 415.5 Q572 428 572.5 441 Q573 454 573.5 465 Q574 476 574 484 L672 480 Q615 525 571 570 Q527 615 494 655 Q462 615 416.5 571 Q371 527 311 482 L378 479 Q377 472 376.5 460.5 Q376 449 375.5 437 Q375 425 374.5 413 Q374 401 373 393 L370 358 Q386 341 405.5 320.5 Q425 300 443.5 279 Q462 258 479 238 Q496 218 508 203 L424 108 Q408 131 386.5 159.5 Q365 188 342 216 Q316 131 269.5 55 Q223 -21 147 -103 L43 -14 Q96 38 133.5 84.5 Q171 131 195.5 179 Q220 227 232.5 280.5 Q245 334 248 400 Q248 405 248.5 415.5 Q249 426 251 438 Q219 417 185.5 396 Q152 375 115 355 L34 468 Q176 537 281.5 623 Q387 709 447 809 L541 809 Q604 705 705 619.5 Q806 534 942 468 L877 352 Q826 375 782 403 Q738 431 698 460 Q696 444 695.5 425 Q695 406 693 389 Q692 382 692 375.5 Q692 369 691 362 Z" /><glyph glyph-name="uni4F18" unicode="&#x4f18;" d="M940 153 Q939 139 937 121.5 Q935 104 933.5 87 Q932 70 930.5 56 Q929 42 928 36 Q923 -2 916 -24 Q909 -46 894.5 -58 Q880 -70 856.5 -75 Q833 -80 795 -83 Q777 -85 754 -85 Q731 -85 714 -83 Q686 -81 664 -74.5 Q642 -68 626.5 -53.5 Q611 -39 603 -15.5 Q595 8 595 45 L595 391 Q587 317 571 253.5 Q555 190 527 131 Q499 72 458 15 Q417 -42 359 -103 L280 -39 L280 -99 L159 -99 L159 354 Q147 336 133.5 318.5 Q120 301 106 283 L28 382 Q57 417 88.5 467 Q120 517 148.5 574 Q177 631 199.5 691 Q222 751 234 805 L355 770 Q338 714 319 664.5 Q300 615 280 568 L280 6 Q332 60 367 110 Q402 160 424 213.5 Q446 267 458 328 Q470 389 476 465 L314 465 L314 588 L483 588 Q483 609 483 638 Q483 667 483 696 Q483 725 483 750.5 Q483 776 483 791 L609 786 L605 588 L756 588 Q744 603 730 620.5 Q716 638 702 654.5 Q688 671 674 686 Q660 701 649 711 L731 784 Q745 772 762.5 755 Q780 738 798 719.5 Q816 701 832 682 Q848 663 859 647 L804 588 L903 588 L903 465 L601 465 Q600 459 600 453 Q600 447 599 441 L717 436 L717 78 Q717 65 718.5 57.5 Q720 50 724 45.5 Q728 41 735 39 Q742 37 754 36 Q767 34 781 36 Q800 38 806 44.5 Q812 51 815 77 Q818 101 820.5 130 Q823 159 825 188 L940 153 Z" /><glyph glyph-name="uni4F19" unicode="&#x4f19;" d="M685 374 Q700 313 725 262 Q750 211 784 166.5 Q818 122 861 82.5 Q904 43 955 5 L867 -110 Q782 -37 721 41 Q660 119 622 213 Q581 116 515 35.5 Q449 -45 368 -112 L278 -10 L278 -103 L161 -103 L161 353 Q145 329 128.5 305 Q112 281 94 258 L10 356 Q42 394 75 446.5 Q108 499 138 557.5 Q168 616 192 677 Q216 738 230 794 L347 761 Q332 709 315 661.5 Q298 614 278 569 L278 -7 Q337 36 380.5 78.5 Q424 121 454.5 166.5 Q485 212 504 262 Q523 312 533 371 L452 314 Q438 348 421 385.5 Q404 423 385.5 460 Q367 497 348 532 Q329 567 311 596 L409 657 Q425 631 443 600.5 Q461 570 478 538 Q495 506 510.5 474.5 Q526 443 539 415 Q543 450 544.5 488.5 Q546 527 546 570 L545 800 L673 796 L673 468 Q673 460 673 453 Q673 446 672 438 Q674 427 676 417.5 Q678 408 680 398 Q697 424 715.5 456.5 Q734 489 751 524 Q768 559 783 594 Q798 629 809 660 L920 606 Q907 573 889.5 534.5 Q872 496 852.5 458 Q833 420 813 385 Q793 350 774 323 L685 374 Z" /><glyph glyph-name="uni4F1A" unicode="&#x4f1a;" d="M542 818 Q581 758 625.5 712 Q670 666 721 628.5 Q772 591 829.5 560 Q887 529 952 499 L891 382 Q841 408 797 433.5 Q753 459 714 485 L714 402 L269 402 L269 476 Q197 429 106 382 L33 494 Q190 561 289.5 644 Q389 727 449 818 L542 818 ZM673 514 Q564 594 496 688 Q460 637 417.5 594.5 Q375 552 323 514 L673 514 ZM110 323 L881 323 L881 206 L503 206 Q483 180 463 156 Q443 132 424.5 111.5 Q406 91 389 75 Q372 59 359 50 Q421 52 492.5 56.5 Q564 61 633 67 Q617 88 603 106 Q589 124 576 140 L673 205 Q691 184 715 155 Q739 126 763.5 93.5 Q788 61 812.5 26.5 Q837 -8 857 -40 L758 -116 Q747 -97 734.5 -78 Q722 -59 709 -39 Q655 -44 590 -48.5 Q525 -53 459.5 -57 Q394 -61 333 -65 Q272 -69 227 -73 Q215 -75 204 -76.5 Q193 -78 183 -80 L156 35 Q179 45 189 51 Q199 57 214 68 Q243 90 279 126.5 Q315 163 348 206 L110 206 L110 323 Z" /><glyph glyph-name="uni4F1E" unicode="&#x4f1e;" d="M493 677 Q432 614 334 537 Q236 460 93 383 L19 497 Q76 523 138.5 560.5 Q201 598 258.5 641 Q316 684 365 730 Q414 776 446 820 L539 820 Q611 729 718.5 649 Q826 569 965 500 L900 381 Q841 409 780.5 447.5 Q720 486 665.5 526.5 Q611 567 566 606.5 Q521 646 493 677 ZM555 206 L913 206 L913 82 L555 82 L555 -92 L429 -92 L429 82 L72 82 L72 206 L429 206 L429 574 L555 569 L555 206 ZM266 471 Q278 460 296.5 438.5 Q315 417 334.5 392.5 Q354 368 372 344 Q390 320 400 304 L303 213 Q290 236 273.5 261 Q257 286 239 310 Q221 334 202.5 355.5 Q184 377 169 393 L266 471 ZM579 301 Q595 318 613.5 339.5 Q632 361 649.5 383.5 Q667 406 683.5 428.5 Q700 451 712 471 L814 392 Q801 369 784 344.5 Q767 320 748.5 296 Q730 272 711 250 Q692 228 674 212 L579 301 Z" /><glyph glyph-name="uni4F1F" unicode="&#x4f1f;" d="M914 325 Q912 288 910 254 Q908 225 907 194.5 Q906 164 904 146 Q900 98 892 69 Q884 40 870.5 23.5 Q857 7 838.5 0 Q820 -7 795 -11 Q773 -15 756 -16.5 Q739 -18 727 -20 Q713 -22 701 -23 L664 99 Q676 100 687 101 Q697 102 708 102.5 Q719 103 729 105 Q742 106 750.5 109.5 Q759 113 764 120 Q769 127 772 139.5 Q775 152 777 172 L780 205 L632 205 L633 -98 L504 -98 L504 205 L314 205 L314 325 L504 325 L503 394 L357 394 L357 509 L503 509 L503 574 L335 574 L335 664 Q314 608 287 544 L287 -96 L166 -96 L166 320 Q155 304 144 289 Q133 274 121 259 L28 353 Q74 412 107.5 467.5 Q141 523 166.5 577.5 Q192 632 212.5 686.5 Q233 741 254 798 L374 774 Q368 757 361 737.5 Q354 718 346 695 L503 695 L503 797 L631 792 L631 695 L881 695 L881 574 L631 574 L632 509 L856 509 L856 394 L632 394 L632 325 L914 325 Z" /><glyph glyph-name="uni4F20" unicode="&#x4f20;" d="M553 386 Q543 355 532 328 L867 328 L867 217 Q851 199 833.5 177 Q816 155 799 132.5 Q782 110 765.5 87.5 Q749 65 736 46 Q769 30 799 15.5 Q829 1 853 -12 L807 -119 Q766 -98 711.5 -70.5 Q657 -43 598.5 -15.5 Q540 12 482 37.5 Q424 63 376 81 L420 178 Q462 163 516.5 141 Q571 119 629 94 Q650 122 675.5 154.5 Q701 187 724 215 L401 215 L401 320 Q413 348 425 386 L307 386 L307 499 L459 499 L477 569 L357 569 L357 684 L502 684 Q508 715 513.5 744 Q519 773 523 800 L645 789 Q641 764 636.5 737.5 Q632 711 627 684 L884 684 L884 569 L602 569 Q598 551 594 533.5 Q590 516 585 499 L927 499 L927 386 L553 386 ZM358 771 Q340 712 321 661.5 Q302 611 280 563 L280 -96 L163 -96 L163 358 Q150 339 136 320.5 Q122 302 107 282 L23 372 Q97 468 149 572 Q201 676 240 795 L358 771 Z" /><glyph glyph-name="uni4F24" unicode="&#x4f24;" d="M493 570 Q449 494 399 432 L489 432 Q491 462 491.5 493 Q492 524 493 541 L617 536 L612 432 L892 432 Q892 424 890.5 396 Q889 368 887 329.5 Q885 291 882.5 247 Q880 203 878 163 Q876 123 874.5 91.5 Q873 60 872 48 Q870 12 861 -11.5 Q852 -35 834 -50 Q816 -65 787 -73 Q758 -81 716 -85 L626 -93 L586 24 L682 33 Q701 35 713.5 38.5 Q726 42 733.5 49.5 Q741 57 745 69.5 Q749 82 751 102 Q752 114 754 143.5 Q756 173 757.5 206 Q759 239 760 268 Q761 297 761 309 L603 309 Q596 239 583.5 185.5 Q571 132 544.5 84.5 Q518 37 474.5 -9 Q431 -55 362 -109 L283 -19 L283 -95 L163 -95 L163 351 Q148 327 132.5 304.5 Q117 282 101 261 L20 371 Q48 408 80 460 Q112 512 141.5 570 Q171 628 196 688.5 Q221 749 236 804 L361 773 Q326 669 283 575 L283 -6 Q338 35 374 68.5 Q410 102 431.5 137 Q453 172 463.5 212.5 Q474 253 480 309 L340 309 L340 432 L375 432 L285 490 Q344 556 391 640 Q438 724 470 807 L591 772 Q583 752 574.5 732.5 Q566 713 557 693 L927 693 L927 570 L493 570 Z" /><glyph glyph-name="uni4F26" unicode="&#x4f26;" d="M754 100 Q758 122 759.5 139.5 Q761 157 762 179 L891 134 Q887 99 884 77 Q881 55 877 30 Q872 -1 861.5 -22.5 Q851 -44 833 -57.5 Q815 -71 788 -78.5 Q761 -86 721 -88 Q680 -90 637 -90 Q594 -90 553 -88 Q509 -85 478 -78 Q447 -71 427.5 -53 Q408 -35 399 -3.5 Q390 28 390 78 L390 408 Q367 390 341 371 L283 458 L283 -97 L158 -97 L158 351 Q144 330 129 309.5 Q114 289 98 269 L14 364 Q43 402 75.5 454 Q108 506 138.5 565 Q169 624 195 686.5 Q221 749 238 807 L357 765 Q340 713 322 664.5 Q304 616 283 571 L283 487 Q322 516 361.5 552 Q401 588 437 629 Q473 670 503.5 714.5 Q534 759 557 804 L653 804 Q674 756 707.5 710 Q741 664 782 621.5 Q823 579 868.5 541.5 Q914 504 959 475 L887 369 Q840 397 797.5 431.5 Q755 466 718 502.5 Q681 539 652.5 576.5 Q624 614 606 647 Q578 602 538.5 552.5 Q499 503 442 452 L518 449 L518 322 Q549 337 581.5 354.5 Q614 372 645.5 390 Q677 408 705 425 Q733 442 755 457 L819 338 Q793 322 756.5 302 Q720 282 679.5 261.5 Q639 241 597 220.5 Q555 200 518 183 L518 84 Q518 68 520 58.5 Q522 49 528 44 Q534 39 545 36.5 Q556 34 574 33 Q626 30 677 33 Q699 34 712.5 37 Q726 40 734 47.5 Q742 55 746.5 67.5 Q751 80 754 100 Z" /><glyph glyph-name="uni4F2A" unicode="&#x4f2a;" d="M903 593 Q903 579 901.5 540.5 Q900 502 898 450 Q896 398 894 339 Q892 280 889.5 225 Q887 170 885 124 Q883 78 881 53 Q878 17 869 -7.5 Q860 -32 842.5 -48 Q825 -64 798 -72.5 Q771 -81 733 -85 L659 -92 L620 29 L687 37 Q708 40 721.5 44 Q735 48 743.5 56 Q752 64 756.5 77 Q761 90 763 110 Q765 130 767 163.5 Q769 197 771 235 L693 158 Q687 168 675.5 184.5 Q664 201 650 219.5 Q636 238 620 257 Q604 276 589 292 Q574 234 553 184 Q532 134 502.5 87.5 Q473 41 434.5 -5 Q396 -51 346 -102 L277 -37 L277 -93 L161 -93 L161 351 Q147 329 132 307.5 Q117 286 101 265 L18 364 Q47 400 78 450 Q109 500 137.5 557 Q166 614 190 674 Q214 734 230 791 L344 763 Q315 658 277 570 L277 13 Q336 72 376.5 121.5 Q417 171 443 222.5 Q469 274 483.5 332 Q498 390 505 467 L321 467 L321 593 L426 593 Q419 605 407 621.5 Q395 638 381.5 654.5 Q368 671 355 686 Q342 701 332 712 L408 782 Q420 771 434.5 756 Q449 741 463.5 725 Q478 709 490 693 Q502 677 510 665 L434 593 L514 593 Q515 613 516.5 639 Q518 665 519.5 692 Q521 719 522 744.5 Q523 770 523 790 L642 785 Q642 779 641 757 Q640 735 638.5 707 Q637 679 635 648 Q633 617 632 593 L903 593 ZM772 242 Q773 275 774.5 309 Q776 343 777 373.5 Q778 404 779 428.5 Q780 453 780 467 L620 467 Q614 414 605 368 L637 400 Q652 386 670.5 366.5 Q689 347 708 325.5 Q727 304 744 282 Q761 260 772 242 Z" /><glyph glyph-name="uni4F2F" unicode="&#x4f2f;" d="M883 677 L883 -77 L367 -77 L367 677 L530 677 Q541 712 550 748 Q559 784 564 804 L699 781 Q694 762 685 733.5 Q676 705 666 677 L883 677 ZM352 767 Q335 710 317 660 Q299 610 279 564 L279 -86 L165 -86 L165 358 Q151 338 137 317.5 Q123 297 107 277 L21 362 Q49 398 80 449 Q111 500 140.5 558.5 Q170 617 196 679.5 Q222 742 239 799 L352 767 ZM487 558 L487 365 L764 365 L764 558 L487 558 ZM764 41 L764 250 L487 250 L487 41 L764 41 Z" /><glyph glyph-name="uni4F30" unicode="&#x4f30;" d="M672 516 L672 358 L865 358 L865 -79 L354 -79 L354 358 L549 358 L549 516 L322 516 L322 639 L549 639 L549 790 L672 786 L672 639 L914 639 L914 516 L672 516 ZM351 762 Q333 704 314.5 653.5 Q296 603 275 555 L275 -90 L154 -90 L154 339 Q143 322 130.5 306 Q118 290 105 273 L21 369 Q48 405 77 452.5 Q106 500 133.5 554.5 Q161 609 185 668.5 Q209 728 226 787 L351 762 ZM739 236 L479 236 L479 40 L739 40 L739 236 Z" /><glyph glyph-name="uni4F34" unicode="&#x4f34;" d="M928 122 L681 122 L681 -92 L556 -92 L556 122 L325 122 L325 243 L556 243 L556 331 L367 331 L367 449 L556 449 L556 799 L681 794 L681 449 L884 449 L884 331 L681 331 L681 243 L928 243 L928 122 ZM333 681 Q322 649 310.5 620 Q299 591 286 563 L286 -86 L163 -86 L163 349 Q149 330 134.5 310.5 Q120 291 104 271 L17 370 Q81 449 140.5 553 Q200 657 235 787 L359 754 Q354 737 348 721 Q342 705 337 690 L434 741 Q446 723 461 697.5 Q476 672 491.5 643 Q507 614 521.5 584.5 Q536 555 547 530 L443 469 Q435 489 422 517 Q409 545 394 574 Q379 603 363 631.5 Q347 660 333 681 ZM912 691 Q904 669 889.5 639 Q875 609 858.5 577 Q842 545 825.5 515.5 Q809 486 797 466 L689 520 Q706 545 724 576 Q742 607 757.5 637.5 Q773 668 786 696 Q799 724 805 744 L912 691 Z" /><glyph glyph-name="uni4F36" unicode="&#x4f36;" d="M643 813 Q693 710 775 630 Q857 550 959 484 L883 378 Q834 405 790.5 439.5 Q747 474 710.5 512.5 Q674 551 645 590 Q616 629 597 664 Q562 604 494.5 531 Q427 458 335 385 L282 450 L282 -96 L163 -96 L163 361 Q146 335 128 310 Q110 285 91 261 L17 366 Q45 405 77 457.5 Q109 510 139 569.5 Q169 629 195 691 Q221 753 238 811 L359 779 Q326 674 282 578 L282 506 Q375 576 439 650 Q503 724 547 813 L643 813 ZM611 361 L868 361 L868 245 Q827 207 780 157.5 Q733 108 685 59 Q736 24 774 -4 L706 -114 Q671 -87 625 -54.5 Q579 -22 531 9.5 Q483 41 437 69.5 Q391 98 357 117 L427 219 Q459 202 499.5 177 Q540 152 584 124 Q602 141 621.5 160 Q641 179 659 196 Q677 213 690.5 226.5 Q704 240 710 247 L331 247 L331 361 L590 361 Q579 376 565 394.5 Q551 413 537 430.5 Q523 448 509.5 463.5 Q496 479 486 490 L574 565 Q586 553 601 536 Q616 519 631.5 500 Q647 481 661.5 462.5 Q676 444 688 428 L611 361 Z" /><glyph glyph-name="uni4F38" unicode="&#x4f38;" d="M346 772 Q326 709 306.5 657 Q287 605 265 557 L265 -89 L151 -89 L151 357 L97 278 L12 375 Q44 417 75.5 467.5 Q107 518 134.5 573.5 Q162 629 185.5 688 Q209 747 225 806 L346 772 ZM897 94 L670 94 L670 -90 L552 -90 L552 94 L332 94 L332 678 L552 678 L552 795 L668 790 L668 678 L897 678 L897 94 ZM444 561 L444 448 L552 448 L552 561 L444 561 ZM669 561 L669 448 L782 448 L782 561 L669 561 ZM552 210 L552 330 L444 330 L444 210 L552 210 ZM782 210 L782 330 L669 330 L669 210 L782 210 Z" /><glyph glyph-name="uni4F3A" unicode="&#x4f3a;" d="M345 780 Q327 720 309.5 667 Q292 614 272 565 L272 -97 L154 -97 L154 341 Q142 323 128.5 305 Q115 287 100 268 L14 364 Q47 406 77.5 458.5 Q108 511 135 569 Q162 627 184.5 688 Q207 749 224 807 L345 780 ZM893 756 L893 22 Q893 -8 888.5 -30 Q884 -52 872.5 -66 Q861 -80 840.5 -87.5 Q820 -95 788 -98 L691 -106 L658 2 L724 9 Q756 12 765.5 20.5 Q775 29 775 51 L775 636 L362 636 L362 756 L893 756 ZM744 451 L313 451 L313 565 L744 565 L744 451 ZM703 33 L342 33 L342 384 L703 384 L703 33 ZM589 270 L455 270 L455 148 L589 148 L589 270 Z" /><glyph glyph-name="uni4F3C" unicode="&#x4f3c;" d="M344 764 Q330 715 313.5 667 Q297 619 277 571 L277 -97 L161 -97 L161 343 Q147 322 133.5 302 Q120 282 106 262 L17 372 Q43 409 73.5 458 Q104 507 133 563.5 Q162 620 187.5 680 Q213 740 230 799 L344 764 ZM603 513 Q591 538 574.5 568.5 Q558 599 541 629.5 Q524 660 507.5 688 Q491 716 478 736 L572 795 Q586 776 602.5 751 Q619 726 635.5 698.5 Q652 671 667.5 642.5 Q683 614 695 589 L603 513 ZM866 -76 Q856 -58 841.5 -35 Q827 -12 809.5 12.5 Q792 37 773.5 62.5 Q755 88 738 110 Q700 53 643.5 0 Q587 -53 506 -110 L426 -9 Q487 32 532 68 Q577 104 609.5 140.5 Q642 177 663.5 217 Q685 257 698.5 305.5 Q712 354 719 414 Q726 474 729 550 Q730 576 731 609 Q732 642 732.5 673.5 Q733 705 733 731 Q733 757 733 770 L849 765 Q849 753 849 727 Q849 701 848 670 Q847 639 846 606.5 Q845 574 844 548 Q839 445 828.5 367 Q818 289 795 224 Q815 200 837.5 171.5 Q860 143 881.5 114.5 Q903 86 922.5 58.5 Q942 31 956 8 L866 -76 ZM653 258 Q648 255 629 239 Q610 223 584.5 200.5 Q559 178 531 153.5 Q503 129 482 109 Q463 92 447 75.5 Q431 59 418 47 L334 139 Q348 156 351 170 Q354 184 354 192 L354 714 L470 709 L470 262 Q484 274 501 290 Q518 306 535 321.5 Q552 337 568 351.5 Q584 366 596 377 L653 258 Z" /><glyph glyph-name="uni4F43" unicode="&#x4f43;" d="M326 762 Q313 720 301 681 Q289 642 275 605 L275 -89 L152 -89 L152 342 Q140 322 127.5 302.5 Q115 283 101 263 L17 363 Q79 448 129 560.5 Q179 673 213 791 L326 762 ZM899 743 L899 -71 L343 -71 L343 743 L899 743 ZM463 618 L463 406 L565 406 L565 618 L463 618 ZM779 618 L681 618 L681 406 L779 406 L779 618 ZM463 51 L565 51 L565 279 L463 279 L463 51 ZM779 51 L779 279 L681 279 L681 51 L779 51 Z" /><glyph glyph-name="uni4F46" unicode="&#x4f46;" d="M341 771 Q325 721 309 675 Q293 629 275 584 L275 -95 L157 -95 L157 351 Q142 327 125 303.5 Q108 280 90 257 L22 367 Q85 455 137 562 Q189 669 225 790 L341 771 ZM878 149 L360 149 L360 752 L878 752 L878 149 ZM480 631 L480 511 L755 511 L755 631 L480 631 ZM755 272 L755 392 L480 392 L480 272 L755 272 ZM928 50 L928 -73 L304 -73 L304 50 L928 50 Z" /><glyph glyph-name="uni4F4D" unicode="&#x4f4d;" d="M352 779 Q335 722 315.5 671 Q296 620 275 572 L275 -82 L156 -82 L156 361 Q141 339 125.5 318 Q110 297 93 276 L10 373 Q38 412 69.5 463 Q101 514 130.5 571 Q160 628 185 689 Q210 750 226 809 L352 779 ZM542 658 L519 780 L648 786 L670 658 L898 658 L898 537 L326 537 L326 658 L542 658 ZM928 54 L928 -65 L303 -65 L303 54 L603 54 Q620 99 639.5 160 Q659 221 677 286 Q695 351 709 413 Q723 475 729 522 L850 484 Q842 438 829 382 Q816 326 800 268.5 Q784 211 766 155 Q748 99 730 54 L928 54 ZM471 92 Q463 126 449.5 178.5 Q436 231 420 286.5 Q404 342 388.5 394 Q373 446 362 481 L478 516 Q491 480 506 430 Q521 380 536 326.5 Q551 273 564 222 Q577 171 585 132 L471 92 Z" /><glyph glyph-name="uni4F4E" unicode="&#x4f4e;" d="M352 777 Q334 717 313.5 661.5 Q293 606 270 554 L270 -99 L155 -99 L155 345 Q140 322 123.5 300.5 Q107 279 90 257 L20 374 Q46 401 75.5 447.5 Q105 494 134 552 Q163 610 188.5 675.5 Q214 741 232 806 L352 777 ZM941 116 Q940 107 937.5 93 Q935 79 932 63.5 Q929 48 925.5 32 Q922 16 919 4 Q905 -53 882 -77.5 Q859 -102 824 -102 Q788 -102 747.5 -64 Q707 -26 675 61 Q639 170 621 335 L472 335 L472 141 Q486 150 503.5 162.5 Q521 175 539 187.5 Q557 200 574 211.5 Q591 223 604 232 L638 116 Q635 114 610.5 98 Q586 82 553.5 60.5 Q521 39 487 16.5 Q453 -6 431 -20 Q416 -30 403.5 -38.5 Q391 -47 385 -51 L325 46 Q344 60 347.5 73.5 Q351 87 351 107 L351 722 Q476 723 604 740 Q732 757 847 787 L875 665 Q840 657 800 649.5 Q760 642 719 636 Q720 588 722 543 Q724 498 726 456 L903 456 L903 335 L737 335 Q745 255 757.5 193 Q770 131 786 87 Q793 71 800.5 58.5 Q808 46 820 46 Q826 46 829.5 57.5 Q833 69 837 89 Q841 105 844 126 Q847 147 849 161 L941 116 ZM611 456 Q605 533 602 619 Q562 613 528.5 609 Q495 605 472 603 L472 456 L611 456 ZM584 62 Q607 42 629.5 15 Q652 -12 671 -43 L594 -110 Q576 -81 553.5 -51 Q531 -21 507 5 L584 62 Z" /><glyph glyph-name="uni4F4F" unicode="&#x4f4f;" d="M348 763 Q330 709 312 660.5 Q294 612 274 567 L274 -86 L154 -86 L154 342 Q141 322 127 303 Q113 284 99 265 L16 369 Q43 406 73 457.5 Q103 509 132 567 Q161 625 185.5 686 Q210 747 227 804 L348 763 ZM924 51 L924 -70 L298 -70 L298 51 L541 51 L541 245 L345 245 L345 368 L541 368 L541 531 L322 531 L322 652 L547 652 L523 771 L653 777 L675 652 L892 652 L892 531 L668 531 L668 368 L861 368 L861 245 L668 245 L668 51 L924 51 Z" /><glyph glyph-name="uni4F51" unicode="&#x4f51;" d="M607 551 Q594 516 579 480.5 Q564 445 545 409 L878 409 L878 -73 L398 -73 L398 183 Q362 138 319 92 L282 138 L282 -89 L162 -89 L162 356 Q133 315 101 277 L21 372 Q49 407 81 458.5 Q113 510 144 568.5 Q175 627 201 688 Q227 749 243 804 L365 775 Q346 715 325.5 662 Q305 609 282 559 L282 238 Q351 318 398 397 Q445 476 474 551 L336 551 L336 676 L514 676 Q522 706 527 735 Q532 764 536 791 L665 775 Q660 750 655.5 725.5 Q651 701 644 676 L937 676 L937 551 L607 551 ZM753 282 L525 282 L525 49 L753 49 L753 282 Z" /><glyph glyph-name="uni4F53" unicode="&#x4f53;" d="M883 54 Q839 101 804.5 144.5 Q770 188 743 230.5 Q716 273 694 315.5 Q672 358 652 403 L652 166 L785 166 L785 52 L652 52 L652 -100 L531 -100 L531 52 L396 52 L396 159 Q377 135 357.5 112 Q338 89 317 67 L273 117 L273 -91 L156 -91 L156 341 Q142 321 128.5 302.5 Q115 284 101 267 L15 365 Q55 416 88 470.5 Q121 525 147 580 Q173 635 193 689 Q213 743 227 793 L348 766 Q337 728 318 674.5 Q299 621 273 561 L273 210 Q335 273 388 349.5 Q441 426 485 528 L321 528 L321 651 L531 651 L531 798 L652 793 L652 651 L892 651 L892 528 L697 528 Q725 471 756 421.5 Q787 372 821.5 328 Q856 284 894 244 Q932 204 974 165 L883 54 ZM531 166 L531 384 Q478 266 402 166 L531 166 Z" /><glyph glyph-name="uni4F55" unicode="&#x4f55;" d="M333 775 Q306 674 272 589 L272 -98 L155 -98 L155 368 Q126 326 95 284 L22 380 Q91 481 139.5 587.5 Q188 694 219 805 L333 775 ZM931 633 L862 633 L862 57 Q862 15 854.5 -12 Q847 -39 829 -54.5 Q811 -70 781 -78 Q751 -86 706 -91 L627 -99 L590 24 L675 30 Q696 31 709 33.5 Q722 36 728.5 42 Q735 48 737.5 59.5 Q740 71 740 91 L740 633 L340 633 L340 751 L931 751 L931 633 ZM674 123 L339 123 L339 547 L674 547 L674 123 ZM564 432 L449 432 L449 237 L564 237 L564 432 Z" /><glyph glyph-name="uni4F59" unicode="&#x4f59;" d="M706 216 Q731 198 761.5 173.5 Q792 149 822.5 123 Q853 97 881 72 Q909 47 929 27 L847 -76 Q824 -53 794.5 -24.5 Q765 4 734 32 Q703 60 673 85.5 Q643 111 620 129 L689 216 L563 216 L563 31 Q563 -6 556.5 -30.5 Q550 -55 535 -70 Q520 -85 496 -92 Q472 -99 437 -102 L359 -108 L318 20 L374 26 Q409 30 422 37.5 Q435 45 435 75 L435 216 L271 216 L357 143 Q334 113 305.5 82 Q277 51 248 20.5 Q219 -10 190 -38 Q161 -66 136 -88 L55 10 Q109 53 162 107.5 Q215 162 256 216 L97 216 L97 340 L435 340 L435 409 L262 409 L262 476 Q223 450 180.5 425.5 Q138 401 93 377 L31 495 Q171 559 270 635 Q369 711 441 810 L544 810 Q614 711 714.5 635 Q815 559 956 495 L891 377 Q806 416 728 469 L728 409 L563 409 L563 340 L886 340 L886 216 L706 216 ZM493 675 Q465 640 426 603.5 Q387 567 338 530 L643 530 Q595 568 556 605.5 Q517 643 493 675 Z" /><glyph glyph-name="uni4F5B" unicode="&#x4f5b;" d="M911 311 Q910 295 908.5 266.5 Q907 238 905.5 205 Q904 172 902 140 Q900 108 898 86 Q896 57 890 38.5 Q884 20 874 8.5 Q864 -3 849.5 -8 Q835 -13 816 -15 L767 -20 L734 92 L763 96 Q784 99 791 106.5 Q798 114 800 130 Q800 133 801 140.5 Q802 148 802.5 158 Q803 168 804 178 Q805 188 805 196 L716 196 L716 -91 L608 -91 L608 196 L550 196 Q545 142 533 100.5 Q521 59 499 24 Q477 -11 445 -42.5 Q413 -74 367 -108 L280 -26 Q325 6 354.5 32 Q384 58 402.5 83.5 Q421 109 429.5 135.5 Q438 162 441 196 L290 196 L311 497 L443 497 L443 576 L313 576 L313 688 L443 688 L443 793 L554 789 L554 688 L608 688 L608 794 L716 790 L716 688 L877 688 L877 385 L716 385 L716 311 L911 311 ZM318 767 Q304 716 289.5 669 Q275 622 258 577 L258 -93 L149 -93 L149 344 Q138 325 125.5 306 Q113 287 100 268 L20 366 Q48 406 75 455 Q102 504 126.5 559 Q151 614 172 673 Q193 732 210 792 L318 767 ZM554 497 L608 497 L608 576 L554 576 L554 497 ZM716 576 L716 497 L767 497 L767 576 L716 576 ZM398 311 L443 311 L443 385 L406 385 L398 311 ZM608 311 L608 385 L554 385 L554 311 L608 311 Z" /><glyph glyph-name="uni4F5C" unicode="&#x4f5c;" d="M636 552 L636 447 L861 447 L861 321 L636 321 L636 218 L883 218 L883 91 L636 91 L636 -96 L509 -96 L509 552 L507 552 Q480 502 445 448.5 Q410 395 365 337 L288 406 L288 -88 L160 -88 L160 361 Q146 340 131 319.5 Q116 299 100 279 L13 369 Q99 473 155 585.5 Q211 698 240 798 L358 759 Q346 725 328.5 681.5 Q311 638 288 588 L288 444 Q361 535 407 623.5 Q453 712 482 806 L604 771 Q589 727 568 678 L912 678 L912 552 L636 552 Z" /><glyph glyph-name="uni4F60" unicode="&#x4f60;" d="M514 345 Q503 300 486.5 252 Q470 204 450 157 Q430 110 407 65 Q384 20 360 -19 L270 30 L270 -95 L149 -95 L149 358 Q136 339 122 320.5 Q108 302 94 283 L14 372 Q84 471 137 578.5 Q190 686 219 801 L341 772 Q325 718 307.5 669 Q290 620 270 575 L270 68 Q290 101 310 139 Q330 177 347.5 217.5 Q365 258 380 299 Q395 340 406 379 L514 345 ZM280 447 Q305 482 330.5 524.5 Q356 567 378.5 613 Q401 659 419.5 706.5 Q438 754 450 798 L571 773 Q564 752 556.5 730.5 Q549 709 540 687 L921 687 L921 568 L837 420 L725 461 L790 568 L488 568 Q464 518 437.5 470.5 Q411 423 382 379 L280 447 ZM556 513 L676 508 L676 16 Q676 -16 670 -36 Q664 -56 650.5 -68.5 Q637 -81 615 -87.5 Q593 -94 562 -98 L499 -106 L454 15 L511 22 Q537 25 546.5 33.5 Q556 42 556 61 L556 513 ZM796 382 Q814 348 837.5 301.5 Q861 255 883 206.5 Q905 158 923 114.5 Q941 71 950 43 L844 -17 Q830 26 812 73.5 Q794 121 773.5 166.5 Q753 212 732.5 254.5 Q712 297 693 331 L796 382 Z" /><glyph glyph-name="uni4F63" unicode="&#x4f63;" d="M884 758 L884 23 Q884 -8 880 -29.5 Q876 -51 865.5 -65.5 Q855 -80 837.5 -87.5 Q820 -95 793 -98 L731 -105 L693 17 L740 23 Q758 25 763 31 Q768 37 768 54 L768 169 L665 169 L665 -77 L552 -77 L552 169 L444 169 Q436 86 417 20.5 Q398 -45 361 -109 L253 -54 L253 -98 L142 -98 L142 347 Q133 333 123 318 Q113 303 102 288 L20 380 Q43 415 68 461 Q93 507 117 560.5 Q141 614 163 672.5 Q185 731 202 791 L315 763 Q301 708 285.5 659.5 Q270 611 253 566 L253 -43 Q279 1 295 37.5 Q311 74 319.5 116.5 Q328 159 331 216 Q334 273 334 359 L334 758 L884 758 ZM450 638 L450 516 L552 516 L552 638 L450 638 ZM768 638 L665 638 L665 516 L768 516 L768 638 ZM552 288 L552 399 L450 399 L450 288 L552 288 ZM768 288 L768 399 L665 399 L665 288 L768 288 Z" /><glyph glyph-name="uni4F69" unicode="&#x4f69;" d="M963 139 Q960 108 952 72.5 Q944 37 936 10 Q919 -43 896 -64.5 Q873 -86 851 -86 Q828 -86 802.5 -59.5 Q777 -33 767 21 Q762 49 759.5 72 Q757 95 756 123.5 Q755 152 755 191.5 Q755 231 755 293 L755 651 L389 651 L389 291 Q389 247 387.5 201.5 Q386 156 379.5 108.5 Q373 61 359 13 Q345 -35 320 -83 L235 -29 L235 -92 L136 -92 L136 356 Q124 333 111.5 311.5 Q99 290 85 267 L25 387 Q49 424 73 471.5 Q97 519 119.5 572 Q142 625 160 681 Q178 737 190 792 L291 773 Q280 720 266 671.5 Q252 623 235 575 L235 -13 Q258 34 271.5 78.5 Q285 123 292 162.5 Q299 202 301 236.5 Q303 271 303 298 L303 763 L843 763 L843 309 Q843 235 843.5 190 Q844 145 845 119 Q846 87 850 73 Q854 59 861 59 Q872 59 875 69.5 Q878 80 884 105 Q885 111 887 119.5 Q889 128 891 138 Q893 148 894.5 156.5 Q896 165 896 171 L963 139 ZM618 437 L730 437 L730 101 Q730 46 717 24 Q704 2 666 -3 L642 -6 L618 87 L618 -81 L529 -81 L529 334 L497 334 L497 -3 L416 -3 L416 437 L529 437 L529 500 L414 500 L414 604 L728 604 L728 500 L618 500 L618 437 ZM618 334 L618 95 L636 98 Q642 99 644.5 104.5 Q647 110 647 124 L647 334 L618 334 Z" /><glyph glyph-name="uni4F73" unicode="&#x4f73;" d="M348 774 Q335 724 320 677.5 Q305 631 286 585 L286 -93 L162 -93 L162 347 Q148 323 132 299 Q116 275 99 250 L25 376 Q55 418 85 468.5 Q115 519 142 574 Q169 629 192 687 Q215 745 230 803 L348 774 ZM929 476 L929 357 L309 357 L309 476 L554 476 L554 565 L367 565 L367 680 L554 680 L554 797 L677 792 L677 680 L869 680 L869 565 L677 565 L677 476 L929 476 ZM677 41 L918 41 L918 -78 L310 -78 L310 41 L554 41 L554 146 L367 146 L367 262 L554 262 L554 332 L677 327 L677 262 L869 262 L869 146 L677 146 L677 41 Z" /><glyph glyph-name="uni4F7F" unicode="&#x4f7f;" d="M328 777 Q313 719 296 668.5 Q279 618 259 570 L259 -101 L143 -101 L143 351 Q132 334 121 317 Q110 300 98 283 L18 374 Q42 410 69 459 Q96 508 121.5 564.5 Q147 621 170.5 682.5 Q194 744 211 805 L328 777 ZM916 -93 Q806 -79 719 -56 Q632 -33 561 2 Q520 -30 460.5 -56 Q401 -82 317 -107 L260 6 Q325 23 371.5 39 Q418 55 450 73 Q386 126 336 201 L383 239 L325 239 L325 533 L550 533 L550 585 L314 585 L314 697 L550 697 L550 801 L667 796 L667 697 L905 697 L905 585 L667 585 L667 533 L889 533 L889 239 L666 239 Q664 196 657 160.5 Q650 125 636 95 Q758 44 951 25 L916 -93 ZM436 350 L550 350 L550 426 L436 426 L436 350 ZM667 426 L667 350 L775 350 L775 426 L667 426 ZM443 239 Q480 191 531 154 Q539 173 543 194 Q547 215 549 239 L443 239 Z" /><glyph glyph-name="uni4F84" unicode="&#x4f84;" d="M343 772 Q327 716 309 664.5 Q291 613 269 563 L269 -94 L153 -94 L153 348 Q121 299 82 250 L18 378 Q46 416 75 464 Q104 512 130.5 566.5 Q157 621 180.5 680.5 Q204 740 222 801 L343 772 ZM363 474 Q369 479 382 495 Q395 511 412 533 Q429 555 448 581 Q467 607 484 633 L351 633 L351 751 L891 751 L891 633 L631 633 Q614 608 595.5 583 Q577 558 560 536 Q543 514 528 496.5 Q513 479 503 469 Q545 471 599 474 Q653 477 707 479 Q676 522 647 554 L742 622 Q761 600 784.5 570 Q808 540 831.5 508 Q855 476 876.5 445 Q898 414 912 390 L817 315 Q810 327 801.5 341 Q793 355 783 371 Q763 370 732.5 369 Q702 368 667 366.5 Q632 365 594 363 Q556 361 520.5 359 Q485 357 454.5 355.5 Q424 354 403 353 Q392 351 382.5 350.5 Q373 350 362 349 L329 453 Q341 457 349 463 Q357 469 363 474 ZM918 36 L918 -80 L300 -80 L300 36 L552 36 L552 143 L356 143 L356 259 L552 259 L552 341 L673 336 L673 259 L864 259 L864 143 L673 143 L673 36 L918 36 Z" /><glyph glyph-name="uni4F88" unicode="&#x4f88;" d="M927 355 L927 254 Q887 200 838 151.5 Q789 103 721 58 Q653 13 560 -29.5 Q467 -72 340 -112 L288 -15 Q371 8 435 31 Q499 54 550 78 Q533 98 510 118 Q487 138 463 155 Q415 119 356 83 L290 173 Q368 218 424 262.5 Q480 307 525 356 Q480 337 431.5 319 Q383 301 327 284 L280 388 Q344 405 403 425.5 Q462 446 516 469 Q501 483 480 499.5 Q459 516 437 530 Q397 497 354 468 L288 555 Q376 611 440 674 Q504 737 546 800 L654 771 Q637 745 618 720 L901 720 L901 618 Q847 558 783.5 507 Q720 456 638 411 L690 390 Q684 381 678 372.5 Q672 364 665 355 L927 355 ZM350 769 Q331 709 312 656 Q293 603 270 553 L270 -97 L152 -97 L152 344 Q140 327 128 309.5 Q116 292 102 275 L18 361 Q51 404 82 455 Q113 506 140.5 561.5 Q168 617 190.5 676 Q213 735 228 796 L350 769 ZM519 605 Q553 584 597 548 L530 475 Q602 507 660 543.5 Q718 580 763 618 L532 618 Q529 615 526 611.5 Q523 608 519 605 ZM559 82 Q599 101 632.5 121 Q666 141 694 162.5 Q722 184 746.5 206.5 Q771 229 794 254 L577 254 Q570 247 564 241 Q558 235 550 228 Q571 214 592 198 Q613 182 632 165 L559 82 Z" /><glyph glyph-name="uni4F8B" unicode="&#x4f8b;" d="M312 760 L633 760 L633 644 L488 644 Q483 621 478.5 597 Q474 573 468 550 L611 550 L611 424 Q597 330 575 257 Q553 184 520 122.5 Q487 61 441 5.5 Q395 -50 333 -110 L253 -24 L253 -96 L146 -96 L146 357 Q135 337 123 317.5 Q111 298 97 278 L17 367 Q38 403 63 453.5 Q88 504 112.5 562 Q137 620 158 681 Q179 742 193 798 L304 778 Q293 733 280.5 689 Q268 645 253 601 L253 286 Q271 323 289 366.5 Q307 410 323 457 Q339 504 352.5 551.5 Q366 599 375 644 L312 644 L312 760 ZM890 776 L890 34 Q890 -3 885.5 -26.5 Q881 -50 868 -64 Q855 -78 831 -85 Q807 -92 769 -96 L696 -104 L658 9 L733 17 Q751 19 760.5 21.5 Q770 24 774.5 29.5 Q779 35 780 44.5 Q781 54 781 69 L781 781 L890 776 ZM744 127 L635 127 L635 679 L744 674 L744 127 ZM434 433 Q429 416 423 400 Q417 384 411 367 Q425 353 441 338.5 Q457 324 471 308 L411 207 Q387 234 362 256 Q351 236 340.5 216.5 Q330 197 318 178 L253 245 L253 -22 Q321 39 366 98 Q411 157 439.5 214 Q468 271 484 326 Q500 381 510 433 L434 433 Z" /><glyph glyph-name="uni4F8D" unicode="&#x4f8d;" d="M370 762 Q351 710 332 663.5 Q313 617 292 573 L292 -100 L169 -100 L169 359 Q140 317 109 275 L32 387 Q60 422 90.5 468.5 Q121 515 150 568.5 Q179 622 205 681.5 Q231 741 250 801 L370 762 ZM815 383 L815 311 L918 311 L918 193 L815 193 L815 30 Q815 -6 810 -28.5 Q805 -51 790.5 -64.5 Q776 -78 750 -85 Q724 -92 682 -96 L613 -103 L576 11 L643 18 Q672 21 678.5 32.5 Q685 44 685 71 L685 193 L503 193 Q526 170 550.5 144 Q575 118 590 100 L504 4 Q491 21 474.5 40 Q458 59 441 78 Q424 97 406.5 115.5 Q389 134 374 149 L421 193 L337 193 L337 311 L685 311 L685 383 L313 383 L313 502 L558 502 L558 572 L369 572 L369 691 L558 691 L558 800 L684 795 L684 691 L885 691 L885 572 L684 572 L684 502 L941 502 L941 383 L815 383 Z" /><glyph glyph-name="uni4F9B" unicode="&#x4f9b;" d="M341 770 Q324 713 306.5 663 Q289 613 269 566 L269 -97 L147 -97 L147 342 Q134 322 120 302.5 Q106 283 91 263 L20 374 Q47 410 76 459.5 Q105 509 132 566.5 Q159 624 183 686 Q207 748 224 808 L341 770 ZM422 629 L422 794 L544 789 L544 629 L674 629 L674 794 L795 789 L795 629 L887 629 L887 510 L795 510 L795 319 L920 319 L920 198 L313 198 L313 319 L422 319 L422 510 L340 510 L340 629 L422 629 ZM544 510 L544 319 L674 319 L674 510 L544 510 ZM718 197 Q743 175 772 148.5 Q801 122 829.5 95 Q858 68 883.5 42 Q909 16 927 -5 L843 -103 Q826 -81 801 -52 Q776 -23 747.5 6.5 Q719 36 690.5 64 Q662 92 638 112 L718 197 ZM282 -10 Q309 8 338.5 32 Q368 56 396.5 83.5 Q425 111 451 139.5 Q477 168 497 194 L584 114 Q561 85 534.5 56 Q508 27 479.5 -0.5 Q451 -28 421 -53.5 Q391 -79 361 -101 L282 -10 Z" /><glyph glyph-name="uni4F9D" unicode="&#x4f9d;" d="M735 279 Q777 208 832 153 Q887 98 955 54 L865 -52 Q803 -9 755.5 37.5 Q708 84 671 139.5 Q634 195 606.5 262 Q579 329 557 412 Q537 379 515 349 L515 73 Q541 87 574 104.5 Q607 122 634 136 L659 13 Q648 8 627.5 -1.5 Q607 -11 582.5 -23 Q558 -35 531.5 -47.5 Q505 -60 483 -71 Q467 -79 450.5 -87 Q434 -95 420 -103 L364 -2 Q384 10 389.5 25 Q395 40 395 62 L395 214 Q379 199 362 184 Q345 169 327 154 L265 236 L265 -96 L142 -96 L142 350 Q130 332 118 314 Q106 296 92 277 L14 380 Q42 417 71 464 Q100 511 126.5 565 Q153 619 176.5 678.5 Q200 738 218 800 L336 773 Q320 719 302.5 670.5 Q285 622 265 576 L265 271 Q310 305 345 339 Q380 373 408 408 Q436 443 458.5 480 Q481 517 501 559 L328 559 L328 680 L530 680 L510 790 L637 796 L656 680 L899 680 L899 559 L635 559 Q644 510 656.5 466.5 Q669 423 685 383 Q720 412 751.5 441.5 Q783 471 812 505 L888 412 Q857 382 818 347.5 Q779 313 735 279 Z" /><glyph glyph-name="uni4FA0" unicode="&#x4fa0;" d="M348 761 Q313 648 269 552 L269 -93 L154 -93 L154 346 Q140 326 126.5 305.5 Q113 285 98 265 L20 372 Q46 408 76.5 457 Q107 506 136 561.5 Q165 617 190.5 676.5 Q216 736 233 794 L348 761 ZM690 236 Q725 158 786.5 101 Q848 44 945 1 L878 -114 Q792 -69 725 -9 Q658 51 613 129 Q578 70 515.5 10 Q453 -50 350 -110 L278 -5 Q338 27 381 58.5 Q424 90 454 120.5 Q484 151 502.5 180 Q521 209 531 236 L300 236 L300 354 L434 354 Q425 372 412 394.5 Q399 417 385 440 Q371 463 357 485 Q343 507 331 524 L408 571 L328 571 L328 692 L550 692 L550 793 L668 788 L668 692 L891 692 L891 571 L809 571 L884 527 Q876 510 863.5 488 Q851 466 837 442 Q823 418 808 395 Q793 372 780 354 L913 354 L913 236 L690 236 ZM430 571 Q442 554 456 533 Q470 512 483.5 490 Q497 468 509.5 446 Q522 424 531 406 L453 354 L550 354 L550 571 L430 571 ZM668 571 L668 354 L751 354 L677 398 Q690 414 705.5 436.5 Q721 459 736 483 Q751 507 764.5 530 Q778 553 787 571 L668 571 Z" /><glyph glyph-name="uni4FA3" unicode="&#x4fa3;" d="M348 776 Q330 717 310 664.5 Q290 612 267 564 L267 -86 L144 -86 L144 349 Q131 331 118 313 Q105 295 91 277 L7 388 Q34 424 64.5 472 Q95 520 125 575.5 Q155 631 181.5 691.5 Q208 752 227 811 L348 776 ZM860 411 L367 411 L367 773 L860 773 L860 411 ZM740 656 L490 656 L490 528 L740 528 L740 656 ZM890 345 L890 -69 L337 -69 L337 345 L890 345 ZM768 223 L461 223 L461 52 L768 52 L768 223 Z" /><glyph glyph-name="uni4FA5" unicode="&#x4fa5;" d="M421 685 Q416 708 409.5 733.5 Q403 759 396 789 L509 803 Q516 771 522 746 Q528 721 535 699 L867 739 L879 631 L798 620 L847 545 Q776 490 691 447 Q710 435 727 429.5 Q744 424 758 424 Q782 424 793.5 427.5 Q805 431 813 445 Q818 456 822 466 Q826 476 831 493 L920 445 Q915 423 907 405 Q899 387 888 367 Q868 334 838.5 323 Q809 312 758 312 Q720 312 669 331.5 Q618 351 570 393 Q515 371 453 352 Q391 333 321 316 L284 428 Q338 439 391 454 Q444 469 495 488 Q484 511 474 531.5 Q464 552 456 575 L315 557 L302 671 L421 685 ZM926 89 Q924 66 921 41.5 Q918 17 916 3 Q912 -16 906.5 -30.5 Q901 -45 890.5 -55.5 Q880 -66 863 -73 Q846 -80 820 -84 Q810 -86 793.5 -86.5 Q777 -87 758.5 -87 Q740 -87 721.5 -86.5 Q703 -86 689 -84 Q645 -80 621.5 -55.5 Q598 -31 598 29 L598 193 L524 193 Q521 132 510 89 Q499 46 475 12.5 Q451 -21 412.5 -49 Q374 -77 316 -108 L256 -21 L256 -93 L138 -93 L138 354 Q127 337 116 320.5 Q105 304 93 287 L14 385 Q71 469 123 575 Q175 681 210 802 L327 776 Q310 719 293 669.5 Q276 620 256 574 L256 -5 Q301 16 329.5 35.5 Q358 55 374.5 77.5 Q391 100 398.5 128 Q406 156 409 193 L296 193 L296 307 L887 307 L887 193 L716 193 L716 66 Q716 48 720 38.5 Q724 29 739 27 Q764 24 784 27 Q800 29 808 35 Q816 41 819 57 Q821 71 822.5 87.5 Q824 104 826 122 L926 89 ZM576 591 Q582 579 588.5 567 Q595 555 603 542 L607 535 Q645 553 681.5 572.5 Q718 592 752 614 L576 591 Z" /><glyph glyph-name="uni4FA6" unicode="&#x4fa6;" d="M342 771 Q325 714 306.5 663 Q288 612 266 564 L266 -96 L149 -96 L149 354 Q137 336 124.5 318 Q112 300 98 281 L17 386 Q43 422 72 469 Q101 516 128.5 571 Q156 626 181 685 Q206 744 223 804 L342 771 ZM523 551 L523 801 L643 796 L643 723 L898 723 L898 613 L643 613 L643 551 L868 551 L868 132 L747 132 L747 438 L456 438 L456 132 L334 132 L334 551 L523 551 ZM863 -107 Q842 -90 810.5 -67.5 Q779 -45 744 -20.5 Q709 4 672 28 Q635 52 604 72 Q568 21 501.5 -22 Q435 -65 326 -107 L269 3 Q361 37 414.5 65.5 Q468 94 495.5 125.5 Q523 157 531.5 195 Q540 233 541 286 L541 410 L657 405 L657 263 Q657 217 650 182 Q682 162 720.5 138.5 Q759 115 797 90 Q835 65 869.5 41.5 Q904 18 928 0 L863 -107 Z" /><glyph glyph-name="uni4FA7" unicode="&#x4fa7;" d="M486 185 Q503 170 525.5 149 Q548 128 571 105.5 Q594 83 615.5 60.5 Q637 38 652 20 L579 -58 Q547 -16 516.5 21.5 Q486 59 457 89 Q433 36 395 -5.5 Q357 -47 303 -90 L244 -22 L244 -94 L148 -94 L148 397 Q136 374 123 351 Q110 328 96 305 L14 387 Q73 477 117.5 585.5 Q162 694 185 806 L290 787 Q280 743 268.5 702.5 Q257 662 244 623 L244 -12 Q301 32 335 66.5 Q369 101 386 139 Q403 177 408 225.5 Q413 274 413 346 L413 602 L497 597 L497 320 Q497 282 494.5 248 Q492 214 486 185 ZM892 772 L892 14 Q892 -18 885.5 -37 Q879 -56 866.5 -67 Q854 -78 834.5 -82.5 Q815 -87 789 -89 L729 -94 L696 17 L743 23 Q758 25 767.5 28 Q777 31 782.5 36 Q788 41 789.5 49.5 Q791 58 791 72 L791 776 L892 772 ZM388 156 L298 156 L298 746 L611 746 L611 159 L522 159 L522 631 L388 631 L388 156 ZM754 134 L656 134 L656 693 L754 689 L754 134 Z" /><glyph glyph-name="uni4FA8" unicode="&#x4fa8;" d="M897 160 Q865 174 835 190.5 Q805 207 779 227 L779 -86 L659 -86 L659 288 L710 286 Q679 317 653.5 352.5 Q628 388 606 429 Q587 387 561 352 Q535 317 500 283 L552 279 L552 206 Q552 151 546 107.5 Q540 64 523 26 Q506 -12 475.5 -46.5 Q445 -81 396 -118 L309 -26 Q341 -2 364.5 18 Q388 38 403 63 Q418 88 425.5 121 Q433 154 433 202 L433 225 Q411 208 386.5 191 Q362 174 334 155 L277 236 L277 -96 L161 -96 L161 354 Q146 331 130.5 309.5 Q115 288 98 266 L28 372 Q55 411 84.5 461.5 Q114 512 142 568.5 Q170 625 194 685 Q218 745 235 803 L350 774 Q335 719 316.5 667.5 Q298 616 277 568 L277 266 Q348 309 394.5 348 Q441 387 472 434 L309 434 L309 549 L523 549 Q529 570 533.5 592.5 Q538 615 542 641 Q496 637 452 634 Q408 631 368 629 L362 747 Q419 750 484 754.5 Q549 759 614 765 Q679 771 739.5 778 Q800 785 848 793 L864 676 Q823 669 772.5 663 Q722 657 666 652 Q661 623 656.5 597.5 Q652 572 647 549 L902 549 L902 434 L731 434 Q770 383 824 345 Q878 307 954 268 L897 160 Z" /><glyph glyph-name="uni4FAE" unicode="&#x4fae;" d="M850 247 Q849 219 848 193 Q847 167 846 144 L899 144 L899 36 L841 36 L841 30 Q839 -8 833 -31 Q827 -54 814 -68 Q801 -82 780 -88.5 Q759 -95 726 -99 L639 -109 L603 -6 L678 2 Q700 4 711 11 Q722 18 726 36 L316 36 L338 247 L293 247 L293 357 L350 357 L362 470 L328 434 L263 531 Q315 591 361 662 Q407 733 436 802 L552 777 Q541 750 531 726 L898 726 L898 612 L470 612 L440 567 L863 567 Q863 563 862.5 544.5 Q862 526 860.5 497.5 Q859 469 857.5 433 Q856 397 855 357 L932 357 L932 247 L850 247 ZM332 779 Q315 723 298 676 Q281 629 263 585 L263 -93 L148 -93 L148 369 Q136 350 122.5 330 Q109 310 95 290 L18 393 Q40 427 67 474.5 Q94 522 120 576 Q146 630 169.5 687.5 Q193 745 210 801 L332 779 ZM464 357 L593 357 Q573 374 552 391.5 Q531 409 515 420 L545 457 L474 457 L464 357 ZM742 357 Q744 395 745 422 Q746 449 746 457 L624 457 Q643 442 661.5 426.5 Q680 411 691 400 L657 357 L742 357 ZM442 144 L580 144 Q560 161 537.5 178 Q515 195 499 206 L530 247 L453 247 L442 144 ZM733 144 Q734 167 735 193.5 Q736 220 737 247 L609 247 Q628 232 645.5 217 Q663 202 676 190 L643 144 L733 144 Z" /><glyph glyph-name="uni4FAF" unicode="&#x4faf;" d="M351 767 Q332 703 311.5 646.5 Q291 590 267 537 L267 -99 L149 -99 L149 337 Q137 321 125 305.5 Q113 290 99 274 L23 371 Q49 406 79 456 Q109 506 138 563.5 Q167 621 192.5 682 Q218 743 235 799 L351 767 ZM702 143 Q737 99 799.5 65.5 Q862 32 952 10 L897 -104 Q808 -78 738 -37.5 Q668 3 619 60 Q582 11 514 -29.5 Q446 -70 337 -109 L280 0 Q394 38 454 71 Q514 104 538 143 L299 143 L299 247 L386 247 L303 303 Q339 345 365.5 388 Q392 431 413 482 L317 482 L317 586 L711 586 L714 651 L389 651 L389 759 L838 759 L827 586 L920 586 L920 482 L422 482 L523 455 Q519 447 516 439 Q513 431 509 423 L870 423 L870 319 L677 319 Q677 299 676 280 Q675 261 675 247 L916 247 L916 143 L702 143 ZM454 319 Q443 302 431 284 Q419 266 405 247 L560 247 Q560 263 560.5 282 Q561 301 561 319 L454 319 Z" /><glyph glyph-name="uni4FB5" unicode="&#x4fb5;" d="M335 779 Q301 651 253 539 L253 -97 L148 -97 L148 342 Q136 323 122.5 304.5 Q109 286 95 266 L21 364 Q45 400 73.5 451.5 Q102 503 129.5 562 Q157 621 181 683.5 Q205 746 220 804 L335 779 ZM870 444 L353 444 L353 530 L755 530 L755 566 L380 566 L380 650 L755 650 L755 686 L361 686 L361 778 L870 778 L870 444 ZM908 -101 Q811 -84 739 -62.5 Q667 -41 608 -10 Q551 -37 481.5 -60 Q412 -83 323 -103 L277 0 Q344 12 399.5 27 Q455 42 502 59 Q452 101 403 158 L450 192 L382 192 L382 242 L291 242 L291 409 L924 409 L924 242 L849 242 L849 194 Q821 154 789.5 120 Q758 86 720 57 Q805 28 947 7 L908 -101 ZM398 321 L398 281 L816 281 L816 321 L398 321 ZM516 192 Q539 167 562 146.5 Q585 126 611 109 Q643 128 670.5 148.5 Q698 169 722 192 L516 192 Z" /><glyph glyph-name="uni4FBF" unicode="&#x4fbf;" d="M328 771 Q315 720 298.5 665.5 Q282 611 260 555 L260 -99 L145 -99 L145 324 Q134 307 123 291 Q112 275 100 259 L18 358 Q48 399 77 450 Q106 501 131.5 558 Q157 615 178 676 Q199 737 213 797 L328 771 ZM906 -99 Q793 -87 705 -69 Q617 -51 545 -16 Q507 -40 454 -61.5 Q401 -83 328 -106 L272 1 Q325 15 365.5 28 Q406 41 436 55 Q390 94 346 153 L395 191 L335 191 L335 601 L556 601 L556 654 L338 654 L338 765 L909 765 L909 654 L668 654 L668 601 L884 601 L884 191 L664 191 Q660 154 652 124 Q644 94 630 69 Q684 51 759.5 39 Q835 27 941 21 L906 -99 ZM448 496 L448 445 L556 445 L556 496 L448 496 ZM668 496 L668 445 L770 445 L770 496 L668 496 ZM448 296 L556 296 L556 346 L448 346 L448 296 ZM770 296 L770 346 L668 346 L668 296 L770 296 ZM450 191 Q467 171 484.5 154.5 Q502 138 523 123 Q541 151 548 191 L450 191 Z" /><glyph glyph-name="uni4FC3" unicode="&#x4fc3;" d="M693 38 Q733 37 764 36.5 Q795 36 823.5 36.5 Q852 37 881 38.5 Q910 40 945 42 L914 -75 Q854 -79 798.5 -80 Q743 -81 685 -79 Q598 -77 539.5 -48 Q481 -19 440 42 Q423 4 400.5 -32 Q378 -68 349 -106 L269 -56 L269 -93 L149 -93 L149 341 Q138 324 126 307 Q114 290 100 272 L22 362 Q57 409 86 463 Q115 517 139 573.5 Q163 630 182 686.5 Q201 743 216 796 L334 763 Q318 709 302 662 Q286 615 269 571 L269 -10 Q299 32 319 71 Q339 110 352 152.5 Q365 195 372 243.5 Q379 292 382 354 L503 338 Q500 295 496 258 Q492 221 485 187 Q501 142 521.5 114 Q542 86 568 69 L568 401 L365 401 L365 768 L876 768 L876 401 L693 401 L693 294 L898 294 L898 175 L693 175 L693 38 ZM491 521 L750 521 L750 646 L491 646 L491 521 Z" /><glyph glyph-name="uni4FC4" unicode="&#x4fc4;" d="M956 109 Q953 78 949 55 Q945 32 940 3 Q934 -29 923 -50.5 Q912 -72 897 -85 Q882 -98 864.5 -103.5 Q847 -109 828 -109 Q785 -109 751 -79 Q717 -49 690 23 L678 55 Q624 9 566 -29 L517 61 L517 24 Q517 -9 510.5 -30 Q504 -51 490.5 -64 Q477 -77 455.5 -83 Q434 -89 404 -92 L350 -97 L316 21 L351 26 Q380 30 391 40 Q402 50 402 74 L402 191 Q370 182 344.5 175 Q319 168 307 165 L286 286 Q301 289 332.5 296.5 Q364 304 402 314 L402 419 L291 419 L291 539 L402 539 L402 612 Q382 607 363 604 Q344 601 327 599 L314 693 Q302 655 289 619.5 Q276 584 262 550 L262 -97 L152 -97 L152 332 Q134 300 113 269 L24 363 Q47 393 76 443.5 Q105 494 133.5 554 Q162 614 186.5 677.5 Q211 741 225 797 L335 764 L320 713 Q347 716 378.5 722 Q410 728 442.5 735.5 Q475 743 507 752 Q539 761 567 772 L591 661 Q575 656 556.5 650 Q538 644 517 639 L517 539 L614 539 Q613 554 612 569 Q611 584 610 600 Q609 620 607.5 647.5 Q606 675 604.5 702.5 Q603 730 602 754 Q601 778 601 792 L716 789 Q715 780 715.5 762.5 Q716 745 717 719 L785 777 Q800 763 817.5 744 Q835 725 852 705.5 Q869 686 883.5 667 Q898 648 908 633 L824 550 Q804 583 774.5 622 Q745 661 718 691 Q718 671 719 647.5 Q720 624 721 596 L724 539 L912 539 L912 419 L732 419 Q735 380 738.5 345.5 Q742 311 746 282 Q789 338 825 406 L913 354 Q851 240 770 146 Q774 126 778 109.5 Q782 93 786 79 Q794 53 805.5 39.5 Q817 26 827 26 Q838 26 842.5 37.5 Q847 49 852 74 Q855 88 857.5 104.5 Q860 121 863 147 L956 109 ZM517 82 Q555 105 587.5 128.5 Q620 152 649 178 Q641 225 634.5 284 Q628 343 622 419 L517 419 L517 342 L603 363 L610 306 L618 247 L517 221 L517 82 Z" /><glyph glyph-name="uni4FCA" unicode="&#x4fca;" d="M894 -107 Q726 -58 614 7 Q563 -25 495 -53.5 Q427 -82 336 -109 L278 3 Q353 23 409 42 Q465 61 510 81 Q490 99 471.5 118.5 Q453 138 436 160 Q392 113 338 72 L270 161 Q318 199 363 251 Q408 303 443 357 Q390 318 332 285 L272 390 Q320 412 367 441.5 Q414 471 451 504 Q419 502 390.5 500 Q362 498 340 496 L317 610 Q332 615 345 620 Q358 625 369 633 Q382 642 403.5 662 Q425 682 449 707.5 Q473 733 497 761 Q521 789 538 815 L646 764 Q628 742 608 720 Q588 698 568.5 678 Q549 658 532 642 Q515 626 504 617 Q547 619 601 621.5 Q655 624 708 626 Q692 641 677.5 654.5 Q663 668 651 679 L728 756 Q747 739 773 714.5 Q799 690 826 663 Q853 636 878.5 609.5 Q904 583 923 562 L848 477 Q840 488 829.5 499 Q819 510 808 522 Q791 521 769.5 520.5 Q748 520 722 518 Q746 505 776 488.5 Q806 472 835.5 455 Q865 438 890.5 422.5 Q916 407 932 396 L884 295 L836 327 L836 240 Q807 193 777 153.5 Q747 114 710 79 Q806 33 946 0 L894 -107 ZM349 772 Q330 707 310 651 Q290 595 267 544 L267 -96 L153 -96 L153 345 Q142 330 131.5 315 Q121 300 109 285 L17 365 Q42 399 74 451.5 Q106 504 137 564 Q168 624 194 687 Q220 750 235 804 L349 772 ZM549 440 Q539 431 529 422.5 Q519 414 508 406 L580 371 Q576 363 572 355 Q568 347 564 339 L818 339 Q775 367 727 395 Q679 423 637 442 L684 516 L499 507 L549 440 ZM518 235 Q536 208 559 184 Q582 160 609 139 Q636 159 658.5 182.5 Q681 206 703 235 L518 235 Z" /><glyph glyph-name="uni4FCF" unicode="&#x4fcf;" d="M906 702 Q895 684 880 664 Q865 644 849 623 Q833 602 817 581.5 Q801 561 786 544 L894 544 L894 42 Q894 8 889 -16 Q884 -40 871.5 -56.5 Q859 -73 836.5 -82 Q814 -91 780 -95 L704 -104 L665 10 L734 18 Q757 21 764.5 34.5 Q772 48 772 71 L772 89 L467 89 L467 -93 L344 -93 L344 544 L449 544 Q437 562 421.5 582.5 Q406 603 389 624 Q372 645 355.5 664 Q339 683 325 698 L413 777 Q428 761 446 741.5 Q464 722 481.5 701 Q499 680 515.5 658.5 Q532 637 545 619 L466 544 L553 544 L553 795 L677 789 L677 544 L765 544 L686 611 Q720 646 755 691 Q790 736 815 774 L906 702 ZM335 761 Q320 708 304 660.5 Q288 613 269 568 L269 -98 L151 -98 L151 349 Q139 331 126 313 Q113 295 99 277 L18 380 Q42 413 71 461.5 Q100 510 128 566.5 Q156 623 179.5 681.5 Q203 740 216 793 L335 761 ZM467 429 L467 370 L772 370 L772 429 L467 429 ZM772 197 L772 260 L467 260 L467 197 L772 197 Z" /><glyph glyph-name="uni4FD0" unicode="&#x4fd0;" d="M636 133 L636 207 L568 146 Q555 167 538.5 191.5 Q522 216 505 239 L505 -94 L395 -94 L395 211 Q358 139 311 74 L254 146 L254 -97 L146 -97 L146 358 Q124 323 96 287 L18 383 Q42 417 69.5 466.5 Q97 516 123.5 572.5 Q150 629 172.5 687.5 Q195 746 208 798 L321 773 Q317 759 313.5 746 Q310 733 305 720 Q337 724 372.5 731 Q408 738 444 746 Q480 754 514 763 Q548 772 577 781 L597 667 Q577 661 553.5 655 Q530 649 505 643 L505 537 L605 537 L605 420 L505 420 L505 352 L536 378 Q559 352 587 315.5 Q615 279 636 246 L636 675 L743 670 L743 133 L636 133 ZM900 762 L900 39 Q900 6 895.5 -18 Q891 -42 878.5 -57.5 Q866 -73 844.5 -82 Q823 -91 789 -95 L719 -103 L680 8 L742 16 Q771 20 781 32 Q791 44 791 70 L791 767 L900 762 ZM254 191 Q289 239 321.5 298 Q354 357 380 420 L282 420 L282 537 L395 537 L395 619 Q371 614 349 610 Q327 606 308 603 L294 682 Q284 653 274.5 625 Q265 597 254 571 L254 191 Z" /><glyph glyph-name="uni4FD7" unicode="&#x4fd7;" d="M896 196 Q882 204 868.5 213 Q855 222 841 231 L841 -83 L357 -83 L357 224 Q336 209 312 194 L268 266 L268 -93 L149 -93 L149 343 Q138 328 127.5 313.5 Q117 299 105 284 L16 370 Q40 402 69.5 453 Q99 504 128.5 563 Q158 622 183 682.5 Q208 743 222 795 L339 765 Q325 720 311.5 678.5 Q298 637 283 598 Q307 616 334.5 639.5 Q362 663 389 689 Q416 715 441 742 Q466 769 486 793 L567 709 Q522 654 464.5 597.5 Q407 541 349 494 L279 589 Q277 581 274 574.5 Q271 568 268 561 L268 318 Q365 380 436.5 452 Q508 524 553 605 L643 605 Q693 517 777.5 441.5 Q862 366 966 305 L896 196 ZM841 500 Q823 519 794 547 Q765 575 733.5 604.5 Q702 634 672 661 Q642 688 622 705 L697 791 Q718 774 747.5 749 Q777 724 808 696 Q839 668 868 641 Q897 614 916 595 L841 500 ZM745 304 Q698 343 661.5 384 Q625 425 601 465 Q576 425 541.5 385 Q507 345 460 304 L745 304 ZM722 188 L474 188 L474 34 L722 34 L722 188 Z" /><glyph glyph-name="uni4FD8" unicode="&#x4fd8;" d="M939 141 L693 141 L693 28 Q693 -5 685.5 -26.5 Q678 -48 661.5 -61 Q645 -74 619 -80.5 Q593 -87 555 -90 L476 -97 L443 17 L523 24 Q549 26 557.5 31 Q566 36 566 60 L566 141 L316 141 L316 253 L566 253 L566 279 L690 355 L379 355 L379 463 L435 463 Q430 473 421.5 490 Q413 507 402.5 525.5 Q392 544 381 563 Q370 582 361 596 L426 636 Q409 634 392.5 633.5 Q376 633 360 632 L349 745 Q409 748 478.5 753 Q548 758 618.5 765 Q689 772 757 781 Q825 790 882 801 L904 689 Q847 678 779 669.5 Q711 661 639 653 Q646 640 655 622 Q664 604 672.5 585.5 Q681 567 688 550.5 Q695 534 697 524 L605 471 Q600 483 592.5 501.5 Q585 520 576 540 Q567 560 557.5 579.5 Q548 599 539 614 L607 650 Q569 646 532 643 Q495 640 460 638 Q469 624 478.5 607.5 Q488 591 497 574.5 Q506 558 513 543.5 Q520 529 524 520 L437 463 L786 463 L709 509 Q719 523 731 543 Q743 563 756 585 Q769 607 780.5 629 Q792 651 800 670 L891 617 Q885 602 875 582.5 Q865 563 853.5 542 Q842 521 829.5 500.5 Q817 480 805 463 L887 463 L887 357 L712 253 L939 253 L939 141 ZM353 769 Q339 721 322.5 676 Q306 631 287 586 L287 -95 L166 -95 L166 353 Q152 330 137.5 307.5 Q123 285 108 264 L30 360 Q60 398 90.5 450.5 Q121 503 148 562 Q175 621 198 682 Q221 743 236 799 L353 769 Z" /><glyph glyph-name="uni4FDD" unicode="&#x4fdd;" d="M328 757 Q314 705 300 660 Q286 615 270 573 L270 -97 L153 -97 L153 344 Q142 328 131 312 Q120 296 108 279 L22 371 Q93 470 141 573.5 Q189 677 210 789 L328 757 ZM694 241 Q745 182 808.5 136.5 Q872 91 956 51 L886 -52 Q808 -1 758 42 Q708 85 671 130 L671 -87 L553 -87 L553 130 Q509 79 455.5 34.5 Q402 -10 334 -49 L270 55 Q313 76 347.5 96 Q382 116 411.5 138 Q441 160 467 185 Q493 210 518 241 L318 241 L318 352 L553 352 L553 421 L357 421 L357 766 L865 766 L865 421 L671 421 L671 352 L907 352 L907 241 L694 241 ZM482 537 L741 537 L741 650 L482 650 L482 537 Z" /><glyph glyph-name="uni4FE1" unicode="&#x4fe1;" d="M926 713 L926 597 L329 597 L329 700 Q318 670 305.5 637 Q293 604 277 569 L277 -94 L157 -94 L157 340 Q146 322 134 303.5 Q122 285 109 266 L23 358 Q66 415 100 473.5 Q134 532 160.5 589.5 Q187 647 206.5 701.5 Q226 756 241 805 L351 770 Q343 743 333 713 L561 713 L543 790 L671 796 L688 713 L926 713 ZM872 443 L374 443 L374 549 L872 549 L872 443 ZM374 399 L872 399 L872 293 L374 293 L374 399 ZM375 244 L873 244 L873 -76 L375 -76 L375 244 ZM500 40 L747 40 L747 132 L500 132 L500 40 Z" /><glyph glyph-name="uni4FE9" unicode="&#x4fe9;" d="M307 775 Q296 724 283 678 Q270 632 255 588 L255 -101 L143 -101 L143 349 Q133 332 122 316 Q111 300 100 283 L14 368 Q35 400 61 451 Q87 502 112 560.5 Q137 619 158.5 680.5 Q180 742 192 795 L307 775 ZM929 647 L746 647 L746 562 L904 562 L904 24 Q904 -9 899.5 -30.5 Q895 -52 883 -66 Q871 -80 851 -87 Q831 -94 800 -98 L742 -105 L704 10 L760 17 Q781 19 786.5 29 Q792 39 792 66 L792 138 L755 110 Q746 129 734 151 Q722 173 708 196 Q694 152 674.5 108.5 Q655 65 628 16 L532 73 Q556 112 573.5 146 Q591 180 603 214 L566 181 Q556 203 545 222 Q521 134 470 44 L424 75 L424 -99 L314 -99 L314 562 L469 562 L469 647 L313 647 L313 763 L929 763 L929 647 ZM640 562 Q640 582 640.5 604.5 Q641 627 641 647 L579 647 Q579 627 578.5 605 Q578 583 577 562 L640 562 ZM424 198 Q436 226 443.5 254 Q451 282 455.5 312 Q460 342 462.5 375 Q465 408 467 446 L424 446 L424 198 ZM571 376 Q585 355 599 333 Q613 311 625 290 Q633 325 636 362.5 Q639 400 640 446 L575 446 Q574 428 573.5 410.5 Q573 393 571 376 ZM792 446 L744 446 Q743 417 741.5 390.5 Q740 364 737 339 L792 250 L792 446 Z" /><glyph glyph-name="uni4FED" unicode="&#x4fed;" d="M265 451 L265 -93 L142 -93 L142 334 Q130 316 118 298.5 Q106 281 94 264 L16 370 Q45 405 76 456.5 Q107 508 135.5 567 Q164 626 187.5 687.5 Q211 749 226 805 L349 773 Q313 656 265 553 L265 500 Q366 569 434 646 Q502 723 547 814 L640 814 Q690 715 771 631 Q852 547 958 476 L885 377 Q862 393 840 409 Q818 425 798 442 L798 384 L392 384 L392 444 Q356 413 313 383 L265 451 ZM595 663 Q571 624 536.5 584 Q502 544 459 502 L730 502 Q686 544 652 584.5 Q618 625 595 663 ZM865 338 Q856 309 842.5 272 Q829 235 814 195.5 Q799 156 783.5 116 Q768 76 754 41 L900 41 L900 -78 L296 -78 L296 41 L631 41 L666 131 L571 93 Q566 119 557 152.5 Q548 186 538 221 Q528 256 517.5 289 Q507 322 498 346 L605 381 Q612 361 621 333 Q630 305 639.5 273.5 Q649 242 658 210.5 Q667 179 674 152 Q697 212 717.5 271 Q738 330 752 379 L865 338 ZM405 59 Q398 87 387 124 Q376 161 364.5 199.5 Q353 238 341.5 273.5 Q330 309 321 333 L427 370 Q437 343 448.5 308 Q460 273 472 236.5 Q484 200 494.5 165 Q505 130 513 103 L405 59 Z" /><glyph glyph-name="uni4FEE" unicode="&#x4fee;" d="M384 79 L286 79 L286 656 L384 651 L384 591 Q432 639 472.5 697 Q513 755 538 810 L648 784 Q643 772 637.5 760.5 Q632 749 625 737 L883 737 L883 639 Q858 600 828.5 564.5 Q799 529 759 496 Q801 477 849 461 Q897 445 953 432 L914 325 Q863 338 819 353 Q775 368 736 385 L764 337 Q697 289 618.5 250.5 Q540 212 457 187 L412 280 Q486 302 558 335 Q630 368 692 406 Q675 414 657 426 Q609 398 549.5 372.5 Q490 347 416 323 L384 397 L384 79 ZM318 782 Q303 725 285 670 Q267 615 245 561 L245 -95 L141 -95 L141 355 Q120 322 94 287 L10 359 Q34 395 63 449 Q92 503 120 564 Q148 625 172 688 Q196 751 210 805 L318 782 ZM663 551 Q691 571 713 592 Q735 613 753 636 L570 636 Q607 591 663 551 ZM384 530 L384 431 Q491 463 563 495 Q546 509 531.5 524.5 Q517 540 503 557 Q485 536 465 516 Q445 496 424 477 L384 530 ZM395 127 Q508 161 607 210 Q706 259 784 318 L840 239 Q761 178 659.5 128.5 Q558 79 445 45 L395 127 ZM354 -14 Q502 22 631.5 81 Q761 140 861 218 L920 136 Q821 54 690.5 -6 Q560 -66 399 -107 L354 -14 Z" /><glyph glyph-name="uni4FEF" unicode="&#x4fef;" d="M923 365 L851 365 L851 31 Q851 -5 846 -28.5 Q841 -52 828.5 -66 Q816 -80 793.5 -87 Q771 -94 736 -97 L674 -102 L638 10 L695 16 Q711 18 721 20 Q731 22 736.5 26.5 Q742 31 744 40 Q746 49 746 66 L746 173 L664 120 Q658 138 647 163.5 Q636 189 624 215.5 Q612 242 600.5 266 Q589 290 580 304 L580 -99 L478 -99 L478 289 Q472 281 466 273.5 Q460 266 454 258 L430 280 Q428 220 423.5 172 Q419 124 410.5 81.5 Q402 39 388.5 -1.5 Q375 -42 356 -85 L260 -45 L260 -100 L147 -100 L147 330 Q136 312 124.5 294 Q113 276 101 259 L20 357 Q48 396 75 445 Q102 494 126.5 550 Q151 606 172.5 668 Q194 730 212 795 L327 771 Q313 718 296.5 666.5 Q280 615 260 564 L260 -2 Q282 43 294.5 83.5 Q307 124 313 168.5 Q319 213 320.5 264.5 Q322 316 322 383 L322 716 L562 716 L544 793 L672 799 L689 716 L911 716 L911 603 L432 603 L432 398 Q461 441 486.5 491.5 Q512 542 527 596 L621 563 Q610 533 600 508 Q590 483 580 460 L580 311 L661 356 Q670 342 681 321.5 Q692 301 704 278 Q716 255 727 231.5 Q738 208 746 188 L746 365 L600 365 L600 475 L746 475 L746 570 L851 565 L851 475 L923 475 L923 365 Z" /><glyph glyph-name="uni4FF1" unicode="&#x4ff1;" d="M328 770 Q304 662 260 559 L260 -97 L144 -97 L144 345 Q133 328 121.5 313 Q110 298 99 283 L17 374 Q42 409 70.5 458 Q99 507 125.5 563 Q152 619 175 679 Q198 739 213 795 L328 770 ZM754 112 Q801 87 849.5 58.5 Q898 30 935 5 L878 -102 Q855 -86 825 -66.5 Q795 -47 763 -27 Q731 -7 700 11.5 Q669 30 644 44 L686 112 L520 112 L566 51 Q540 30 510.5 8 Q481 -14 450 -34 Q419 -54 387.5 -73 Q356 -92 326 -107 L262 -3 Q292 12 318 25.5 Q344 39 367.5 52.5 Q391 66 413 80.5 Q435 95 458 112 L287 112 L287 218 L361 218 L361 772 L856 772 L856 218 L926 218 L926 112 L754 112 ZM477 666 L477 625 L739 625 L739 666 L477 666 ZM739 530 L477 530 L477 489 L739 489 L739 530 ZM477 396 L477 354 L739 354 L739 396 L477 396 ZM477 218 L739 218 L739 259 L477 259 L477 218 Z" /><glyph glyph-name="uni4FFA" unicode="&#x4ffa;" d="M843 36 Q846 53 847.5 66.5 Q849 80 850 98 L948 68 Q947 52 944.5 28 Q942 4 938 -13 Q934 -36 925 -50 Q916 -64 900.5 -72 Q885 -80 861 -83.5 Q837 -87 803 -90 Q724 -96 645 -90 Q583 -86 558.5 -61.5 Q534 -37 534 23 L534 72 L335 72 L335 357 Q325 349 314.5 341.5 Q304 334 293 326 L259 378 L259 -94 L149 -94 L149 348 Q136 328 122.5 309.5 Q109 291 94 273 L18 368 Q88 469 139 580.5 Q190 692 217 798 L332 768 L314 707 L499 707 Q519 753 532 801 L635 778 Q630 759 624.5 741.5 Q619 724 612 707 L897 707 L897 600 L734 600 Q772 546 828.5 502 Q885 458 953 426 L895 328 Q881 336 867.5 344.5 Q854 353 840 363 L840 72 L641 72 L641 56 Q641 30 648.5 18 Q656 6 681 4 Q736 0 792 4 Q815 6 827.5 11.5 Q840 17 843 36 ZM259 438 Q369 511 436 600 L306 600 L306 683 Q295 651 283.5 619.5 Q272 588 259 557 L259 438 ZM563 600 Q541 562 514.5 527.5 Q488 493 455 460 L534 460 L534 546 L641 542 L641 460 L725 460 Q692 494 664 529.5 Q636 565 615 600 L563 600 ZM534 358 L442 358 L442 314 L534 314 L534 358 ZM641 314 L733 314 L733 358 L641 358 L641 314 ZM534 171 L534 217 L442 217 L442 171 L534 171 ZM733 171 L733 217 L641 217 L641 171 L733 171 Z" /><glyph glyph-name="uni500D" unicode="&#x500d;" d="M925 456 L925 337 L314 337 L314 456 L447 456 L427 591 L356 591 L356 707 L556 707 L536 791 L665 800 L685 707 L885 707 L885 591 L814 591 L788 456 L925 456 ZM353 757 Q322 655 276 552 L276 -97 L159 -97 L159 335 Q147 318 135 301 Q123 284 111 268 L25 360 Q91 448 144.5 555.5 Q198 663 233 789 L353 757 ZM562 456 L673 456 L699 591 L544 591 L562 456 ZM367 272 L860 272 L860 -84 L367 -84 L367 272 ZM490 32 L737 32 L737 159 L490 159 L490 32 Z" /><glyph glyph-name="uni5012" unicode="&#x5012;" d="M294 776 Q279 720 263.5 668 Q248 616 230 567 L230 -96 L126 -96 L126 343 Q116 326 105 309.5 Q94 293 83 277 L10 382 Q38 424 63.5 474.5 Q89 525 110.5 579 Q132 633 149.5 689 Q167 745 179 799 L294 776 ZM890 785 L890 29 Q890 -7 884.5 -30.5 Q879 -54 868 -67.5 Q857 -81 840 -87.5 Q823 -94 800 -96 L705 -105 L671 7 L728 13 Q745 15 755.5 17.5 Q766 20 771.5 25 Q777 30 779 39 Q781 48 781 63 L781 791 L890 785 ZM541 607 Q551 589 564.5 562.5 Q578 536 591.5 507 Q605 478 617.5 449 Q630 420 639 397 L555 349 L541 385 Q519 383 489 381 Q459 379 428 377 Q397 375 368.5 372.5 Q340 370 320 368 Q312 367 305.5 366 Q299 365 291 363 L265 467 Q270 470 276.5 477 Q283 484 285 489 Q289 495 297 509.5 Q305 524 315 542.5 Q325 561 335.5 582.5 Q346 604 356 625 L285 625 L285 742 L611 742 L611 625 L463 625 Q453 603 443 580.5 Q433 558 423.5 538.5 Q414 519 406 504 Q398 489 393 482 Q415 484 441.5 485.5 Q468 487 495 489 Q485 511 475.5 530 Q466 549 458 564 L541 607 ZM743 123 L640 123 L640 672 L743 666 L743 123 ZM631 55 L633 -11 Q624 -11 596.5 -14 Q569 -17 531 -21.5 Q493 -26 450.5 -30.5 Q408 -35 369.5 -39.5 Q331 -44 302.5 -48 Q274 -52 264 -53 L254 66 Q264 66 302.5 69 Q341 72 391 77 L391 171 L284 171 L284 286 L391 286 L391 371 L496 366 L496 286 L598 286 L598 171 L496 171 L496 88 Q544 93 581.5 97 Q619 101 629 103 L631 55 Z" /><glyph glyph-name="uni5014" unicode="&#x5014;" d="M910 764 L910 488 L442 488 L442 448 Q442 358 438.5 286 Q435 214 425.5 152 Q416 90 399 33 Q382 -24 355 -84 L254 -34 L254 -93 L141 -93 L141 347 Q130 329 117.5 312.5 Q105 296 92 279 L14 376 Q68 457 119 564.5 Q170 672 202 805 L319 778 Q305 727 289.5 676 Q274 625 254 574 L254 -10 Q279 40 294 85 Q309 130 316 181.5 Q323 233 325 297 Q327 361 327 450 L327 764 L910 764 ZM795 653 L442 653 L442 591 L795 591 L795 653 ZM811 180 L910 175 L910 -75 L453 -75 L453 181 L552 176 L552 31 L630 31 L630 214 L471 214 L471 437 L565 432 L565 324 L630 324 L630 467 L730 462 L730 324 L794 324 L794 436 L890 431 L890 214 L730 214 L730 31 L811 31 L811 180 Z" /><glyph glyph-name="uni5018" unicode="&#x5018;" d="M316 766 Q301 711 285.5 662 Q270 613 253 568 L253 -101 L140 -101 L140 341 Q130 325 119 309.5 Q108 294 97 278 L14 372 Q39 409 66 456 Q93 503 118 557 Q143 611 165 669.5 Q187 728 202 788 L316 766 ZM900 540 L900 42 Q900 5 895.5 -19.5 Q891 -44 878 -60 Q865 -76 843 -84.5 Q821 -93 787 -97 L720 -105 L681 4 L743 12 Q771 16 777.5 26.5 Q784 37 784 66 L784 423 L427 423 L427 -99 L313 -99 L313 540 L436 540 Q423 557 407 578 Q391 599 373.5 619 Q356 639 340 657.5 Q324 676 311 689 L397 768 Q410 755 426.5 737 Q443 719 460.5 699 Q478 679 494.5 658 Q511 637 525 619 L448 540 L541 540 L541 787 L665 782 L665 540 L751 540 L675 612 Q689 625 707 644.5 Q725 664 743 685.5 Q761 707 778 728 Q795 749 806 764 L893 691 Q883 676 868 655.5 Q853 635 836 614 Q819 593 802 573.5 Q785 554 772 540 L900 540 ZM742 45 L469 45 L469 374 L742 374 L742 45 ZM645 260 L566 260 L566 154 L645 154 L645 260 Z" /><glyph glyph-name="uni5019" unicode="&#x5019;" d="M316 775 Q301 716 284 663.5 Q267 611 247 560 L247 -100 L142 -100 L142 346 Q132 329 121.5 312 Q111 295 100 278 L17 364 Q40 398 67.5 450.5 Q95 503 121 562 Q147 621 169.5 682.5 Q192 744 205 798 L316 775 ZM733 152 Q762 101 816 61 Q870 21 945 -2 L886 -104 Q731 -45 660 70 Q626 19 567.5 -22.5 Q509 -64 418 -102 L348 -4 Q444 30 500 69 Q556 108 581 152 L416 152 L416 253 L480 253 L395 310 Q424 352 445.5 394 Q467 436 487 490 L417 490 L417 589 L716 589 L722 653 L465 653 L465 760 L841 760 L828 589 L918 589 L918 490 L492 490 L587 469 L572 426 L868 426 L868 324 L717 324 Q717 304 716.5 285.5 Q716 267 715 253 L904 253 L904 152 L733 152 ZM394 57 L293 57 L293 680 L394 675 L394 57 ZM527 324 Q517 307 506.5 289 Q496 271 484 253 L602 253 L605 324 L527 324 Z" /><glyph glyph-name="uni501A" unicode="&#x501a;" d="M334 773 Q320 720 302 670 Q284 620 264 572 L264 -95 L147 -95 L147 345 Q124 309 102 276 L15 364 Q40 398 69.5 450 Q99 502 127 561.5 Q155 621 178.5 683.5 Q202 746 215 800 L334 773 ZM932 339 L856 339 L856 29 Q856 -5 850 -27 Q844 -49 830.5 -63 Q817 -77 794.5 -84.5 Q772 -92 740 -97 L682 -106 L643 3 L709 12 Q729 15 733 25 Q737 35 737 62 L737 339 L290 339 L290 451 L365 451 L335 510 Q374 521 403 532 Q432 543 454 554.5 Q476 566 490.5 579 Q505 592 515 608 L344 608 L344 717 L541 717 Q543 734 543.5 757 Q544 780 544 794 L665 789 Q664 777 664 756.5 Q664 736 663 717 L878 717 L878 608 L674 608 Q698 596 724 582.5 Q750 569 775 555.5 Q800 542 821.5 530 Q843 518 857 509 L827 451 L932 451 L932 339 ZM605 531 Q566 489 487 451 L744 451 Q710 471 672.5 492.5 Q635 514 605 531 ZM668 15 L342 15 L342 293 L668 293 L668 15 ZM569 195 L441 195 L441 113 L569 113 L569 195 Z" /><glyph glyph-name="uni501F" unicode="&#x501f;" d="M331 778 Q315 722 299 673 Q283 624 265 578 L265 -93 L150 -93 L150 353 Q140 339 130.5 324 Q121 309 110 294 L17 376 Q48 421 78 474 Q108 527 134 583 Q160 639 180.5 695.5 Q201 752 213 805 L331 778 ZM932 508 L932 397 L295 397 L295 508 L424 508 L424 583 L327 583 L327 693 L424 693 L424 794 L543 789 L543 693 L657 693 L657 794 L780 789 L780 693 L890 693 L890 583 L780 583 L780 508 L932 508 ZM543 508 L657 508 L657 583 L543 583 L543 508 ZM348 355 L862 355 L862 -83 L348 -83 L348 355 ZM472 247 L472 190 L738 190 L738 247 L472 247 ZM738 22 L738 84 L472 84 L472 22 L738 22 Z" /><glyph glyph-name="uni5021" unicode="&#x5021;" d="M353 759 Q319 652 277 563 L277 -98 L160 -98 L160 352 Q149 334 137 316 Q125 298 112 278 L18 354 Q52 403 84 459 Q116 515 144 572 Q172 629 194.5 685 Q217 741 233 792 L353 759 ZM858 379 L378 379 L378 755 L858 755 L858 379 ZM493 654 L493 615 L742 615 L742 654 L493 654 ZM742 481 L742 521 L493 521 L493 481 L742 481 ZM893 339 L893 -83 L344 -83 L344 339 L893 339 ZM460 235 L460 181 L776 181 L776 235 L460 235 ZM776 21 L776 80 L460 80 L460 21 L776 21 Z" /><glyph glyph-name="uni5026" unicode="&#x5026;" d="M648 171 Q661 173 665 176.5 Q669 180 671 193 L673 213 L498 213 L498 69 Q498 54 499.5 44.5 Q501 35 505.5 29.5 Q510 24 519.5 22 Q529 20 545 19 Q625 14 706 19 Q725 20 737 22.5 Q749 25 756 29.5 Q763 34 766.5 42 Q770 50 773 63 Q778 88 778 121 L892 90 Q889 56 881 17 Q875 -14 864.5 -33.5 Q854 -53 837 -64.5 Q820 -76 795 -81 Q770 -86 733 -88 Q627 -94 523 -88 Q452 -84 419 -58.5 Q386 -33 386 34 L386 183 Q365 165 342 147 Q319 129 295 110 L264 159 L264 -94 L146 -94 L146 361 Q134 342 122 323.5 Q110 305 96 286 L12 385 Q37 418 67 467 Q97 516 125 572 Q153 628 177 687 Q201 746 214 797 L331 770 Q316 717 299.5 671 Q283 625 264 581 L264 234 Q310 266 348.5 301 Q387 336 418 374 L290 374 L290 481 L484 481 Q489 490 492.5 499.5 Q496 509 500 519 L319 519 L319 624 L388 624 Q376 651 362.5 679 Q349 707 339 730 L442 761 Q451 739 467 700 Q483 661 497 624 L527 624 Q535 666 542.5 714 Q550 762 555 801 L666 787 Q662 749 655.5 706.5 Q649 664 641 624 L689 624 Q696 640 704.5 659 Q713 678 721.5 697 Q730 716 737.5 734 Q745 752 750 767 L850 734 Q841 712 826 682 Q811 652 797 624 L888 624 L888 519 L618 519 Q613 498 606 481 L914 481 L914 374 L780 374 Q814 339 860 307.5 Q906 276 963 247 L901 139 Q870 158 840 179.5 Q810 201 782 225 Q780 208 779.5 193.5 Q779 179 778 168 Q776 140 771.5 121.5 Q767 103 757.5 92 Q748 81 731.5 75.5 Q715 70 688 68 L611 61 L578 165 L648 171 ZM684 322 Q673 335 664 348 Q655 361 647 374 L556 374 Q541 349 520 322 L684 322 Z" /><glyph glyph-name="uni503A" unicode="&#x503a;" d="M933 470 L933 379 L292 379 L292 470 L547 470 L547 504 L350 504 L350 592 L547 592 L547 625 L339 625 L339 715 L547 715 L547 793 L666 788 L666 715 L889 715 L889 625 L666 625 L666 592 L860 592 L860 504 L666 504 L666 470 L933 470 ZM334 764 Q318 707 301 655.5 Q284 604 264 555 L264 -97 L149 -97 L149 341 Q132 315 113 290 L21 373 Q48 408 76.5 456.5 Q105 505 132 560.5 Q159 616 181.5 674 Q204 732 218 787 L334 764 ZM751 75 Q793 55 833 34.5 Q873 14 904 -2 L858 -109 Q834 -95 801.5 -76.5 Q769 -58 734.5 -39 Q700 -20 666 -2 Q632 16 605 30 Q588 7 563.5 -11.5 Q539 -30 505.5 -47 Q472 -64 428.5 -80.5 Q385 -97 330 -116 L286 -4 Q373 19 423.5 40 Q474 61 500.5 84 Q527 107 536 133.5 Q545 160 549 193 Q550 200 550.5 209.5 Q551 219 551 226 L656 219 Q656 209 655.5 200 Q655 191 654 183 Q652 167 650 153 Q648 139 646 126 Q666 116 689.5 105 Q713 94 738 81 L738 249 L472 249 L472 72 L360 72 L360 344 L849 344 L849 75 L751 75 Z" /><glyph glyph-name="uni503C" unicode="&#x503c;" d="M322 781 Q292 672 255 578 L255 -94 L138 -94 L138 336 Q128 319 118.5 303.5 Q109 288 98 271 L19 385 Q43 421 69 470 Q95 519 119 574.5 Q143 630 163 690 Q183 750 197 808 L322 781 ZM933 38 L933 -68 L283 -68 L283 38 L346 38 L346 577 L544 577 L544 624 L330 624 L330 730 L544 730 L544 793 L666 788 L666 730 L895 730 L895 624 L666 624 L666 577 L864 577 L864 38 L933 38 ZM467 475 L467 437 L744 437 L744 475 L467 475 ZM744 341 L467 341 L467 304 L744 304 L744 341 ZM467 209 L467 171 L744 171 L744 209 L467 209 ZM467 38 L744 38 L744 76 L467 76 L467 38 Z" /><glyph glyph-name="uni503E" unicode="&#x503e;" d="M297 773 Q285 726 273 684.5 Q261 643 247 603 L247 -94 L136 -94 L136 348 Q127 330 117.5 312.5 Q108 295 97 276 L12 360 Q34 397 60.5 452 Q87 507 112.5 567.5 Q138 628 158.5 688 Q179 748 189 795 L297 773 ZM504 112 Q498 107 484 97 Q470 87 453.5 74.5 Q437 62 419 48.5 Q401 35 386 24 Q375 15 364.5 6.5 Q354 -2 343 -10 L278 88 Q301 102 305.5 118 Q310 134 310 159 L310 773 L419 768 L419 566 L485 566 L485 448 L419 448 L419 185 Q432 196 448.5 209.5 Q465 223 478 233 L504 112 ZM796 124 Q817 106 838 86.5 Q859 67 878.5 49 Q898 31 914.5 15 Q931 -1 942 -13 L871 -101 Q856 -83 836 -61.5 Q816 -40 793.5 -18 Q771 4 748 26 Q725 48 704 67 Q678 19 631 -23 Q584 -65 510 -110 L450 -7 Q519 28 559.5 60 Q600 92 621 128 Q642 164 647.5 207 Q653 250 653 307 L653 443 L747 438 L747 282 Q747 252 745.5 225.5 Q744 199 740 175 L791 129 L791 480 L609 480 L609 125 L512 125 L512 582 L634 582 Q637 601 640.5 620 Q644 639 648 657 L510 657 L510 762 L912 762 L912 657 L758 657 Q754 640 750 620.5 Q746 601 742 582 L890 582 L890 124 L796 124 Z" /><glyph glyph-name="uni5047" unicode="&#x5047;" d="M317 775 Q302 718 287 670 Q272 622 255 578 L255 -98 L143 -98 L143 350 Q134 336 125 321 Q116 306 105 291 L21 381 Q45 417 70.5 465 Q96 513 120.5 568 Q145 623 165.5 681 Q186 739 200 795 L317 775 ZM427 85 L427 -91 L319 -91 L319 768 L600 768 L600 451 L427 451 L427 384 L570 384 L570 270 L427 270 L427 198 L585 198 L585 85 L427 85 ZM885 452 L626 452 L626 568 L775 568 L775 651 L627 651 L627 767 L885 767 L885 452 ZM427 652 L427 565 L495 565 L495 652 L427 652 ZM802 100 Q831 74 868 50 Q905 26 953 2 L893 -105 Q845 -76 805 -45.5 Q765 -15 732 20 Q666 -45 556 -105 L493 -5 Q600 52 665 106 Q622 174 594 263 L675 291 L590 291 L590 404 L890 404 L890 289 Q874 236 853 189 Q832 142 802 100 ZM690 291 Q708 228 736 181 Q772 230 792 291 L690 291 Z" /><glyph glyph-name="uni504E" unicode="&#x504e;" d="M311 762 Q297 712 282 666 Q267 620 250 576 L250 -101 L135 -101 L135 344 Q123 325 110.5 307 Q98 289 84 270 L8 383 Q72 471 119 572.5 Q166 674 201 792 L311 762 ZM864 369 L332 369 L332 765 L864 765 L864 369 ZM453 667 L453 614 L547 614 L547 667 L453 667 ZM743 667 L651 667 L651 614 L743 614 L743 667 ZM453 465 L547 465 L547 518 L453 518 L453 465 ZM743 465 L743 518 L651 518 L651 465 L743 465 ZM746 86 Q784 60 832.5 39.5 Q881 19 942 2 L879 -94 Q786 -63 719.5 -25 Q653 13 603 69 L608 -22 Q600 -24 582 -30.5 Q564 -37 540.5 -45.5 Q517 -54 491.5 -63.5 Q466 -73 445 -82 Q428 -89 409 -96.5 Q390 -104 373 -113 L325 -7 Q343 2 347 14.5 Q351 27 351 48 L351 229 L273 229 L273 332 L907 332 L907 229 L822 229 L869 167 Q843 148 811.5 127 Q780 106 746 86 ZM464 43 Q490 53 524 66 Q558 79 586 89 Q540 147 507 229 L464 229 L464 43 ZM668 157 Q698 175 724.5 192.5 Q751 210 776 229 L621 229 Q631 209 642.5 191.5 Q654 174 668 157 Z" /><glyph glyph-name="uni504F" unicode="&#x504f;" d="M900 404 L900 16 Q900 -13 896.5 -31 Q893 -49 885 -59.5 Q877 -70 865 -75 Q853 -80 836 -82 L780 -90 L750 12 L773 16 Q787 18 791.5 27 Q796 36 796 53 L796 113 L748 113 L748 -36 L649 -36 L649 113 L611 113 L611 -36 L512 -36 L512 113 L474 113 L474 -87 L374 -87 L374 110 Q349 24 309 -51 L249 -6 L249 -96 L139 -96 L139 345 Q131 333 123 321 Q115 309 106 295 L19 376 Q44 414 71.5 464.5 Q99 515 124.5 570.5 Q150 626 171.5 683 Q193 740 205 791 L312 758 Q295 696 280.5 648 Q266 600 249 558 L249 84 Q266 121 278 162 Q290 203 297 252.5 Q304 302 307 362.5 Q310 423 310 499 L310 717 L548 717 L527 799 L646 805 L665 717 L890 717 L890 452 L420 452 Q420 440 419.5 428 Q419 416 419 404 L900 404 ZM420 615 L420 556 L777 556 L777 615 L420 615 ZM511 212 L511 302 L474 302 L474 212 L511 212 ZM649 212 L649 302 L611 302 L611 212 L649 212 ZM796 212 L796 302 L748 302 L748 212 L796 212 Z" /><glyph glyph-name="uni505A" unicode="&#x505a;" d="M795 178 Q858 79 963 -12 L886 -111 Q837 -67 798.5 -24 Q760 19 730 66 Q699 22 659.5 -22 Q620 -66 569 -114 L501 -22 L278 -22 L278 394 L366 394 L366 522 L266 522 L266 638 L366 638 L366 790 L479 786 L479 638 L574 638 L574 524 Q604 590 624 662.5 Q644 735 653 801 L760 782 Q755 750 748 717.5 Q741 685 733 653 L925 653 L925 536 L876 536 Q866 427 848 340.5 Q830 254 795 178 ZM299 764 Q285 716 270.5 671.5 Q256 627 239 585 L239 -89 L129 -89 L129 366 Q119 351 109.5 335.5 Q100 320 89 304 L10 392 Q70 490 114.5 588.5 Q159 687 185 795 L299 764 ZM696 536 Q693 528 690 519 Q687 510 683 502 Q697 391 732 303 Q749 352 759.5 409.5 Q770 467 777 536 L696 536 ZM479 394 L559 394 L525 435 Q539 455 550.5 477 Q562 499 573 522 L479 522 L479 394 ZM564 47 Q597 79 624 110.5 Q651 142 672 176 Q654 220 640.5 267 Q627 314 616 366 Q612 360 608.5 354 Q605 348 601 343 L564 388 L564 47 ZM460 278 L379 278 L379 94 L460 94 L460 278 Z" /><glyph glyph-name="uni505C" unicode="&#x505c;" d="M547 718 L528 798 L654 803 L672 718 L900 718 L900 625 L322 625 L322 718 L547 718 ZM330 773 Q311 706 293 650 Q275 594 254 543 L254 -96 L147 -96 L147 346 Q128 318 103 287 L17 370 Q52 422 81 473.5 Q110 525 134 577.5 Q158 630 177.5 684.5 Q197 739 214 798 L330 773 ZM352 393 L352 591 L851 591 L851 393 L352 393 ZM467 474 L735 474 L735 510 L467 510 L467 474 ZM927 358 L927 180 L813 180 L813 266 L392 266 L392 181 L284 181 L284 358 L927 358 ZM407 225 L796 225 L796 123 L676 123 L676 20 Q676 -12 670.5 -33 Q665 -54 650.5 -67 Q636 -80 612 -87 Q588 -94 552 -98 L495 -105 L454 6 L514 13 Q540 16 547.5 23 Q555 30 555 53 L555 123 L407 123 L407 225 Z" /><glyph glyph-name="uni5065" unicode="&#x5065;" d="M617 499 L488 499 L488 593 L617 593 L617 631 L510 631 L510 723 L617 723 L617 790 L721 786 L721 723 L878 723 L878 593 L917 593 L917 499 L878 499 L878 368 L721 368 L721 330 L875 330 L875 239 L721 239 L721 203 L899 203 L899 110 L721 110 L721 45 L617 45 L617 110 L475 110 L475 203 L617 203 L617 239 L510 239 L510 330 L617 330 L617 368 L509 368 L509 459 L617 459 L617 499 ZM624 23 Q779 18 937 26 L907 -74 Q829 -77 759.5 -77 Q690 -77 615 -75 Q541 -73 480.5 -55.5 Q420 -38 372 9 Q356 -17 337 -44.5 Q318 -72 295 -104 L226 -45 L226 -97 L125 -97 L125 360 Q115 342 105 324 Q95 306 84 288 L13 380 Q34 417 57 465.5 Q80 514 102 568 Q124 622 142 679 Q160 736 171 789 L279 769 Q268 720 255 673.5 Q242 627 226 582 L226 -9 Q250 20 269.5 47.5 Q289 75 304 101 Q263 177 235 298 L326 329 Q333 300 340.5 273.5 Q348 247 358 221 Q369 255 374.5 290.5 Q380 326 383 367 L261 367 L261 469 L367 635 L283 635 L283 738 L480 738 L480 634 L375 469 L481 469 L481 363 Q470 281 457.5 221 Q445 161 422 107 Q456 70 504.5 47.5 Q553 25 624 23 ZM721 593 L776 593 L776 631 L721 631 L721 593 ZM776 499 L721 499 L721 459 L776 459 L776 499 Z" /><glyph glyph-name="uni5076" unicode="&#x5076;" d="M331 766 Q312 703 293 650 Q274 597 254 549 L254 -101 L140 -101 L140 342 Q117 309 92 276 L17 380 Q44 419 72.5 466 Q101 513 127 566 Q153 619 175.5 676.5 Q198 734 214 794 L331 766 ZM898 325 L898 21 Q898 -7 894 -28 Q890 -49 879 -63 Q868 -77 848.5 -85.5 Q829 -94 799 -97 L727 -105 L695 -5 L746 1 Q769 4 778 10.5 Q787 17 787 43 L787 218 L651 218 L651 143 L687 146 Q683 157 680 167 Q677 177 675 185 L736 205 Q741 190 747.5 169.5 Q754 149 760 125.5 Q766 102 771.5 79 Q777 56 780 37 L719 13 Q717 21 715 30.5 Q713 40 711 50 Q686 48 645.5 44 Q605 40 564 36 Q523 32 488 28 Q453 24 439 22 L428 129 Q442 130 473 131.5 Q504 133 541 135 L541 218 L416 218 L416 -93 L305 -93 L305 325 L541 325 L541 364 L333 364 L333 765 L865 765 L865 364 L651 364 L651 325 L898 325 ZM446 664 L446 615 L541 615 L541 664 L446 664 ZM752 664 L651 664 L651 615 L752 615 L752 664 ZM541 466 L541 514 L446 514 L446 466 L541 466 ZM752 466 L752 514 L651 514 L651 466 L752 466 Z" /><glyph glyph-name="uni5077" unicode="&#x5077;" d="M651 808 Q702 736 782 671.5 Q862 607 956 564 L898 453 Q861 470 826 490.5 Q791 511 759 534 L759 493 L435 493 L435 529 Q388 494 332 459 L607 459 L607 3 Q607 -47 589 -69 Q571 -91 522 -97 L487 -101 L449 6 L482 11 Q495 13 499.5 17.5 Q504 22 504 39 L504 85 L412 85 L412 -97 L309 -97 L309 445 Q306 444 300 440 L251 527 L251 -106 L143 -106 L143 345 L100 278 L23 393 Q49 427 77 474 Q105 521 131 574 Q157 627 179 683.5 Q201 740 215 793 L337 768 Q319 708 299.5 657.5 Q280 607 259 559 Q357 613 427 674.5 Q497 736 546 808 L651 808 ZM688 590 Q631 640 600 686 Q583 663 560.5 638.5 Q538 614 511 590 L688 590 ZM772 463 L874 458 L874 28 Q874 -5 869 -27 Q864 -49 852 -63 Q840 -77 821 -84 Q802 -91 775 -95 L715 -103 L677 -4 L743 5 Q763 8 767.5 16.5 Q772 25 772 51 L772 463 ZM741 78 L641 78 L641 430 L741 425 L741 78 ZM412 367 L412 320 L504 320 L504 367 L412 367 ZM504 177 L504 225 L412 225 L412 177 L504 177 Z" /><glyph glyph-name="uni507F" unicode="&#x507f;" d="M918 618 L918 399 L802 399 L802 506 L409 506 L409 400 L299 400 L299 618 L403 618 Q389 646 371.5 674.5 Q354 703 341 723 L441 764 Q448 752 457.5 734.5 Q467 717 477.5 697.5 Q488 678 498.5 657.5 Q509 637 517 618 L551 618 L551 792 L670 787 L670 618 L695 618 Q705 634 717 654 Q729 674 741 695 Q753 716 764 735.5 Q775 755 783 770 L879 719 Q865 699 847 671.5 Q829 644 809 618 L918 618 ZM333 766 Q317 710 300.5 658 Q284 606 265 557 L265 -94 L157 -94 L157 327 Q146 310 135.5 293.5 Q125 277 113 261 L26 343 Q63 399 91.5 454 Q120 509 143.5 564 Q167 619 186 675 Q205 731 223 790 L333 766 ZM788 447 L788 338 L423 338 L423 447 L788 447 ZM308 276 L915 276 L915 163 L762 163 Q777 143 796 117 Q815 91 834.5 63 Q854 35 871.5 8 Q889 -19 901 -39 L815 -108 Q807 -96 798 -81 Q789 -66 778 -49 Q750 -50 699 -52.5 Q648 -55 591.5 -58 Q535 -61 480.5 -65 Q426 -69 392 -72 L355 -77 L329 27 Q347 37 356.5 46.5 Q366 56 376 65 Q392 81 412.5 107.5 Q433 134 453 163 L308 163 L308 276 ZM711 53 Q697 73 683 91 Q669 109 657 123 L729 163 L594 163 Q581 143 567 123.5 Q553 104 539.5 87.5 Q526 71 514.5 59.5 Q503 48 495 44 L711 53 Z" /><glyph glyph-name="uni5080" unicode="&#x5080;" d="M951 74 Q950 55 947.5 36 Q945 17 941 -4 Q938 -25 929.5 -39.5 Q921 -54 905.5 -63.5 Q890 -73 866.5 -78 Q843 -83 809 -85 Q737 -90 665 -85 Q632 -83 609 -77.5 Q586 -72 571.5 -59.5 Q557 -47 550 -26.5 Q543 -6 543 26 L543 90 Q503 38 445 -9.5 Q387 -57 307 -106 L257 -25 L257 -98 L143 -98 L143 346 Q131 325 118.5 305.5 Q106 286 92 266 L12 365 Q36 402 64.5 453.5 Q93 505 120.5 562.5 Q148 620 172 680 Q196 740 211 795 L323 763 Q309 714 292.5 667.5 Q276 621 257 575 L257 10 Q355 66 415.5 126.5 Q476 187 505 265 L319 265 L319 727 L510 727 L530 792 L654 783 L637 727 L864 727 L864 265 L726 265 L785 238 Q778 221 773 210 Q768 199 763.5 189 Q759 179 753 169 Q747 159 738 146 Q752 147 764.5 147.5 Q777 148 790 150 Q785 160 779.5 169 Q774 178 769 186 L827 221 Q833 209 841 193.5 Q849 178 857 160.5 Q865 143 873 126 Q881 109 887 95 L951 74 ZM430 620 L430 547 L532 547 L532 620 L430 620 ZM750 620 L645 620 L645 547 L750 547 L750 620 ZM529 372 Q532 402 532 436 L532 445 L430 445 L430 372 L529 372 ZM750 372 L750 445 L645 445 L645 436 Q645 419 644.5 403.5 Q644 388 643 372 L750 372 ZM627 265 Q625 255 622 246 Q619 237 616 227 L653 226 L653 145 Q661 151 669 161 Q677 173 688.5 204 Q700 235 711 265 L627 265 ZM787 13 Q818 15 830 23 Q842 31 845 51 L848 70 L826 60 Q824 65 822.5 70.5 Q821 76 819 82 Q810 81 795.5 79.5 Q781 78 765 76.5 Q749 75 733 73 Q717 71 704 69 Q692 67 682 66.5 Q672 66 663 64 L653 103 L653 55 Q653 32 661.5 23.5 Q670 15 697 13 Q742 10 787 13 Z" /><glyph glyph-name="uni5085" unicode="&#x5085;" d="M928 94 L817 94 L817 10 Q817 -19 812 -38 Q807 -57 794 -69 Q781 -81 757 -87.5 Q733 -94 696 -97 L631 -103 L598 1 L657 7 Q673 8 682 11 Q691 14 695 20 Q699 26 700 36 Q701 46 701 61 L701 94 L499 94 Q519 78 537.5 62.5 Q556 47 570 33 L509 -48 Q480 -19 448.5 9 Q417 37 385 63 L410 94 L300 94 L300 195 L701 195 L701 234 L764 232 L764 260 L663 260 L663 227 L557 227 L557 260 L446 260 L446 223 L335 223 L335 587 L557 587 L557 625 L331 625 L331 719 L557 719 L557 795 L663 790 L663 719 L738 719 Q732 737 725.5 754.5 Q719 772 714 786 L810 801 Q818 779 825 759 Q832 739 838 719 L906 719 L906 625 L663 625 L663 587 L875 587 L875 223 L817 223 L817 195 L928 195 L928 94 ZM335 775 Q309 677 272 581 L272 -99 L157 -99 L157 339 Q133 297 106 261 L19 343 Q94 450 145 565 Q196 680 225 800 L335 775 ZM446 502 L446 460 L557 460 L557 502 L446 502 ZM663 502 L663 460 L764 460 L764 502 L663 502 ZM557 341 L557 377 L446 377 L446 341 L557 341 ZM764 341 L764 377 L663 377 L663 341 L764 341 Z" /></font>
</defs>
</svg>
